{
.appVersion = "1361";
classes = (
{
automatic = 1;
code = "A Aacute Abreve Acircumflex Adieresis Adotbelow Agrave Amacron Aogonek Aring Aringacute Atilde AE AEacute B C Cacute Ccaron Ccedilla Ccircumflex Cdot D Eth Dcaron Dcroat E Eacute Ebreve Ecaron Ecircumflex Edieresis Edotaccent Edotbelow Egrave Emacron Eogonek Etilde F G Gacute Gbreve Gcaron Gcircumflex Gcommaaccent Gdotaccent H Hbar Hcaron Hcircumflex I IJ Iacute Ibreve Icircumflex Idieresis Idotaccent Idotbelow Igrave Imacron Iogonek Itilde J Jacute Jcircumflex K Kcommaaccent L Lacute Lcaron Lcommaaccent Ldot Lslash M N Nacute Ncaron Ncommaaccent Eng Nhookleft Ntilde O Oacute Obreve Ocircumflex Odieresis Odotbelow Ograve Ohungarumlaut Omacron Oogonek Oslash Oslashacute Otilde OE P Thorn Q R Racute Rcaron Rcommaaccent S Sacute Scaron Scedilla Scircumflex Scommaaccent Germandbls Schwa T Tbar Tcaron Tcedilla Tcommaaccent Tdotbelow U Uacute Ubreve Ucircumflex Udieresis Udotbelow Ugrave Uhungarumlaut Umacron Uogonek Uring Utilde V W Wacute Wcircumflex Wdieresis Wgrave X Y Yacute Ycircumflex Ydieresis Ygrave Ymacron Ytilde Z Zacute Zcaron Zcircumflex Zdotaccent Cacute.loclPLK Nacute.loclPLK Oacute.loclPLK Sacute.loclPLK Zacute.loclPLK K.ss01 Kcommaaccent.ss01 Q.ss01 R.ss01 Racute.ss01 Rcaron.ss01 Rcommaaccent.ss01 Y.ss01 Yacute.ss01 Ycircumflex.ss01 Ydieresis.ss01 Ygrave.ss01 Ymacron.ss01 Ytilde.ss01 Z.ss01 Zacute.ss01 Zcaron.ss01 Zcircumflex.ss01 Zdotaccent.ss01 Zacute.loclPLK.ss01 A.ss10 B.ss10 C.ss10 D.ss10 E.ss10 F.ss10 G.ss10 H.ss10 I.ss10 J.ss10 K.ss10 L.ss10 M.ss10 N.ss10 O.ss10 P.ss10 Q.ss10 R.ss10 S.ss10 T.ss10 U.ss10 V.ss10 W.ss10 X.ss10 Y.ss10 Z.ss10";
name = Uppercase;
},
{
automatic = 1;

glyphs = (
{
glyphname = A;
lastChange = "2023-05-25 21:32:22 +0000";
layers = (
{
anchors = (
{
name = BOTTOM;
position = "{344, 0}";
},
{
name = TOP;
position = "{361, 707}";
}
);
components = (
{
name = serifUC;
transform = "{-0.82, 0, 0, 1, 76, 0}";
},
{
name = serifUC;
transform = "{1, 0, 0, 1, 133, 0}";
},
{
name = serifUC;
transform = "{-1, 0, 0, 1, 552, 0}";
},
{
name = serifUC;
transform = "{0.88, 0, 0, 1, 644, 0}";
}
);
layerId = "6D97EE47-94AA-478E-ABFB-936E6C32B491";
paths = (
{
closed = 1;
nodes = (
"646 42 LINE",
"394 737 LINE",
"312 707 LINE",
"564 12 LINE"
);
},
{
closed = 1;
nodes = (
"133 0 LINE",
"133 46 LINE",
"76 46 LINE",
"76 0 LINE"
);
},
{
closed = 1;
nodes = (
"389 673 LINE",
"338 692 LINE",
"68 29 LINE",
"118 9 LINE"
);
},
{
closed = 1;
nodes = (
"644 0 LINE",
"644 46 LINE",
"552 46 LINE",
"552 0 LINE"
);
},
{
closed = 1;
nodes = (
"503 249 LINE",
"503 300 LINE",
"208 300 LINE",
"208 249 LINE"
);
}
);
width = 715;
}
);
leftKerningGroup = A;
rightKerningGroup = A;
unicode = 0041;
},
{
glyphname = AE;
lastChange = "2023-05-25 21:32:22 +0000";
layers = (
{
anchors = (
{
name = TOP;
position = "{645, 707}";
}
);
components = (
{
name = serifUC;
transform = "{-0.82, 0, 0, 1, 76, 0}";
},
{
name = serifUC;
transform = "{1, 0, 0, 1, 136, 0}";
},
{
name = serifUC;
transform = "{-1, 0, 0, 1, 460, 0}";
},
{
name = serifUC;
transform = "{-1, 0, 0, -1, 420, 707}";
}
);
layerId = "6D97EE47-94AA-478E-ABFB-936E6C32B491";
paths = (
{
closed = 1;
nodes = (
"136 0 LINE",
"136 45 LINE",
"469 671 LINE",
"413 681 LINE",
"74 44 LINE",
"74 0 LINE"
);
},
{
closed = 1;
nodes = (
"505 249 LINE",
"505 300 LINE",
"210 300 LINE",
"210 249 LINE"
);
},
{
closed = 1;
nodes = (
"861 0 LINE",
"861 51 LINE",
"460 51 LINE",
"460 0 LINE"
);
},
{
closed = 1;
nodes = (
"547 0 LINE",
"547 707 LINE",
"460 707 LINE",
"460 0 LINE"
);
},
{
closed = 1;
nodes = (
"894 151 LINE",
"863 159 LINE",
"859 146 OFFCURVE",
"835 85 OFFCURVE",
"809 51 CURVE",
"790 13 LINE",
"861 0 LINE"
);
},
{
closed = 1;
nodes = (
"797 342 LINE",
"797 393 LINE",
"460 393 LINE",
"460 342 LINE"
);
},
{
closed = 1;
nodes = (
"797 263 LINE",
"797 351 LINE",
"749 351 LINE",
"762 321 OFFCURVE",
"765 282 OFFCURVE",
"765 263 CURVE"
);
},
{
closed = 1;
nodes = (
"797 376 LINE",
"797 463 LINE",
"765 463 LINE",
"765 444 OFFCURVE",
"762 406 OFFCURVE",
"749 376 CURVE"
);
},
{
closed = 1;
nodes = (
"837 656 LINE",
"837 707 LINE",
"418 707 LINE",
"418 656 LINE"
);
},
{
closed = 1;
nodes = (
"842 571 LINE",
"837 707 LINE",
"780 704 LINE",
"788 658 LINE",
"803 628 OFFCURVE",
"807 592 OFFCURVE",
"809 569 CURVE"
);
}
);
width = 919;
}
);
leftKerningGroup = AE;
leftMetricsKey = A;
rightKerningGroup = E;
rightMetricsKey = E;
unicode = 00C6;
},
{
glyphname = B;
lastChange = "2023-05-25 21:32:22 +0000";
layers = (
{
background = {
components = (
{
name = serifUC;
transform = "{-1, 0, 0, 1, 138, 0}";
}
);
paths = (
{
closed = 1;
nodes = (
"360 0 LINE",
"547 0 OFFCURVE",
"620 137 OFFCURVE",
"595 238 CURVE SMOOTH",
"573 332 OFFCURVE",
"485 382 OFFCURVE",
"436 398 CURVE",
"508 432 OFFCURVE",
"559 535 OFFCURVE",
"520 622 CURVE SMOOTH",
"495 678 OFFCURVE",
"440 721 OFFCURVE",
"336 721 CURVE SMOOTH",
"267 721 OFFCURVE",
"207 716 OFFCURVE",
"50 704 CURVE",
"138 691 LINE",
"138 0 LINE"
);
},
{
closed = 1;
nodes = (
"348 33 OFFCURVE",
"252 46 OFFCURVE",
"225 69 CURVE",
"225 349 LINE",
"275 349 OFFCURVE",
"338 354 OFFCURVE",
"392 334 CURVE SMOOTH",
"445 316 OFFCURVE",
"489 276 OFFCURVE",
"504 217 CURVE SMOOTH",
"524 136 OFFCURVE",
"487 77 OFFCURVE",
"415 54 CURVE SMOOTH"
);
},
{
closed = 1;
nodes = (
"146 703 LINE",
"50 704 LINE",
"53 674 LINE",
"73 676 OFFCURVE",
"116 676 OFFCURVE",
"151 666 CURVE"
);
},
{
closed = 1;
nodes = (
"225 673 LINE",
"331 686 OFFCURVE",
"404 671 OFFCURVE",
"439 588 CURVE SMOOTH",
"467 521 OFFCURVE",
"440 447 OFFCURVE",
"396 419 CURVE SMOOTH",
"349 388 OFFCURVE",
"249 394 OFFCURVE",
"225 395 CURVE"
);
}
);
};
components = (
{
name = serifUC;
transform = "{-1, 0, 0, 1, 138, 0}";
}
);
layerId = "6D97EE47-94AA-478E-ABFB-936E6C32B491";
paths = (
{
closed = 1;
nodes = (
"360 0 LINE SMOOTH",
"523 0 OFFCURVE",
"600 105 OFFCURVE",
"600 198 CURVE SMOOTH",
"600 292 OFFCURVE",
"523 370 OFFCURVE",
"436 398 CURVE",
"491 424 OFFCURVE",
"533 490 OFFCURVE",
"533 558 CURVE SMOOTH",
"533 658 OFFCURVE",
"453 721 OFFCURVE",
"336 721 CURVE SMOOTH",
"267 721 OFFCURVE",
"207 716 OFFCURVE",
"50 704 CURVE",
"138 691 LINE",
"138 0 LINE"
);
},
{
closed = 1;
nodes = (
"509 89 OFFCURVE",
"438 43 OFFCURVE",
"338 43 CURVE SMOOTH",
"289 43 OFFCURVE",
"242 54 OFFCURVE",
"225 69 CURVE",
"225 349 LINE",
"275 349 OFFCURVE",
"338 354 OFFCURVE",
"392 334 CURVE SMOOTH",
"463 310 OFFCURVE",
"509 249 OFFCURVE",
"509 175 CURVE SMOOTH"
);
},
{
closed = 1;
nodes = (
"146 703 LINE",
"50 704 LINE",
"53 674 LINE",
"73 676 OFFCURVE",
"116 676 OFFCURVE",
"151 666 CURVE"
);
},
{
closed = 1;
nodes = (
"225 673 LINE",
"359 692 OFFCURVE",
"449 650 OFFCURVE",
"449 531 CURVE SMOOTH",
"449 483 OFFCURVE",
"428 439 OFFCURVE",
"396 419 CURVE SMOOTH",
"349 388 OFFCURVE",
"249 394 OFFCURVE",
"225 395 CURVE"
);
}
);
width = 625;
}
);
leftKerningGroup = H;
leftMetricsKey = H;
rightKerningGroup = B;
rightMetricsKey = "=H/2";
unicode = 0042;
},
{
glyphname = C;
lastChange = "2023-05-25 21:32:22 +0000";
layers = (
{
anchors = (
{
name = BOTTOM;
position = "{403, 0}";
},
{
name = TOP;
position = "{403, 707}";
}
);
background = {
paths = (
{
closed = 1;
nodes = (
"715 161 LINE",
"685 176 LINE",
"628 87 OFFCURVE",
"587 56 OFFCURVE",
"504 38 CURVE SMOOTH",
"353 5 OFFCURVE",
"199 123 OFFCURVE",
"158 283 CURVE SMOOTH",
"113 456 OFFCURVE",
"191 622 OFFCURVE",
"339 661 CURVE SMOOTH",
"457 692 OFFCURVE",
"594 667 OFFCURVE",
"642 540 CURVE",
"672 546 LINE",
"652 688 LINE",
"585 706 OFFCURVE",
"448 741 OFFCURVE",
"327 708 CURVE SMOOTH",
"130 656 OFFCURVE",
"8 453 OFFCURVE",
"61 257 CURVE SMOOTH",
"113 61 OFFCURVE",
"313 -73 OFFCURVE",
"637 13 CURVE"
);
}
);
};
layerId = "6D97EE47-94AA-478E-ABFB-936E6C32B491";
paths = (
{
closed = 1;
nodes = (
"715 161 LINE",
"685 176 LINE",
"626 83 OFFCURVE",
"563 33 OFFCURVE",
"452 33 CURVE SMOOTH",
"284 33 OFFCURVE",
"145 197 OFFCURVE",
"145 380 CURVE SMOOTH",
"145 549 OFFCURVE",
"254 673 OFFCURVE",
"425 673 CURVE SMOOTH",
"520 673 OFFCURVE",
"606 635 OFFCURVE",
"642 540 CURVE",
"672 546 LINE",
"652 688 LINE",
"605 701 OFFCURVE",
"523 722 OFFCURVE",
"431 722 CURVE SMOOTH",
"221 722 OFFCURVE",
"50 560 OFFCURVE",
"50 350 CURVE SMOOTH",
"50 135 OFFCURVE",
"217 -14 OFFCURVE",
"448 -14 CURVE SMOOTH",
"505 -14 OFFCURVE",
"568 -5 OFFCURVE",
"637 13 CURVE"
);
}
);
width = 740;
}
);
leftKerningGroup = O;
leftMetricsKey = O;
rightKerningGroup = C;
rightMetricsKey = "=H/2";
unicode = 0043;
},
{
glyphname = D;
lastChange = "2023-05-25 21:32:22 +0000";
layers = (
{
anchors = (
{
name = TOP;
position = "{380, 707}";
}
);
components = (
{
name = serifUC;
transform = "{-1, 0, 0, 1, 138, 0}";
}
);
layerId = "6D97EE47-94AA-478E-ABFB-936E6C32B491";
paths = (
{
closed = 1;
nodes = (
"249 0 OFFCURVE",
"235 0 OFFCURVE",
"310 0 CURVE SMOOTH",
"373 0 OFFCURVE",
"451 7 OFFCURVE",
"495 19 CURVE SMOOTH",
"658 62 OFFCURVE",
"782 203 OFFCURVE",
"782 364 CURVE SMOOTH",
"782 597 OFFCURVE",
"590 721 OFFCURVE",
"332 721 CURVE SMOOTH",
"237 721 OFFCURVE",
"141 707 OFFCURVE",
"50 699 CURVE",
"224 668 LINE",
"479 705 OFFCURVE",
"684 575 OFFCURVE",
"684 337 CURVE SMOOTH",
"684 157 OFFCURVE",
"548 47 OFFCURVE",
"353 47 CURVE SMOOTH",
"295 47 OFFCURVE",
"247 59 OFFCURVE",
"211 74 CURVE",
"211 0 LINE"
);
},
{
closed = 1;
nodes = (
"225 0 LINE",
"225 711 LINE",
"138 695 LINE",
"138 0 LINE"
);
},
{
closed = 1;
nodes = (
"146 706 LINE",
"50 699 LINE",
"53 669 LINE",
"73 671 OFFCURVE",
"116 671 OFFCURVE",
"151 661 CURVE"
);
}
);
width = 832;
}
);
leftKerningGroup = H;
leftMetricsKey = H;
rightKerningGroup = O;
rightMetricsKey = O;
unicode = 0044;
},
{
glyphname = Eth;
lastChange = "2023-05-25 21:32:22 +0000";
layers = (
{
components = (
{
name = D;
transform = "{1, 0, 0, 1, 4, 0}";
}
);
layerId = "6D97EE47-94AA-478E-ABFB-936E6C32B491";
paths = (
{
closed = 1;
nodes = (
"419 344 LINE",
"419 386 LINE",
"50 386 LINE",
"50 344 LINE"
);
}
);
width = 836;
}
);
leftKerningGroup = H;
leftMetricsKey = D;
rightKerningGroup = O;
rightMetricsKey = D;
unicode = 00D0;
},
{
glyphname = E;
lastChange = "2023-05-25 21:32:22 +0000";
layers = (
{
anchors = (
{
name = BOTTOM;
position = "{324, 0}";
},
{
name = TOP;
position = "{314, 707}";
}
);
components = (
{
name = serifUC;
transform = "{-1, 0, 0, 1, 138, 0}";
},
{
name = serifUC;
transform = "{-1, 0, 0, -1, 138, 707}";
}
);
layerId = "6D97EE47-94AA-478E-ABFB-936E6C32B491";
paths = (
{
closed = 1;
nodes = (
"225 0 LINE",
"225 707 LINE",
"138 707 LINE",
"138 0 LINE"
);
},
{
closed = 1;
nodes = (
"540 0 LINE",
"540 51 LINE",
"138 51 LINE",
"138 0 LINE"
);
},
{
closed = 1;
nodes = (
"573 151 LINE",
"541 159 LINE",
"538 146 OFFCURVE",
"514 85 OFFCURVE",
"488 51 CURVE",
"469 13 LINE",
"540 0 LINE"
);
},
{
closed = 1;
nodes = (
"475 342 LINE",
"475 393 LINE",
"138 393 LINE",
"138 342 LINE"
);
},
{
closed = 1;
nodes = (
"475 263 LINE",
"475 351 LINE",
"428 351 LINE",
"440 321 OFFCURVE",
"443 282 OFFCURVE",
"443 263 CURVE"
);
},
{
closed = 1;
nodes = (
"475 376 LINE",
"475 463 LINE",
"443 463 LINE",
"443 444 OFFCURVE",
"440 406 OFFCURVE",
"428 376 CURVE"
);
},
{
closed = 1;
nodes = (
"515 656 LINE",
"515 707 LINE",
"138 707 LINE",
"138 656 LINE"
);
},
{
closed = 1;
nodes = (
"520 571 LINE",
"515 707 LINE",
"459 704 LINE",
"467 658 LINE",
"481 628 OFFCURVE",
"486 592 OFFCURVE",
"488 569 CURVE"
);
}
);
width = 598;
}
);
leftKerningGroup = H;
leftMetricsKey = H;
rightKerningGroup = E;
rightMetricsKey = "=H/2";
unicode = 0045;
},
{
glyphname = F;
lastChange = "2023-05-25 21:32:22 +0000";
layers = (
{
components = (
{
name = serifUC;
transform = "{-1, 0, 0, 1, 138, 0}";
},
{
name = serifUC;
transform = "{1.1, 0, 0, 1, 225, 0}";
},
{
name = serifUC;
transform = "{0, -1, -1, 0, 470, 340}";
},
{
name = serifUC;
transform = "{-1, 0, 0, -1, 138, 707}";
},
{
name = serifUC;
transform = "{0, 1, -1, 0, 470, 364}";
}
);
layerId = "6D97EE47-94AA-478E-ABFB-936E6C32B491";
paths = (
{
closed = 1;
nodes = (
"225 0 LINE",
"225 707 LINE",
"138 707 LINE",
"138 0 LINE"
);
},
{
closed = 1;
nodes = (
"470 331 LINE",
"470 382 LINE",
"138 382 LINE",
"138 331 LINE"
);
},
{
closed = 1;
nodes = (
"515 656 LINE",
"515 707 LINE",
"138 707 LINE",
"138 656 LINE"
);
},
{
closed = 1;
nodes = (
"520 571 LINE",
"515 707 LINE",
"459 704 LINE",
"467 658 LINE",
"481 628 OFFCURVE",
"486 592 OFFCURVE",
"488 569 CURVE"
);
}
);
width = 545;
}
);
leftKerningGroup = H;
leftMetricsKey = H;
rightKerningGroup = F;
rightMetricsKey = "=H/2";
unicode = 0046;
},
{
glyphname = G;
lastChange = "2023-05-25 21:32:22 +0000";
layers = (
{
anchors = (
{
name = BOTTOM;
position = "{429, 0}";
},
{
name = TOP;
position = "{429, 707}";
}
);
layerId = "6D97EE47-94AA-478E-ABFB-936E6C32B491";
paths = (
{
closed = 1;
nodes = (
"50 129 OFFCURVE",
"220 -14 OFFCURVE",
"458 -14 CURVE SMOOTH",
"563 -14 OFFCURVE",
"646 13 OFFCURVE",
"730 17 CURVE",
"730 52 LINE",
"720 57 OFFCURVE",
"708 67 OFFCURVE",
"704 76 CURVE",
"704 221 LINE",
"715 228 OFFCURVE",
"743 237 OFFCURVE",
"759 237 CURVE",
"759 269 LINE",
"529 269 LINE",
"529 237 LINE",
"547 237 OFFCURVE",
"587 234 OFFCURVE",
"617 221 CURVE",
"617 70 LINE",
"562 43 OFFCURVE",
"511 31 OFFCURVE",
"463 31 CURVE SMOOTH",
"288 31 OFFCURVE",
"145 192 OFFCURVE",
"145 380 CURVE SMOOTH",
"145 552 OFFCURVE",
"255 673 OFFCURVE",
"435 673 CURVE SMOOTH",
"531 673 OFFCURVE",
"628 634 OFFCURVE",
"664 539 CURVE",
"694 545 LINE",
"673 687 LINE",
"627 700 OFFCURVE",
"534 721 OFFCURVE",
"434 721 CURVE SMOOTH",
"221 721 OFFCURVE",
"50 563 OFFCURVE",
"50 349 CURVE SMOOTH"
);
}
);
width = 799;
}
);
leftKerningGroup = O;
leftMetricsKey = O;
rightKerningGroup = G;
rightMetricsKey = "=H-10";
unicode = 0047;
},
{
glyphname = H;
lastChange = "2023-05-25 21:32:22 +0000";
layers = (
{
anchors = (
{
name = TOP;
position = "{425, 707}";
}
);
components = (
{
name = I;
},
{
name = I;
transform = "{1, 0, 0, 1, 487, 0}";
}
);
layerId = "6D97EE47-94AA-478E-ABFB-936E6C32B491";
paths = (
{
closed = 1;
nodes = (
"647 348 LINE",
"647 399 LINE",
"203 399 LINE",
"203 348 LINE"
);
}
);
width = 850;
}
);
leftKerningGroup = H;
rightKerningGroup = H;
unicode = 0048;
},
{
glyphname = Hbar;
lastChange = "2023-05-25 21:32:22 +0000";
layers = (
{
components = (
{
name = I;
transform = "{1, 0, 0, 1, -7, 0}";
},
{
name = I;
transform = "{1, 0, 0, 1, 480, 0}";
}
);
layerId = "6D97EE47-94AA-478E-ABFB-936E6C32B491";
paths = (
{
closed = 1;
nodes = (
"640 328 LINE",
"640 379 LINE",
"196 379 LINE",
"196 328 LINE"
);
},
{
closed = 1;
nodes = (
"796 499 LINE",
"796 541 LINE",
"42 541 LINE",
"42 499 LINE"
);
}
);
width = 834;
}
);
leftKerningGroup = H;
rightKerningGroup = H;
unicode = 0126;
},
{
glyphname = I;
lastChange = "2023-05-25 21:32:22 +0000";
layers = (
{
anchors = (
{
name = BOTTOM;
position = "{182, 0}";
},
{
name = TOP;
position = "{181, 707}";
}
);
components = (
{
name = serifUC;
transform = "{-1, 0, 0, 1, 138, 0}";
},
{
name = serifUC;
transform = "{1, 0, 0, 1, 225, 0}";
},
{
name = serifUC;
transform = "{-1, 0, 0, -1, 138, 707}";
},
{
name = serifUC;
transform = "{1, 0, 0, -1, 225, 707}";
}
);
layerId = "6D97EE47-94AA-478E-ABFB-936E6C32B491";
paths = (
{
closed = 1;
nodes = (
"225 0 LINE",
"225 707 LINE",
"138 707 LINE",
"138 0 LINE"
);
}
);
width = 363;
}
);
leftKerningGroup = H;
leftMetricsKey = H;
rightKerningGroup = H;
rightMetricsKey = H;
unicode = 0049;
},
{
glyphname = J;
lastChange = "2023-05-25 21:32:22 +0000";
layers = (
{
anchors = (
{
name = TOP;
position = "{220, 707}";
}
);
background = {
paths = (
{
closed = 1;
nodes = (
"92 -271 OFFCURVE",
"221 -175 OFFCURVE",
"264 0 CURVE",
"176 0 LINE",
"166 -121 OFFCURVE",
"90 -223 OFFCURVE",
"46 -263 CURVE",
"68 -286 LINE"
);
},
{
closed = 1;
nodes = (
"214 9 LINE",
"176 62 LINE",
"177 18 OFFCURVE",
"176 -27 OFFCURVE",
"162 -73 CURVE"
);
},
{
closed = 1;
nodes = (
"264 0 LINE",
"264 707 LINE",
"176 707 LINE",
"176 0 LINE"
);
}
);
};
components = (
{
name = serifUC;
transform = "{-1, 0, 0, -1, 176, 707}";
},
{
name = serifUC;
transform = "{1, 0, 0, -1, 264, 707}";
}
);
layerId = "6D97EE47-94AA-478E-ABFB-936E6C32B491";
paths = (
{
closed = 1;
nodes = (
"68 -286 LINE",
"92 -271 OFFCURVE",
"221 -175 OFFCURVE",
"264 0 CURVE",
"264 707 LINE",
"176 707 LINE",
"176 20 LINE SMOOTH",
"175 -6 OFFCURVE",
"173 -33 OFFCURVE",
"166 -59 CURVE SMOOTH",
"141 -154 OFFCURVE",
"83 -230 OFFCURVE",
"46 -263 CURVE"
);
}
);
width = 402;
}
);
leftKerningGroup = J;
rightKerningGroup = H;
rightMetricsKey = H;
unicode = 004A;
},
{
glyphname = K;
lastChange = "2023-05-25 21:32:22 +0000";
layers = (
{
anchors = (
{
name = BOTTOM;
position = "{356, 0}";
}
);
components = (
{
name = serifUC;
transform = "{-1, 0, 0, 1, 138, 0}";
},
{
name = serifUC;
transform = "{1.04, 0, 0, 1, 225, 0}";
},
{
name = serifUC;
transform = "{-1, 0, 0, -1, 138, 707}";
},
{
name = serifUC;
transform = "{1, 0, 0, -1, 225, 707}";
},
{
name = serifUC;
transform = "{-0.82, 0, 0, -1, 512, 707}";
},
{
name = serifUC;
transform = "{1, 0, 0, -1, 580, 707}";
}
);
layerId = "6D97EE47-94AA-478E-ABFB-936E6C32B491";
paths = (
{
closed = 1;
nodes = (
"712 0 LINE",
"623 27 OFFCURVE",
"591 68 OFFCURVE",
"538 127 CURVE SMOOTH",
"473 199 OFFCURVE",
"374 342 OFFCURVE",
"331 392 CURVE",
"243 373 LINE",
"275 331 OFFCURVE",
"418 117 OFFCURVE",
"469 65 CURVE SMOOTH",
"525 7 OFFCURVE",
"568 -29 OFFCURVE",
"705 -30 CURVE"
);
},
{
closed = 1;
nodes = (
"225 0 LINE",
"225 707 LINE",
"138 707 LINE",
"138 0 LINE"
);
},
{
closed = 1;
nodes = (
"585 666 LINE",
"548 700 LINE",
"243 373 LINE",
"281 338 LINE"
);
},
{
closed = 1;
nodes = (
"580 661 LINE",
"580 707 LINE",
"512 707 LINE",
"512 661 LINE"
);
}
);
width = 706;
}
);
leftKerningGroup = H;
leftMetricsKey = H;
rightKerningGroup = K;
unicode = 004B;
},
{
glyphname = L;
lastChange = "2023-05-25 21:32:22 +0000";
layers = (
{
anchors = (
{
name = BOTTOM;
position = "{313, 0}";
},
{
name = TOP;
position = "{182, 707}";
}
);
components = (
{
name = serifUC;
transform = "{-1, 0, 0, 1, 138, 0}";
},
{
name = serifUC;
transform = "{-1, 0, 0, -1, 138, 707}";
},
{
name = serifUC;
transform = "{1, 0, 0, -1, 225, 707}";
}
);
layerId = "6D97EE47-94AA-478E-ABFB-936E6C32B491";
paths = (
{
closed = 1;
nodes = (
"225 0 LINE",
"225 707 LINE",
"138 707 LINE",
"138 0 LINE"
);
},
{
closed = 1;
nodes = (
"540 0 LINE",
"540 51 LINE",
"138 51 LINE",
"138 0 LINE"
);
},
{
closed = 1;
nodes = (
"586 148 LINE",
"555 158 LINE",
"547 139 OFFCURVE",
"516 77 OFFCURVE",
"493 51 CURVE",
"471 19 LINE",
"540 0 LINE"
);
}
);
width = 590;
}
);
leftKerningGroup = H;
leftMetricsKey = H;
rightKerningGroup = E;
unicode = 004C;
},
{
glyphname = Ldot;
lastChange = "2023-05-25 21:32:22 +0000";
layers = (
{
background = {
paths = (
{
closed = 1;
nodes = (
"527 286 OFFCURVE",
"555 316 OFFCURVE",
"555 350 CURVE SMOOTH",
"555 385 OFFCURVE",
"527 412 OFFCURVE",
"491 412 CURVE SMOOTH",
"455 412 OFFCURVE",
"428 382 OFFCURVE",
"428 348 CURVE SMOOTH",
"428 313 OFFCURVE",
"455 286 OFFCURVE",
"491 286 CURVE SMOOTH"
);
}
);
};
components = (
{
name = L;
},
{
name = periodcentered;
transform = "{1, 0, 0, 1, 344, 121}";
}
);
layerId = "6D97EE47-94AA-478E-ABFB-936E6C32B491";
width = 590;
}
);
leftKerningGroup = H;
rightKerningGroup = E;
unicode = 013F;
},
{
glyphname = Lslash;
lastChange = "2023-05-25 21:32:22 +0000";
layers = (
{
components = (
{
name = L;
}
);
layerId = "6D97EE47-94AA-478E-ABFB-936E6C32B491";
paths = (
{
closed = 1;
nodes = (
"406 427 LINE",
"387 465 LINE",
"52 301 LINE",
"71 263 LINE"
);
}
);
width = 590;
}
);
leftKerningGroup = H;
leftMetricsKey = L;
rightKerningGroup = E;
rightMetricsKey = L;
unicode = 0141;
},
{
glyphname = M;
lastChange = "2023-05-25 21:32:22 +0000";
layers = (
{
components = (
{
name = serifUC;
transform = "{-1, 0, 0, 1, 128, 0}";
},
{
name = serifUC;
transform = "{1, 0, 0, 1, 184, 0}";
},
{
name = serifUC;
transform = "{-1, 0, 0, 1, 726, 0}";
},
{
name = serifUC;
transform = "{-1, 0, 0, -1, 155, 707}";
},
{
name = serifUC;
transform = "{1, 0, 0, 1, 813, 0}";
},
{
name = serifUC;
transform = "{1, 0, 0, -1, 788, 707}";
}
);
layerId = "6D97EE47-94AA-478E-ABFB-936E6C32B491";
paths = (
{
closed = 1;
nodes = (
"786 707 LINE",
"729 707 LINE",
"449 136 LINE",
"479 135 LINE",
"245 707 LINE",
"150 707 LINE",
"439 0 LINE"
);
},
{
closed = 1;
nodes = (
"184 0 LINE",
"184 46 LINE",
"128 46 LINE",
"128 0 LINE"
);
},
{
closed = 1;
nodes = (
"182 0 LINE",
"213 707 LINE",
"157 707 LINE",
"126 0 LINE"
);
},
{
closed = 1;
nodes = (
"813 0 LINE",
"813 46 LINE",
"726 46 LINE",
"721 0 LINE"
);
},
{
closed = 1;
nodes = (
"168 659 LINE",
"168 707 LINE",
"155 707 LINE",
"155 661 LINE"
);
},
{
closed = 1;
nodes = (
"815 0 LINE",
"787 707 LINE",
"786 707 LINE",
"704 593 LINE",
"727 0 LINE"
);
},
{
closed = 1;
nodes = (
"788 661 LINE",
"788 707 LINE",
"775 707 LINE",
"775 661 LINE"
);
}
);
width = 951;
}
);
leftKerningGroup = M;
leftMetricsKey = "=H-10";
rightKerningGroup = M;
rightMetricsKey = H;
unicode = 004D;
},
{
glyphname = N;
lastChange = "2023-05-25 21:32:22 +0000";
layers = (
{
anchors = (
{
name = BOTTOM;
position = "{407, 0}";
},
{
name = TOP;
position = "{407, 707}";
}
);
components = (
{
name = serifUC;
transform = "{-1, 0, 0, 1, 128, 0}";
},
{
name = serifUC;
transform = "{1, 0, 0, 1, 184, 0}";
},
{
name = serifUC;
transform = "{-1, 0, 0, -1, 128, 707}";
},
{
name = serifUC;
transform = "{-1, 0, 0, -1, 622, 707}";
},
{
name = serifUC;
transform = "{1, 0, 0, -1, 678, 707}";
}
);
layerId = "6D97EE47-94AA-478E-ABFB-936E6C32B491";
paths = (
{
closed = 1;
nodes = (
"678 -14 LINE",
"678 707 LINE",
"622 707 LINE",
"622 113 LINE",
"642 120 LINE",
"199 707 LINE",
"128 707 LINE",
"128 0 LINE",
"184 0 LINE",
"184 623 LINE",
"158 616 LINE",
"633 -14 LINE"
);
}
);
width = 806;
}
);
leftKerningGroup = H;
leftMetricsKey = "=H-10";
rightKerningGroup = H;
rightMetricsKey = "=H-10";
unicode = 004E;
},
{
glyphname = Eng;
lastChange = "2023-05-25 21:32:22 +0000";
layers = (
{
components = (
{
name = serifUC;
transform = "{-1, 0, 0, 1, 128, 0}";
},
{
name = serifUC;
transform = "{1, 0, 0, 1, 184, 0}";
},
{
name = serifUC;
transform = "{-1, 0, 0, -1, 128, 707}";
},
{
name = serifUC;
transform = "{-1, 0, 0, -1, 624, 707}";
},
{
name = serifUC;
transform = "{1, 0, 0, -1, 676, 707}";
}
);
layerId = "6D97EE47-94AA-478E-ABFB-936E6C32B491";
paths = (
{
closed = 1;
nodes = (
"526 -239 OFFCURVE",
"569 -234 OFFCURVE",
"606 -209 CURVE SMOOTH",
"650 -179 OFFCURVE",
"666 -129 OFFCURVE",
"671 -92 CURVE SMOOTH",
"676 -53 OFFCURVE",
"678 89 OFFCURVE",
"678 141 CURVE SMOOTH",
"678 707 LINE",
"622 707 LINE",
"622 113 LINE",
"643 120 LINE",
"201 707 LINE",
"128 707 LINE",
"128 0 LINE",
"184 0 LINE",
"184 623 LINE",
"159 616 LINE",
"622 2 LINE",
"624 -80 OFFCURVE",
"618 -109 OFFCURVE",
"596 -131 CURVE SMOOTH",
"571 -155 OFFCURVE",
"519 -159 OFFCURVE",
"471 -147 CURVE",
"477 -229 LINE"
);
}
);
width = 804;
}
);
leftKerningGroup = H;
leftMetricsKey = N;
rightKerningGroup = H;
rightMetricsKey = N;
unicode = 014A;
},
{
glyphname = Nhookleft;
lastChange = "2023-05-25 21:32:22 +0000";
layers = (
{
components = (
{
name = serifUC;
transform = "{-1, 0, 0, -1, 117, 707}";
},
{
name = serifUC;
transform = "{-1, 0, 0, -1, 611, 707}";
},
{
name = serifUC;
transform = "{1, 0, 0, -1, 667, 707}";
}
);
layerId = "6D97EE47-94AA-478E-ABFB-936E6C32B491";
paths = (
{
closed = 1;
nodes = (
"667 -14 LINE",
"667 707 LINE",
"611 707 LINE",
"611 113 LINE",
"632 120 LINE",
"190 707 LINE",
"117 707 LINE",
"117 2 LINE",
"173 0 LINE",
"173 623 LINE",
"148 616 LINE",
"623 -14 LINE"
);
},
{
closed = 1;
nodes = (
"21 -239 OFFCURVE",
"64 -234 OFFCURVE",
"101 -209 CURVE SMOOTH",
"145 -179 OFFCURVE",
"165 -134 OFFCURVE",
"170 -92 CURVE SMOOTH",
"175 -53 OFFCURVE",
"173 89 OFFCURVE",
"173 141 CURVE",
"117 2 LINE",
"119 -80 OFFCURVE",
"113 -109 OFFCURVE",
"91 -131 CURVE SMOOTH",
"66 -156 OFFCURVE",
"14 -159 OFFCURVE",
"-34 -147 CURVE",
"-28 -229 LINE"
);
}
);
width = 795;
}
);
leftKerningGroup = H;
rightKerningGroup = H;
rightMetricsKey = N;
unicode = 019D;
},
{
glyphname = O;
lastChange = "2023-05-25 21:32:22 +0000";
layers = (
{
anchors = (
{
name = BOTTOM;
position = "{438, 0}";
},
{
name = TOP;
position = "{428, 707}";
}
);
background = {
paths = (
{
closed = 1;
nodes = (
"466 -14 OFFCURVE",
"514 -5 OFFCURVE",
"559 13 CURVE SMOOTH",
"703 71 OFFCURVE",
"794 213 OFFCURVE",
"794 360 CURVE SMOOTH",
"794 405 OFFCURVE",
"786 450 OFFCURVE",
"768 494 CURVE SMOOTH",
"710 636 OFFCURVE",
"570 721 OFFCURVE",
"424 721 CURVE SMOOTH",
"377 721 OFFCURVE",
"330 712 OFFCURVE",
"284 694 CURVE SMOOTH",
"140 636 OFFCURVE",
"50 495 OFFCURVE",
"50 348 CURVE SMOOTH",
"50 303 OFFCURVE",
"58 258 OFFCURVE",
"76 214 CURVE SMOOTH",
"133 71 OFFCURVE",
"273 -14 OFFCURVE",
"419 -14 CURVE SMOOTH"
);
},
{
closed = 1;
nodes = (
"334 41 OFFCURVE",
"221 121 OFFCURVE",
"169 252 CURVE SMOOTH",
"150 298 OFFCURVE",
"141 345 OFFCURVE",
"141 390 CURVE SMOOTH",
"141 506 OFFCURVE",
"200 607 OFFCURVE",
"303 649 CURVE SMOOTH",
"333 661 OFFCURVE",
"364 667 OFFCURVE",
"395 667 CURVE SMOOTH",
"510 667 OFFCURVE",
"622 587 OFFCURVE",
"675 456 CURVE SMOOTH",
"693 410 OFFCURVE",
"702 363 OFFCURVE",
"702 319 CURVE SMOOTH",
"702 203 OFFCURVE",
"643 100 OFFCURVE",
"541 59 CURVE SMOOTH",
"511 47 OFFCURVE",
"480 41 OFFCURVE",
"449 41 CURVE SMOOTH"
);
}
);
};
layerId = "6D97EE47-94AA-478E-ABFB-936E6C32B491";
paths = (
{
closed = 1;
nodes = (
"625 -14 OFFCURVE",
"794 155 OFFCURVE",
"794 360 CURVE SMOOTH",
"794 562 OFFCURVE",
"627 721 OFFCURVE",
"424 721 CURVE SMOOTH",
"218 721 OFFCURVE",
"50 553 OFFCURVE",
"50 348 CURVE SMOOTH",
"50 146 OFFCURVE",
"215 -14 OFFCURVE",
"419 -14 CURVE SMOOTH"
);
},
{
closed = 1;
nodes = (
"276 41 OFFCURVE",
"141 215 OFFCURVE",
"141 390 CURVE SMOOTH",
"141 544 OFFCURVE",
"248 667 OFFCURVE",
"395 667 CURVE SMOOTH",
"566 667 OFFCURVE",
"702 496 OFFCURVE",
"702 319 CURVE SMOOTH",
"702 165 OFFCURVE",
"596 41 OFFCURVE",
"449 41 CURVE SMOOTH"
);
}
);
width = 844;
}
);
leftKerningGroup = O;
rightKerningGroup = O;
unicode = 004F;
},
{
glyphname = Oslash;
lastChange = "2023-05-25 21:32:22 +0000";
layers = (
{
components = (
{
name = O;
}
);
layerId = "6D97EE47-94AA-478E-ABFB-936E6C32B491";
paths = (
{
closed = 1;
nodes = (
"699 778 LINE",
"660 799 LINE",
"154 -78 LINE",
"192 -100 LINE"
);
}
);
width = 844;
}
);
leftKerningGroup = O;
leftMetricsKey = O;
rightKerningGroup = O;
rightMetricsKey = O;
unicode = 00D8;
},
{
glyphname = OE;
lastChange = "2023-05-25 21:32:22 +0000";
layers = (
{
background = {
paths = (
{
closed = 1;
nodes = (
"569 17 OFFCURVE",
"579 22 OFFCURVE",
"588 26 CURVE",
"588 84 LINE",
"573 74 OFFCURVE",
"558 66 OFFCURVE",
"541 59 CURVE SMOOTH",
"399 2 OFFCURVE",
"235 86 OFFCURVE",
"169 252 CURVE SMOOTH",
"101 417 OFFCURVE",
"160 591 OFFCURVE",
"303 649 CURVE SMOOTH",
"400 688 OFFCURVE",
"508 667 OFFCURVE",
"588 606 CURVE",
"588 684 LINE",
"495 728 OFFCURVE",
"385 735 OFFCURVE",
"284 694 CURVE SMOOTH",
"98 619 OFFCURVE",
"-1 404 OFFCURVE",
"76 214 CURVE SMOOTH",
"151 26 OFFCURVE",
"371 -63 OFFCURVE",
"559 13 CURVE SMOOTH"
);
}
);
};
components = (
{
alignment = -1;
name = E;
transform = "{1, 0, 0, 1, 450, 0}";
}
);
layerId = "6D97EE47-94AA-478E-ABFB-936E6C32B491";
paths = (
{
closed = 1;
nodes = (
"486 -14 OFFCURVE",
"528 -1 OFFCURVE",
"588 26 CURVE",
"588 84 LINE",
"547 57 OFFCURVE",
"498 41 OFFCURVE",
"449 41 CURVE SMOOTH",
"276 41 OFFCURVE",
"141 216 OFFCURVE",
"141 390 CURVE SMOOTH",
"141 548 OFFCURVE",
"250 669 OFFCURVE",
"406 669 CURVE SMOOTH",
"471 669 OFFCURVE",
"536 646 OFFCURVE",
"588 606 CURVE",
"588 684 LINE",
"537 708 OFFCURVE",
"481 721 OFFCURVE",
"424 721 CURVE SMOOTH",
"218 721 OFFCURVE",
"50 553 OFFCURVE",
"50 348 CURVE SMOOTH",
"50 149 OFFCURVE",
"213 -14 OFFCURVE",
"419 -14 CURVE SMOOTH"
);
}
);
width = 1048;
}
);
leftKerningGroup = O;
leftMetricsKey = O;
rightKerningGroup = E;
rightMetricsKey = E;
unicode = 0152;
},
{
glyphname = P;
lastChange = "2023-05-25 21:32:22 +0000";
layers = (
{
background = {
paths = (
{
closed = 1;
nodes = (
"225 0 LINE",
"225 671 LINE",
"335 688 OFFCURVE",
"463 631 OFFCURVE",
"484 503 CURVE SMOOTH",
"501 399 OFFCURVE",
"440 310 OFFCURVE",
"282 300 CURVE",
"287 268 LINE",
"488 261 OFFCURVE",
"595 393 OFFCURVE",
"578 517 CURVE SMOOTH",
"560 645 OFFCURVE",
"433 713 OFFCURVE",
"344 719 CURVE SMOOTH",
"261 725 OFFCURVE",
"208 714 OFFCURVE",
"51 702 CURVE",
"138 689 LINE",
"138 0 LINE"
);
},
{
closed = 1;
nodes = (
"147 709 LINE",
"51 702 LINE",
"54 672 LINE",
"74 674 OFFCURVE",
"117 674 OFFCURVE",
"152 664 CURVE"
);
}
);
};
components = (
{
name = serifUC;
transform = "{-1, 0, 0, 1, 138, 0}";
},
{
name = serifUC;
transform = "{1.1, 0, 0, 1, 225, 0}";
}
);
layerId = "6D97EE47-94AA-478E-ABFB-936E6C32B491";
paths = (
{
closed = 1;
nodes = (
"225 0 LINE",
"225 671 LINE",
"359 692 OFFCURVE",
"487 607 OFFCURVE",
"487 470 CURVE SMOOTH",
"487 381 OFFCURVE",
"423 309 OFFCURVE",
"282 300 CURVE",
"287 268 LINE",
"474 261 OFFCURVE",
"580 375 OFFCURVE",
"580 491 CURVE SMOOTH",
"580 605 OFFCURVE",
"473 721 OFFCURVE",
"311 721 CURVE SMOOTH",
"236 721 OFFCURVE",
"178 712 OFFCURVE",
"51 702 CURVE",
"138 689 LINE",
"138 0 LINE"
);
},
{
closed = 1;
nodes = (
"147 709 LINE",
"51 702 LINE",
"54 672 LINE",
"72 675 OFFCURVE",
"126 672 OFFCURVE",
"152 664 CURVE"
);
}
);
width = 630;
}
);
leftKerningGroup = H;
leftMetricsKey = H;
rightKerningGroup = P;
rightMetricsKey = O;
unicode = 0050;
},
{
glyphname = Thorn;
lastChange = "2023-05-25 21:32:22 +0000";
layers = (
{
background = {
paths = (
{
closed = 1;
nodes = (
"453 154 OFFCURVE",
"545 273 OFFCURVE",
"531 379 CURVE SMOOTH",
"517 490 OFFCURVE",
"409 549 OFFCURVE",
"327 558 CURVE SMOOTH",
"284 563 OFFCURVE",
"253 562 OFFCURVE",
"206 552 CURVE",
"219 511 LINE",
"312 530 OFFCURVE",
"425 482 OFFCURVE",
"442 369 CURVE SMOOTH",
"457 276 OFFCURVE",
"404 201 OFFCURVE",
"266 194 CURVE",
"270 163 LINE"
);
}
);
};
components = (
{
name = I;
}
);
layerId = "6D97EE47-94AA-478E-ABFB-936E6C32B491";
paths = (
{
closed = 1;
nodes = (
"443 155 OFFCURVE",
"534 258 OFFCURVE",
"534 358 CURVE SMOOTH",
"534 477 OFFCURVE",
"422 561 OFFCURVE",
"284 561 CURVE SMOOTH",
"260 561 OFFCURVE",
"237 558 OFFCURVE",
"208 552 CURVE",
"221 511 LINE",
"234 514 OFFCURVE",
"248 515 OFFCURVE",
"262 515 CURVE SMOOTH",
"353 515 OFFCURVE",
"446 456 OFFCURVE",
"446 339 CURVE SMOOTH",
"446 260 OFFCURVE",
"391 200 OFFCURVE",
"268 194 CURVE",
"272 163 LINE"
);
}
);
width = 584;
}
);
leftKerningGroup = H;
leftMetricsKey = H;
rightKerningGroup = Thorn;
rightMetricsKey = P;
unicode = 00DE;
},
{
glyphname = Q;
lastChange = "2023-05-25 21:32:22 +0000";
layers = (
{
background = {
paths = (
{
closed = 1;
nodes = (
"748 89 OFFCURVE",
"845 304 OFFCURVE",
"768 494 CURVE SMOOTH",
"691 682 OFFCURVE",
"472 770 OFFCURVE",
"284 694 CURVE SMOOTH",
"96 618 OFFCURVE",
"0 402 OFFCURVE",
"76 214 CURVE SMOOTH",
"151 26 OFFCURVE",
"371 -63 OFFCURVE",
"559 13 CURVE SMOOTH"
);
},
{
closed = 1;
nodes = (
"853 -168 LINE",
"743 -158 OFFCURVE",
"630 -90 OFFCURVE",
"542 8 CURVE",
"445 -13 LINE",
"561 -136 OFFCURVE",
"685 -190 OFFCURVE",
"850 -200 CURVE"
);
},
{
closed = 1;
nodes = (
"399 2 OFFCURVE",
"235 86 OFFCURVE",
"169 252 CURVE SMOOTH",
"101 417 OFFCURVE",
"160 591 OFFCURVE",
"303 649 CURVE SMOOTH",
"445 706 OFFCURVE",
"608 622 OFFCURVE",
"675 456 CURVE SMOOTH",
"741 291 OFFCURVE",
"683 116 OFFCURVE",
"541 59 CURVE SMOOTH"
);
}
);
};
layerId = "6D97EE47-94AA-478E-ABFB-936E6C32B491";
paths = (
{
closed = 1;
nodes = (
"795 154 OFFCURVE",
"795 359 CURVE SMOOTH",
"795 561 OFFCURVE",
"627 721 OFFCURVE",
"424 721 CURVE SMOOTH",
"219 721 OFFCURVE",
"50 553 OFFCURVE",
"50 348 CURVE SMOOTH",
"50 149 OFFCURVE",
"213 -14 OFFCURVE",
"419 -14 CURVE SMOOTH",
"625 -14 OFFCURVE"
);
},
{
closed = 1;
nodes = (
"853 -168 LINE",
"743 -158 OFFCURVE",
"630 -90 OFFCURVE",
"542 8 CURVE",
"445 -13 LINE",
"561 -136 OFFCURVE",
"685 -190 OFFCURVE",
"850 -200 CURVE"
);
},
{
closed = 1;
nodes = (
"597 41 OFFCURVE",
"449 41 CURVE SMOOTH",
"276 41 OFFCURVE",
"141 216 OFFCURVE",
"141 390 CURVE SMOOTH",
"141 543 OFFCURVE",
"247 667 OFFCURVE",
"395 667 CURVE SMOOTH",
"566 667 OFFCURVE",
"702 496 OFFCURVE",
"702 319 CURVE SMOOTH",
"702 165 OFFCURVE"
);
}
);
width = 833;
}
);
leftKerningGroup = O;
leftMetricsKey = O;
rightKerningGroup = O;
unicode = 0051;
},
{
glyphname = R;
lastChange = "2023-05-26 14:13:36 +0000";
layers = (
{
anchors = (
{
name = BOTTOM;
position = "{356, 0}";
},
{
name = TOP;
position = "{287, 707}";
}
);
components = (
{
name = serifUC;
transform = "{-1, 0, 0, 1, 138, 0}";
},
{
name = serifUC;
transform = "{1.04, 0, 0, 1, 225, 0}";
}
);
guideLines = (
{
angle = -84;
position = "{68, 530}";
},
{
angle = 73;
position = "{679, -111}";
}
);
layerId = "6D97EE47-94AA-478E-ABFB-936E6C32B491";
paths = (
{
closed = 1;
nodes = (
"467 336 OFFCURVE",
"544 456 OFFCURVE",
"544 548 CURVE SMOOTH",
"544 680 OFFCURVE",
"439 721 OFFCURVE",
"305 721 CURVE SMOOTH",
"230 721 OFFCURVE",
"146 712 OFFCURVE",
"50 704 CURVE",
"224 677 LINE",
"358 694 OFFCURVE",
"457 642 OFFCURVE",
"457 524 CURVE SMOOTH",
"457 443 OFFCURVE",
"376 357 OFFCURVE",
"219 353 CURVE",
"219 317 LINE"
);
},
{
closed = 1;
nodes = (
"225 0 LINE",
"225 699 LINE",
"138 699 LINE",
"138 0 LINE"
);
},
{
closed = 1;
nodes = (
"713 0 LINE",
"626 33 OFFCURVE",
"590 65 OFFCURVE",
"541 128 CURVE SMOOTH",
"482 203 OFFCURVE",
"413 311 OFFCURVE",
"379 376 CURVE",
"296 352 LINE",
"325 307 OFFCURVE",
"418 129 OFFCURVE",
"466 73 CURVE SMOOTH",
"519 12 OFFCURVE",
"566 -20 OFFCURVE",
"704 -29 CURVE"
);
},
{
closed = 1;
nodes = (
"146 711 LINE",
"50 704 LINE",
"53 674 LINE",
"73 676 OFFCURVE",
"116 676 OFFCURVE",
"151 666 CURVE"
);
}
);
width = 707;
}
);
leftKerningGroup = H;
leftMetricsKey = H;
rightKerningGroup = R;
unicode = 0052;
},
{
glyphname = S;
lastChange = "2023-05-25 21:32:22 +0000";
layers = (
{
anchors = (
{
name = BOTTOM;
position = "{282, 0}";
},
{
name = TOP;
position = "{292, 707}";
}
);
background = {
paths = (
{
closed = 1;
nodes = (
"483 45 OFFCURVE",
"513 118 OFFCURVE",
"500 205 CURVE SMOOTH",
"488 287 OFFCURVE",
"421 343 OFFCURVE",
"360 380 CURVE SMOOTH",
"305 413 OFFCURVE",
"218 458 OFFCURVE",
"192 509 CURVE SMOOTH",
"154 584 OFFCURVE",
"205 650 OFFCURVE",
"273 668 CURVE SMOOTH",
"326 682 OFFCURVE",
"369 672 OFFCURVE",
"399 652 CURVE SMOOTH",
"438 626 OFFCURVE",
"451 574 OFFCURVE",
"456 536 CURVE",
"489 540 LINE",
"467 702 LINE",
"432 708 OFFCURVE",
"351 731 OFFCURVE",
"266 715 CURVE SMOOTH",
"184 700 OFFCURVE",
"91 656 OFFCURVE",
"91 537 CURVE SMOOTH",
"91 420 OFFCURVE",
"217 350 OFFCURVE",
"284 311 CURVE SMOOTH",
"346 275 OFFCURVE",
"404 229 OFFCURVE",
"411 170 CURVE SMOOTH",
"419 102 OFFCURVE",
"373 45 OFFCURVE",
"296 35 CURVE SMOOTH",
"210 24 OFFCURVE",
"162 55 OFFCURVE",
"132 93 CURVE SMOOTH",
"103 129 OFFCURVE",
"87 186 OFFCURVE",
"79 221 CURVE",
"46 215 LINE",
"77 23 LINE",
"85 12 OFFCURVE",
"270 -41 OFFCURVE",
"382 4 CURVE SMOOTH"
);
}
);
};
layerId = "6D97EE47-94AA-478E-ABFB-936E6C32B491";
paths = (
{
closed = 1;
nodes = (
"401 -14 OFFCURVE",
"503 50 OFFCURVE",
"503 168 CURVE SMOOTH",
"503 400 OFFCURVE",
"179 402 OFFCURVE",
"179 560 CURVE SMOOTH",
"179 626 OFFCURVE",
"244 675 OFFCURVE",
"321 675 CURVE SMOOTH",
"405 675 OFFCURVE",
"445 620 OFFCURVE",
"456 536 CURVE",
"489 540 LINE",
"467 702 LINE",
"441 707 OFFCURVE",
"389 721 OFFCURVE",
"328 721 CURVE SMOOTH",
"197 721 OFFCURVE",
"91 660 OFFCURVE",
"91 537 CURVE SMOOTH",
"91 334 OFFCURVE",
"412 316 OFFCURVE",
"412 155 CURVE SMOOTH",
"412 79 OFFCURVE",
"350 33 OFFCURVE",
"262 33 CURVE SMOOTH",
"154 33 OFFCURVE",
"105 106 OFFCURVE",
"79 221 CURVE",
"46 215 LINE",
"77 23 LINE",
"83 15 OFFCURVE",
"178 -14 OFFCURVE",
"272 -14 CURVE SMOOTH"
);
}
);
width = 554;
}
);
leftKerningGroup = S;
rightKerningGroup = S;
unicode = 0053;
},
{
glyphname = Germandbls;
lastChange = "2023-05-25 21:32:22 +0000";
layers = (
{
background = {
paths = (
{
closed = 1;
nodes = (
"585 -14 OFFCURVE",
"623 8 OFFCURVE",
"662 45 CURVE SMOOTH",
"694 76 OFFCURVE",
"720 123 OFFCURVE",
"711 199 CURVE SMOOTH",
"700 294 OFFCURVE",
"593 387 OFFCURVE",
"477 472 CURVE",
"476 421 LINE",
"604 625 LINE",
"551 675 OFFCURVE",
"510 693 OFFCURVE",
"479 705 CURVE SMOOTH",
"450 716 OFFCURVE",
"414 721 OFFCURVE",
"374 721 CURVE SMOOTH",
"344 721 OFFCURVE",
"316 715 OFFCURVE",
"300 710 CURVE SMOOTH",
"262 700 OFFCURVE",
"225 678 OFFCURVE",
"199 653 CURVE SMOOTH",
"120 577 OFFCURVE",
"116 472 OFFCURVE",
"116 379 CURVE SMOOTH",
"116 0 LINE",
"204 0 LINE",
"204 418 LINE SMOOTH",
"204 454 OFFCURVE",
"205 505 OFFCURVE",
"212 547 CURVE SMOOTH",
"217 575 OFFCURVE",
"224 607 OFFCURVE",
"249 631 CURVE SMOOTH",
"275 656 OFFCURVE",
"317 678 OFFCURVE",
"377 669 CURVE SMOOTH",
"446 659 OFFCURVE",
"496 611 OFFCURVE",
"537 557 CURVE",
"550 616 LINE",
"415 397 LINE",
"478 349 OFFCURVE",
"520 318 OFFCURVE",
"566 275 CURVE SMOOTH",
"607 237 OFFCURVE",
"631 191 OFFCURVE",
"636 166 CURVE SMOOTH",
"642 132 OFFCURVE",
"637 98 OFFCURVE",
"610 69 CURVE SMOOTH",
"587 45 OFFCURVE",
"557 31 OFFCURVE",
"516 32 CURVE SMOOTH",
"471 33 OFFCURVE",
"438 61 OFFCURVE",
"418 83 CURVE SMOOTH",
"398 105 OFFCURVE",
"373 150 OFFCURVE",
"359 219 CURVE",
"325 212 LINE",
"355 24 LINE",
"384 6 OFFCURVE",
"458 -14 OFFCURVE",
"504 -14 CURVE SMOOTH"
);
}
);
};
components = (
{
name = serifUC;
transform = "{-1, 0, 0, 1, 116, 0}";
},
{
name = serifUC;
transform = "{0.9, 0, 0, 1, 204, 0}";
}
);
layerId = "6D97EE47-94AA-478E-ABFB-936E6C32B491";
paths = (
{
closed = 1;
nodes = (
"638 -14 OFFCURVE",
"713 67 OFFCURVE",
"713 170 CURVE SMOOTH",
"713 290 OFFCURVE",
"596 385 OFFCURVE",
"477 472 CURVE",
"476 421 LINE",
"604 625 LINE",
"533 692 OFFCURVE",
"465 721 OFFCURVE",
"374 721 CURVE SMOOTH",
"314 721 OFFCURVE",
"246 698 OFFCURVE",
"199 653 CURVE SMOOTH",
"120 577 OFFCURVE",
"116 472 OFFCURVE",
"116 379 CURVE SMOOTH",
"116 0 LINE",
"204 0 LINE",
"204 418 LINE SMOOTH",
"204 561 OFFCURVE",
"219 671 OFFCURVE",
"350 671 CURVE SMOOTH",
"433 671 OFFCURVE",
"491 618 OFFCURVE",
"537 557 CURVE",
"550 616 LINE",
"415 397 LINE",
"536 305 OFFCURVE",
"638 232 OFFCURVE",
"638 141 CURVE SMOOTH",
"638 80 OFFCURVE",
"588 32 OFFCURVE",
"520 32 CURVE SMOOTH",
"438 32 OFFCURVE",
"381 110 OFFCURVE",
"359 219 CURVE",
"325 212 LINE",
"355 24 LINE",
"384 6 OFFCURVE",
"458 -14 OFFCURVE",
"504 -14 CURVE SMOOTH"
);
}
);
width = 738;
}
);
leftKerningGroup = H;
rightKerningGroup = B;
rightMetricsKey = B;
unicode = 1E9E;
},
{
glyphname = Schwa;
lastChange = "2023-05-25 21:32:22 +0000";
layers = (
{
background = {
paths = (
{
closed = 1;
nodes = (
"393 -14 OFFCURVE",
"467 -7 OFFCURVE",
"539 47 CURVE SMOOTH",
"617 105 OFFCURVE",
"684 187 OFFCURVE",
"684 360 CURVE SMOOTH",
"684 562 OFFCURVE",
"527 721 OFFCURVE",
"324 721 CURVE SMOOTH",
"192 721 OFFCURVE",
"108 647 OFFCURVE",
"78 609 CURVE",
"108 580 LINE",
"142 613 OFFCURVE",
"216 667 OFFCURVE",
"301 667 CURVE SMOOTH",
"467 667 OFFCURVE",
"593 507 OFFCURVE",
"593 319 CURVE SMOOTH",
"593 172 OFFCURVE",
"524 34 OFFCURVE",
"347 34 CURVE SMOOTH",
"223 34 OFFCURVE",
"143 153 OFFCURVE",
"143 238 CURVE",
"619 238 LINE",
"628 289 LINE",
"42 289 LINE",
"41 277 OFFCURVE",
"40 266 OFFCURVE",
"40 255 CURVE SMOOTH",
"40 99 OFFCURVE",
"183 -14 OFFCURVE",
"330 -14 CURVE SMOOTH"
);
}
);
};
layerId = "6D97EE47-94AA-478E-ABFB-936E6C32B491";
paths = (
{
closed = 1;
nodes = (
"533 -14 OFFCURVE",
"684 118 OFFCURVE",
"684 360 CURVE SMOOTH",
"684 562 OFFCURVE",
"527 721 OFFCURVE",
"324 721 CURVE SMOOTH",
"192 721 OFFCURVE",
"108 647 OFFCURVE",
"78 609 CURVE",
"108 580 LINE",
"142 613 OFFCURVE",
"216 667 OFFCURVE",
"301 667 CURVE SMOOTH",
"467 667 OFFCURVE",
"593 507 OFFCURVE",
"593 319 CURVE SMOOTH",
"593 172 OFFCURVE",
"524 34 OFFCURVE",
"347 34 CURVE SMOOTH",
"223 34 OFFCURVE",
"143 153 OFFCURVE",
"143 238 CURVE",
"619 238 LINE",
"628 289 LINE",
"42 289 LINE",
"22 108 OFFCURVE",
"168 -14 OFFCURVE",
"345 -14 CURVE SMOOTH"
);
}
);
width = 734;
}
);
leftKerningGroup = Schwa;
rightKerningGroup = O;
rightMetricsKey = O;
unicode = 018F;
},
{
glyphname = T;
lastChange = "2023-05-25 21:32:22 +0000";
layers = (
{
anchors = (
{
name = BOTTOM;
position = "{319, 0}";
},
{
name = TOP;
position = "{319, 707}";
}
);
components = (
{
name = serifUC;
transform = "{-1, 0, 0, 1, 275, 0}";
},
{
name = serifUC;
transform = "{1, 0, 0, 1, 362, 0}";
}
);
layerId = "6D97EE47-94AA-478E-ABFB-936E6C32B491";
paths = (
{
closed = 1;
nodes = (
"362 0 LINE",
"362 707 LINE",
"275 707 LINE",
"275 0 LINE"
);
},
{
closed = 1;
nodes = (
"42 531 LINE",
"50 586 OFFCURVE",
"59 643 OFFCURVE",
"82 707 CURVE",
"10 707 LINE",
"10 531 LINE"
);
},
{
closed = 1;
nodes = (
"602 656 LINE",
"602 707 LINE",
"35 707 LINE",
"35 656 LINE"
);
},
{
closed = 1;
nodes = (
"628 707 LINE",
"557 707 LINE",
"574 639 OFFCURVE",
"572 584 OFFCURVE",
"571 531 CURVE",
"602 528 LINE"
);
}
);
width = 638;
}
);
leftKerningGroup = T;
rightKerningGroup = T;
unicode = 0054;
},
{
glyphname = Tbar;
lastChange = "2023-05-25 21:32:22 +0000";
layers = (
{
components = (
{
name = T;
}
);
layerId = "6D97EE47-94AA-478E-ABFB-936E6C32B491";
paths = (
{
closed = 1;
nodes = (
"494 339 LINE",
"494 381 LINE",
"144 381 LINE",
"144 339 LINE"
);
}
);
width = 638;
}
);
leftKerningGroup = T;
leftMetricsKey = T;
rightKerningGroup = T;
rightMetricsKey = T;
unicode = 0166;
},
{
glyphname = U;
lastChange = "2023-05-25 21:32:22 +0000";
layers = (
{
anchors = (
{
name = BOTTOM;
position = "{437, 0}";
},
{
name = TOP;
position = "{436, 707}";
}
);
components = (
{
name = serifUC;
transform = "{-1, 0, 0, -1, 138, 707}";
},
{
name = serifUC;
transform = "{1, 0, 0, -1, 225, 707}";
},
{
name = serifUC;
transform = "{-1, 0, 0, -1, 650, 707}";
},
{
name = serifUC;
transform = "{1, 0, 0, -1, 706, 707}";
}
);
layerId = "6D97EE47-94AA-478E-ABFB-936E6C32B491";
paths = (
{
closed = 1;
nodes = (
"506 -14 OFFCURVE",
"647 15 OFFCURVE",
"688 139 CURVE SMOOTH",
"708 199 OFFCURVE",
"706 306 OFFCURVE",
"706 393 CURVE SMOOTH",
"706 498 OFFCURVE",
"706 707 OFFCURVE",
"706 707 CURVE SMOOTH",
"650 707 LINE SMOOTH",
"650 707 OFFCURVE",
"650 495 OFFCURVE",
"650 400 CURVE SMOOTH",
"650 305 OFFCURVE",
"653 218 OFFCURVE",
"637 162 CURVE SMOOTH",
"611 76 OFFCURVE",
"528 38 OFFCURVE",
"433 38 CURVE SMOOTH",
"335 38 OFFCURVE",
"263 97 OFFCURVE",
"240 166 CURVE SMOOTH",
"223 220 OFFCURVE",
"225 338 OFFCURVE",
"225 389 CURVE SMOOTH",
"225 440 OFFCURVE",
"225 707 OFFCURVE",
"225 707 CURVE SMOOTH",
"138 707 LINE SMOOTH",
"138 707 OFFCURVE",
"138 488 OFFCURVE",
"138 384 CURVE SMOOTH",
"138 281 OFFCURVE",
"139 192 OFFCURVE",
"163 134 CURVE SMOOTH",
"213 18 OFFCURVE",
"340 -14 OFFCURVE",
"423 -14 CURVE SMOOTH"
);
}
);
width = 834;
}
);
leftKerningGroup = U;
leftMetricsKey = H;
rightKerningGroup = U;
rightMetricsKey = "=H-10";
unicode = 0055;
},
{
glyphname = V;
lastChange = "2023-05-25 21:32:22 +0000";
layers = (
{
components = (
{
name = serifUC;
transform = "{-0.9, 0, 0, -1, 83, 707}";
},
{
name = serifUC;
transform = "{1, 0, 0, -1, 177, 707}";
},
{
name = serifUC;
transform = "{-1, 0, 0, -1, 596, 707}";
},
{
name = serifUC;
transform = "{0.8, 0, 0, -1, 652, 707}";
}
);
layerId = "6D97EE47-94AA-478E-ABFB-936E6C32B491";
paths = (
{
closed = 1;
nodes = (
"376 -14 LINE",
"652 661 LINE",
"611 699 LINE",
"362 90 LINE",
"390 90 LINE",
"163 700 LINE",
"83 661 LINE",
"335 -14 LINE"
);
},
{
closed = 1;
nodes = (
"177 661 LINE",
"177 707 LINE",
"83 707 LINE",
"83 661 LINE"
);
},
{
closed = 1;
nodes = (
"652 661 LINE",
"652 707 LINE",
"596 707 LINE",
"596 661 LINE"
);
}
);
width = 726;
}
);
leftKerningGroup = V;
rightKerningGroup = V;
unicode = 0056;
},
{
glyphname = W;
lastChange = "2023-05-25 21:32:22 +0000";
layers = (
{
components = (
{
name = serifUC;
transform = "{-0.88, 0, 0, -1, 81, 707}";
},
{
name = serifUC;
transform = "{1, 0, 0, -1, 170, 707}";
},
{
name = serifUC;
transform = "{-1, 0, 0, -1, 847, 707}";
},
{
name = serifUC;
transform = "{0.82, 0, 0, -1, 901, 707}";
}
);
layerId = "6D97EE47-94AA-478E-ABFB-936E6C32B491";
paths = (
{
closed = 1;
nodes = (
"297 -14 LINE",
"514 518 LINE",
"486 518 LINE",
"694 -14 LINE",
"735 -14 LINE",
"907 684 LINE",
"855 696 LINE",
"713 117 LINE",
"737 118 LINE",
"540 619 LINE",
"498 619 LINE",
"290 109 LINE",
"314 108 LINE",
"162 694 LINE",
"77 673 LINE",
"255 -14 LINE"
);
},
{
closed = 1;
nodes = (
"170 661 LINE",
"170 707 LINE",
"81 707 LINE",
"81 661 LINE"
);
},
{
closed = 1;
nodes = (
"901 661 LINE",
"901 707 LINE",
"847 707 LINE",
"847 661 LINE"
);
}
);
width = 949;
}
);
leftKerningGroup = W;
leftMetricsKey = V;
rightKerningGroup = W;
unicode = 0057;
},
{
glyphname = X;
lastChange = "2023-05-25 21:32:22 +0000";
layers = (
{
background = {
paths = (
{
closed = 1;
nodes = (
"594 46 LINE",
"180 683 LINE",
"74 683 LINE",
"495 35 LINE"
);
},
{
closed = 1;
nodes = (
"139 0 LINE",
"139 46 LINE",
"76 46 LINE",
"76 0 LINE"
);
},
{
closed = 1;
nodes = (
"131 34 LINE",
"334 325 LINE",
"303 372 LINE",
"66 32 LINE"
);
},
{
closed = 1;
nodes = (
"594 0 LINE",
"594 46 LINE",
"489 46 LINE",
"489 0 LINE"
);
},
{
closed = 1;
nodes = (
"194 661 LINE",
"194 707 LINE",
"89 707 LINE",
"89 661 LINE"
);
},
{
closed = 1;
nodes = (
"586 673 LINE",
"530 683 LINE",
"333 402 LINE",
"365 357 LINE"
);
},
{
closed = 1;
nodes = (
"577 661 LINE",
"577 707 LINE",
"515 707 LINE",
"515 661 LINE"
);
}
);
};
components = (
{
name = serifUC;
transform = "{-0.82, 0, 0, 1, 76, 0}";
},
{
name = serifUC;
transform = "{1, 0, 0, 1, 139, 0}";
},
{
name = serifUC;
transform = "{-1, 0, 0, 1, 489, 0}";
},
{
name = serifUC;
transform = "{0.87, 0, 0, 1, 594, 0}";
},
{
name = serifUC;
transform = "{-0.88, 0, 0, -1, 89, 707}";
},
{
name = serifUC;
transform = "{1, 0, 0, -1, 194, 707}";
},
{
name = serifUC;
transform = "{-1, 0, 0, -1, 515, 707}";
},
{
name = serifUC;
transform = "{0.82, 0, 0, -1, 577, 707}";
}
);
layerId = "6D97EE47-94AA-478E-ABFB-936E6C32B491";
paths = (
{
closed = 1;
nodes = (
"594 0 LINE",
"594 46 LINE",
"194 661 LINE",
"194 707 LINE",
"87 707 LINE",
"87 663 LINE",
"489 44 LINE",
"489 0 LINE"
);
},
{
closed = 1;
nodes = (
"139 0 LINE",
"139 46 LINE",
"334 325 LINE",
"303 372 LINE",
"75 45 LINE",
"75 0 LINE"
);
},
{
closed = 1;
nodes = (
"579 663 LINE",
"579 707 LINE",
"515 707 LINE",
"515 662 LINE",
"333 402 LINE",
"365 357 LINE"
);
}
);
width = 675;
}
);
leftKerningGroup = X;
rightKerningGroup = X;
unicode = 0058;
},
{
glyphname = Y;
lastChange = "2023-05-25 21:32:22 +0000";
layers = (
{
anchors = (
{
name = TOP;
position = "{339, 707}";
}
);
components = (
{
name = serifUC;
transform = "{-1, 0, 0, 1, 291, 0}";
},
{
name = serifUC;
transform = "{1, 0, 0, 1, 378, 0}";
},
{
name = serifUC;
transform = "{-0.88, 0, 0, -1, 81, 707}";
},
{
name = serifUC;
transform = "{1, 0, 0, -1, 180, 707}";
},
{
name = serifUC;
transform = "{-1, 0, 0, -1, 519, 707}";
},
{
name = serifUC;
transform = "{0.82, 0, 0, -1, 577, 707}";
}
);
layerId = "6D97EE47-94AA-478E-ABFB-936E6C32B491";
paths = (
{
closed = 1;
nodes = (
"376 309 LINE",
"157 704 LINE",
"80 662 LINE",
"299 266 LINE"
);
},
{
closed = 1;
nodes = (
"378 0 LINE",
"378 339 LINE",
"291 339 LINE",
"291 0 LINE"
);
},
{
closed = 1;
nodes = (
"180 661 LINE",
"180 707 LINE",
"81 707 LINE",
"81 661 LINE"
);
},
{
closed = 1;
nodes = (
"585 674 LINE",
"540 699 LINE",
"309 285 LINE",
"355 260 LINE"
);
},
{
closed = 1;
nodes = (
"577 661 LINE",
"577 707 LINE",
"519 707 LINE",
"519 661 LINE"
);
}
);
width = 653;
}
);
leftKerningGroup = V;
rightKerningGroup = V;
unicode = 0059;
},
{
glyphname = Z;
lastChange = "2023-05-25 21:32:22 +0000";
layers = (
{
anchors = (
{
name = TOP;
position = "{289, 707}";
}
);
layerId = "6D97EE47-94AA-478E-ABFB-936E6C32B491";
paths = (
{
closed = 1;
nodes = (
"105 0 LINE",
"555 669 LINE",
"538 707 LINE",
"474 707 LINE",
"25 38 LINE",
"40 0 LINE"
);
},
{
closed = 1;
nodes = (
"556 0 LINE",
"556 51 LINE",
"60 51 LINE",
"60 0 LINE"
);
},
{
closed = 1;
nodes = (
"595 167 LINE",
"564 175 LINE",
"560 161 OFFCURVE",
"531 90 OFFCURVE",
"500 51 CURVE",
"478 8 LINE",
"556 0 LINE"
);
},
{
closed = 1;
nodes = (
"79 587 OFFCURVE",
"85 639 OFFCURVE",
"110 701 CURVE",
"43 707 LINE",
"36 536 LINE",
"68 534 LINE"
);
},
{
closed = 1;
nodes = (
"508 656 LINE",
"508 707 LINE",
"43 707 LINE",
"43 656 LINE"
);
}
);
width = 620;
}
);
leftKerningGroup = Z;
leftMetricsKey = "=H/2";
rightKerningGroup = Z;
rightMetricsKey = "=H/2";
unicode = 005A;
},
{
glyphname = K.ss01;
lastChange = "2023-05-25 21:32:22 +0000";
layers = (
{
anchors = (
{
name = BOTTOM;
position = "{356, 0}";
}
);
components = (
{
name = serifUC;
transform = "{-1, 0, 0, 1, 138, 0}";
},
{
name = serifUC;
transform = "{1.04, 0, 0, 1, 225, 0}";
},
{
name = serifUC;
transform = "{-1, 0, 0, -1, 138, 707}";
},
{
name = serifUC;
transform = "{1, 0, 0, -1, 225, 707}";
},
{
name = serifUC;
transform = "{-0.82, 0, 0, -1, 512, 707}";
},
{
name = serifUC;
transform = "{1, 0, 0, -1, 580, 707}";
}
);
layerId = "6D97EE47-94AA-478E-ABFB-936E6C32B491";
paths = (
{
closed = 1;
nodes = (
"857 -184 LINE",
"768 -157 OFFCURVE",
"736 -116 OFFCURVE",
"683 -57 CURVE SMOOTH",
"620 13 OFFCURVE",
"374 333 OFFCURVE",
"331 392 CURVE",
"243 373 LINE",
"275 331 OFFCURVE",
"563 -67 OFFCURVE",
"614 -119 CURVE SMOOTH",
"670 -177 OFFCURVE",
"713 -213 OFFCURVE",
"850 -214 CURVE"
);
},
{
closed = 1;
nodes = (
"225 0 LINE",
"225 707 LINE",
"138 707 LINE",
"138 0 LINE"
);
},
{
closed = 1;
nodes = (
"585 666 LINE",
"548 700 LINE",
"243 373 LINE",
"281 338 LINE"
);
},
{
closed = 1;
nodes = (
"580 661 LINE",
"580 707 LINE",
"512 707 LINE",
"512 661 LINE"
);
}
);
width = 657;
}
);
leftKerningGroup = H;
leftMetricsKey = K;
rightKerningGroup = K.ss01;
},
{
glyphname = Q.ss01;
lastChange = "2023-05-25 21:32:22 +0000";
layers = (
{
layerId = "6D97EE47-94AA-478E-ABFB-936E6C32B491";
paths = (
{
closed = 1;
nodes = (
"1166 -251 OFFCURVE",
"1314 -221 OFFCURVE",
"1456 -126 CURVE",
"1437 -101 LINE",
"1361 -149 OFFCURVE",
"1279 -178 OFFCURVE",
"1134 -175 CURVE SMOOTH",
"986 -172 OFFCURVE",
"620 1 OFFCURVE",
"534 34 CURVE",
"385 0 LINE",
"475 -16 OFFCURVE",
"854 -206 OFFCURVE",
"997 -227 CURVE SMOOTH"
);
},
{
closed = 1;
nodes = (
"625 -14 OFFCURVE",
"795 154 OFFCURVE",
"795 359 CURVE SMOOTH",
"795 561 OFFCURVE",
"627 721 OFFCURVE",
"424 721 CURVE SMOOTH",
"219 721 OFFCURVE",
"50 553 OFFCURVE",
"50 348 CURVE SMOOTH",
"50 149 OFFCURVE",
"213 -14 OFFCURVE",
"419 -14 CURVE SMOOTH"
);
},
{
closed = 1;
nodes = (
"702 165 OFFCURVE",
"597 41 OFFCURVE",
"449 41 CURVE SMOOTH",
"276 41 OFFCURVE",
"141 216 OFFCURVE",
"141 390 CURVE SMOOTH",
"141 543 OFFCURVE",
"247 667 OFFCURVE",
"395 667 CURVE SMOOTH",
"566 667 OFFCURVE",
"702 496 OFFCURVE",
"702 319 CURVE SMOOTH"
);
}
);
width = 849;
}
);
leftKerningGroup = O;
leftMetricsKey = O;
rightKerningGroup = Q.ss01;
},
{
glyphname = R.ss01;
lastChange = "2023-05-25 21:32:22 +0000";
layers = (
{
anchors = (
{
name = BOTTOM;
position = "{356, 0}";
},
{
name = TOP;
position = "{287, 707}";
}
);
components = (
{
alignment = -1;
name = serifUC;
transform = "{-1, 0, 0, 1, 138, 0}";
},
{
alignment = -1;
name = serifUC;
transform = "{1.04, 0, 0, 1, 225, 0}";
}
);
layerId = "6D97EE47-94AA-478E-ABFB-936E6C32B491";
paths = (
{
closed = 1;
nodes = (
"837 -185 LINE",
"750 -152 OFFCURVE",
"714 -120 OFFCURVE",
"665 -57 CURVE SMOOTH",
"607 17 OFFCURVE",
"416 311 OFFCURVE",
"379 376 CURVE",
"296 352 LINE",
"325 307 OFFCURVE",
"542 -56 OFFCURVE",
"590 -112 CURVE SMOOTH",
"643 -173 OFFCURVE",
"690 -205 OFFCURVE",
"828 -214 CURVE"
);
},
{
closed = 1;
nodes = (
"467 336 OFFCURVE",
"544 456 OFFCURVE",
"544 548 CURVE SMOOTH",
"544 680 OFFCURVE",
"439 721 OFFCURVE",
"305 721 CURVE SMOOTH",
"230 721 OFFCURVE",
"146 712 OFFCURVE",
"50 704 CURVE",
"224 677 LINE",
"358 694 OFFCURVE",
"457 642 OFFCURVE",
"457 524 CURVE SMOOTH",
"457 443 OFFCURVE",
"376 357 OFFCURVE",
"219 353 CURVE",
"219 317 LINE"
);
},
{
closed = 1;
nodes = (
"225 0 LINE",
"225 699 LINE",
"138 699 LINE",
"138 0 LINE"
);
},
{
closed = 1;
nodes = (
"146 711 LINE",
"50 704 LINE",
"53 674 LINE",
"73 676 OFFCURVE",
"116 676 OFFCURVE",
"151 666 CURVE"
);
}
);
width = 637;
}
);
leftKerningGroup = H;
leftMetricsKey = R;
rightKerningGroup = R.ss01;
},
{
glyphname = Y.ss01;
lastChange = "2023-05-25 21:32:22 +0000";
layers = (
{
anchors = (
{
name = TOP;
position = "{301, 707}";
}
);
components = (
{
name = serifUC;
transform = "{-1, 0, 0, 1, 254, 0}";
},
{
name = serifUC;
transform = "{1, 0, 0, 1, 342, 0}";
}
);
layerId = "6D97EE47-94AA-478E-ABFB-936E6C32B491";
paths = (
{
closed = 1;
nodes = (
"342 249 LINE",
"356 491 OFFCURVE",
"219 670 OFFCURVE",
"16 728 CURVE",
"4 698 LINE",
"150 628 OFFCURVE",
"257 432 OFFCURVE",
"254 249 CURVE"
);
},
{
closed = 1;
nodes = (
"342 0 LINE",
"342 249 LINE",
"254 249 LINE",
"254 0 LINE"
);
},
{
closed = 1;
nodes = (
"342 249 LINE",
"342 421 OFFCURVE",
"415 619 OFFCURVE",
"582 700 CURVE",
"570 728 LINE",
"374 650 OFFCURVE",
"272 467 OFFCURVE",
"254 249 CURVE"
);
}
);
width = 586;
}
);
leftKerningGroup = V;
leftMetricsKey = Y;
rightKerningGroup = V;
rightMetricsKey = Y;
},
{
glyphname = Z.ss01;
lastChange = "2023-05-25 21:32:22 +0000";
layers = (
{
anchors = (
{
name = TOP;
position = "{279, 707}";
}
);
layerId = "6D97EE47-94AA-478E-ABFB-936E6C32B491";
paths = (
{
closed = 1;
nodes = (
"71 0 LINE",
"521 669 LINE",
"504 707 LINE",
"474 707 LINE",
"25 38 LINE",
"40 0 LINE"
);
},
{
closed = 1;
nodes = (
"522 0 LINE",
"522 80 LINE",
"60 80 LINE",
"60 0 LINE"
);
},
{
closed = 1;
nodes = (
"561 167 LINE",
"530 175 LINE",
"526 161 OFFCURVE",
"497 90 OFFCURVE",
"466 51 CURVE",
"444 8 LINE",
"522 0 LINE"
);
},
{
closed = 1;
nodes = (
"79 587 OFFCURVE",
"85 639 OFFCURVE",
"110 701 CURVE",
"43 707 LINE",
"36 536 LINE",
"68 534 LINE"
);
},
{
closed = 1;
nodes = (
"474 629 LINE",
"474 707 LINE",
"43 707 LINE",
"43 629 LINE"
);
}
);
width = 586;
}
);
leftKerningGroup = Z;
leftMetricsKey = Z;
rightKerningGroup = Z;
rightMetricsKey = Z;
},
{
glyphname = A.ss10;
lastChange = "2023-05-25 21:32:22 +0000";
layers = (
{
layerId = "6D97EE47-94AA-478E-ABFB-936E6C32B491";
paths = (
{
closed = 1;
nodes = (
"1305 -440 LINE",
"1305 1117 LINE",
"100 1117 LINE",
"100 -440 LINE"
);
},
{
closed = 1;
nodes = (
"180 1037 LINE",
"1225 1037 LINE",
"1225 -360 LINE",
"180 -360 LINE"
);
},
{
closed = 1;
nodes = (
"1201 -336 LINE",
"1201 1013 LINE",
"204 1013 LINE",
"204 -336 LINE"
);
},
{
closed = 1;
nodes = (
"344 30 LINE",
"359 30 OFFCURVE",
"390 33 OFFCURVE",
"415 45 CURVE",
"667 665 LINE",
"652 707 LINE",
"734 737 LINE",
"985 46 LINE",
"1011 33 OFFCURVE",
"1045 30 OFFCURVE",
"1061 30 CURVE",
"1061 0 LINE",
"804 0 LINE",
"804 30 LINE",
"823 30 OFFCURVE",
"862 33 OFFCURVE",
"892 46 CURVE",
"818 249 LINE",
"556 249 LINE",
"473 46 LINE",
"503 33 OFFCURVE",
"542 30 OFFCURVE",
"561 30 CURVE",
"561 0 LINE",
"344 0 LINE"
);
},
{
closed = 1;
nodes = (
"800 300 LINE",
"695 589 LINE",
"577 300 LINE"
);
}
);
width = 1405;
}
);
},
{
glyphname = B.ss10;
lastChange = "2023-05-25 21:32:22 +0000";
layers = (
{
layerId = "6D97EE47-94AA-478E-ABFB-936E6C32B491";
paths = (
{
closed = 1;
nodes = (
"1138 -440 LINE",
"1138 1117 LINE",
"100 1117 LINE",
"100 -440 LINE"
);
},
{
closed = 1;
nodes = (
"180 1037 LINE",
"1058 1037 LINE",
"1058 -360 LINE",
"180 -360 LINE"
);
},
{
closed = 1;
nodes = (
"1034 -336 LINE",
"1034 1013 LINE",
"204 1013 LINE",
"204 -336 LINE"
);
},
{
closed = 1;
nodes = (
"344 30 LINE",
"363 30 OFFCURVE",
"402 33 OFFCURVE",
"432 46 CURVE",
"432 669 LINE",
"400 676 OFFCURVE",
"365 676 OFFCURVE",
"347 674 CURVE",
"344 704 LINE",
"501 716 OFFCURVE",
"561 721 OFFCURVE",
"630 721 CURVE SMOOTH",
"747 721 OFFCURVE",
"827 658 OFFCURVE",
"827 558 CURVE SMOOTH",
"827 490 OFFCURVE",
"785 424 OFFCURVE",
"730 398 CURVE",
"817 370 OFFCURVE",
"894 292 OFFCURVE",
"894 198 CURVE SMOOTH",
"894 105 OFFCURVE",
"817 0 OFFCURVE",
"654 0 CURVE SMOOTH",
"344 0 LINE"
);
},
{
closed = 1;
nodes = (
"536 54 OFFCURVE",
"583 43 OFFCURVE",
"632 43 CURVE SMOOTH",
"732 43 OFFCURVE",
"803 89 OFFCURVE",
"803 175 CURVE SMOOTH",
"803 249 OFFCURVE",
"757 310 OFFCURVE",
"686 334 CURVE SMOOTH",
"632 354 OFFCURVE",
"569 349 OFFCURVE",
"519 349 CURVE",
"519 69 LINE"
);
},
{
closed = 1;
nodes = (
"543 394 OFFCURVE",
"643 388 OFFCURVE",
"690 419 CURVE SMOOTH",
"722 439 OFFCURVE",
"743 483 OFFCURVE",
"743 531 CURVE SMOOTH",
"743 650 OFFCURVE",
"653 692 OFFCURVE",
"519 673 CURVE",
"519 395 LINE"
);
}
);
width = 1238;
}
);
},
{
glyphname = C.ss10;
lastChange = "2023-05-25 21:32:22 +0000";
layers = (
{
layerId = "6D97EE47-94AA-478E-ABFB-936E6C32B491";
paths = (
{
closed = 1;
nodes = (
"1253 -440 LINE",
"1253 1117 LINE",
"100 1117 LINE",
"100 -440 LINE"
);
},
{
closed = 1;
nodes = (
"180 1037 LINE",
"1173 1037 LINE",
"1173 -360 LINE",
"180 -360 LINE"
);
},
{
closed = 1;
nodes = (
"1149 -336 LINE",
"1149 1013 LINE",
"204 1013 LINE",
"204 -336 LINE"
);
},
{
closed = 1;
nodes = (
"862 -5 OFFCURVE",
"799 -14 OFFCURVE",
"742 -14 CURVE SMOOTH",
"511 -14 OFFCURVE",
"344 135 OFFCURVE",
"344 350 CURVE SMOOTH",
"344 560 OFFCURVE",
"515 722 OFFCURVE",
"725 722 CURVE SMOOTH",
"817 722 OFFCURVE",
"899 701 OFFCURVE",
"946 688 CURVE",
"966 546 LINE",
"936 540 LINE",
"900 635 OFFCURVE",
"814 673 OFFCURVE",
"719 673 CURVE SMOOTH",
"548 673 OFFCURVE",
"439 549 OFFCURVE",
"439 380 CURVE SMOOTH",
"439 197 OFFCURVE",
"578 33 OFFCURVE",
"746 33 CURVE SMOOTH",
"857 33 OFFCURVE",
"920 83 OFFCURVE",
"979 176 CURVE",
"1009 161 LINE",
"931 13 LINE"
);
}
);
width = 1353;
}
);
},
{
glyphname = D.ss10;
lastChange = "2023-05-25 21:32:22 +0000";
layers = (
{
layerId = "6D97EE47-94AA-478E-ABFB-936E6C32B491";
paths = (
{
closed = 1;
nodes = (
"1320 -440 LINE",
"1320 1117 LINE",
"100 1117 LINE",
"100 -440 LINE"
);
},
{
closed = 1;
nodes = (
"180 1037 LINE",
"1240 1037 LINE",
"1240 -360 LINE",
"180 -360 LINE"
);
},
{
closed = 1;
nodes = (
"1216 -336 LINE",
"1216 1013 LINE",
"204 1013 LINE",
"204 -336 LINE"
);
},
{
closed = 1;
nodes = (
"344 30 LINE",
"363 30 OFFCURVE",
"402 33 OFFCURVE",
"432 46 CURVE",
"432 664 LINE",
"400 671 OFFCURVE",
"365 671 OFFCURVE",
"347 669 CURVE",
"344 699 LINE",
"435 707 OFFCURVE",
"531 721 OFFCURVE",
"626 721 CURVE SMOOTH",
"884 721 OFFCURVE",
"1076 597 OFFCURVE",
"1076 364 CURVE SMOOTH",
"1076 203 OFFCURVE",
"952 62 OFFCURVE",
"789 19 CURVE SMOOTH",
"745 7 OFFCURVE",
"667 0 OFFCURVE",
"604 0 CURVE SMOOTH",
"344 0 LINE"
);
},
{
closed = 1;
nodes = (
"553 56 OFFCURVE",
"596 47 OFFCURVE",
"647 47 CURVE SMOOTH",
"842 47 OFFCURVE",
"978 157 OFFCURVE",
"978 337 CURVE SMOOTH",
"978 575 OFFCURVE",
"774 705 OFFCURVE",
"519 668 CURVE",
"519 69 LINE"
);
}
);
width = 1420;
}
);
},
{
glyphname = E.ss10;
lastChange = "2023-05-25 21:32:22 +0000";
layers = (
{
layerId = "6D97EE47-94AA-478E-ABFB-936E6C32B491";
paths = (
{
closed = 1;
nodes = (
"1111 -440 LINE",
"1111 1117 LINE",
"100 1117 LINE",
"100 -440 LINE"
);
},
{
closed = 1;
nodes = (
"180 1037 LINE",
"1031 1037 LINE",
"1031 -360 LINE",
"180 -360 LINE"
);
},
{
closed = 1;
nodes = (
"1007 -336 LINE",
"1007 1013 LINE",
"204 1013 LINE",
"204 -336 LINE"
);
},
{
closed = 1;
nodes = (
"344 30 LINE",
"363 30 OFFCURVE",
"402 33 OFFCURVE",
"432 46 CURVE",
"432 661 LINE",
"402 674 OFFCURVE",
"363 677 OFFCURVE",
"344 677 CURVE",
"344 707 LINE",
"809 707 LINE",
"814 571 LINE",
"782 569 LINE",
"780 592 OFFCURVE",
"775 626 OFFCURVE",
"762 656 CURVE",
"519 656 LINE",
"519 393 LINE",
"728 393 LINE",
"735 419 OFFCURVE",
"737 447 OFFCURVE",
"737 463 CURVE",
"769 463 LINE",
"769 263 LINE",
"737 263 LINE",
"737 280 OFFCURVE",
"735 314 OFFCURVE",
"725 342 CURVE",
"519 342 LINE",
"519 51 LINE",
"782 51 LINE",
"808 85 OFFCURVE",
"832 146 OFFCURVE",
"835 159 CURVE",
"867 151 LINE",
"834 0 LINE",
"344 0 LINE"
);
}
);
width = 1211;
}
);
},
{
glyphname = F.ss10;
lastChange = "2023-05-25 21:32:22 +0000";
layers = (
{
layerId = "6D97EE47-94AA-478E-ABFB-936E6C32B491";
paths = (
{
closed = 1;
nodes = (
"1058 -440 LINE",
"1058 1117 LINE",
"100 1117 LINE",
"100 -440 LINE"
);
},
{
closed = 1;
nodes = (
"180 1037 LINE",
"978 1037 LINE",
"978 -360 LINE",
"180 -360 LINE"
);
},
{
closed = 1;
nodes = (
"954 -336 LINE",
"954 1013 LINE",
"204 1013 LINE",
"204 -336 LINE"
);
},
{
closed = 1;
nodes = (
"344 30 LINE",
"363 30 OFFCURVE",
"402 33 OFFCURVE",
"432 46 CURVE",
"432 661 LINE",
"402 674 OFFCURVE",
"363 677 OFFCURVE",
"344 677 CURVE",
"344 707 LINE",
"809 707 LINE",
"814 571 LINE",
"782 569 LINE",
"780 592 OFFCURVE",
"775 626 OFFCURVE",
"762 656 CURVE",
"519 656 LINE",
"519 382 LINE",
"724 382 LINE",
"732 408 OFFCURVE",
"734 437 OFFCURVE",
"734 452 CURVE",
"764 452 LINE",
"764 252 LINE",
"734 252 LINE",
"734 269 OFFCURVE",
"732 303 OFFCURVE",
"722 331 CURVE",
"519 331 LINE",
"519 46 LINE",
"552 33 OFFCURVE",
"595 30 OFFCURVE",
"616 30 CURVE",
"616 0 LINE",
"344 0 LINE"
);
}
);
width = 1158;
}
);
},
{
glyphname = G.ss10;
lastChange = "2023-05-25 21:32:22 +0000";
layers = (
{
layerId = "6D97EE47-94AA-478E-ABFB-936E6C32B491";
paths = (
{
closed = 1;
nodes = (
"1297 -440 LINE",
"1297 1117 LINE",
"100 1117 LINE",
"100 -440 LINE"
);
},
{
closed = 1;
nodes = (
"180 1037 LINE",
"1217 1037 LINE",
"1217 -360 LINE",
"180 -360 LINE"
);
},
{
closed = 1;
nodes = (
"1193 -336 LINE",
"1193 1013 LINE",
"204 1013 LINE",
"204 -336 LINE"
);
},
{
closed = 1;
nodes = (
"344 563 OFFCURVE",
"515 721 OFFCURVE",
"728 721 CURVE SMOOTH",
"828 721 OFFCURVE",
"921 700 OFFCURVE",
"967 687 CURVE",
"988 545 LINE",
"958 539 LINE",
"922 634 OFFCURVE",
"825 673 OFFCURVE",
"729 673 CURVE SMOOTH",
"549 673 OFFCURVE",
"439 552 OFFCURVE",
"439 380 CURVE SMOOTH",
"439 192 OFFCURVE",
"582 31 OFFCURVE",
"757 31 CURVE SMOOTH",
"805 31 OFFCURVE",
"856 43 OFFCURVE",
"911 70 CURVE",
"911 221 LINE",
"881 234 OFFCURVE",
"841 237 OFFCURVE",
"823 237 CURVE",
"823 269 LINE",
"1053 269 LINE",
"1053 237 LINE",
"1037 237 OFFCURVE",
"1009 228 OFFCURVE",
"998 221 CURVE",
"998 76 LINE",
"1002 67 OFFCURVE",
"1014 57 OFFCURVE",
"1024 52 CURVE",
"1024 17 LINE",
"940 13 OFFCURVE",
"857 -14 OFFCURVE",
"752 -14 CURVE SMOOTH",
"514 -14 OFFCURVE",
"344 129 OFFCURVE",
"344 349 CURVE SMOOTH"
);
}
);
width = 1397;
}
);
},
{
glyphname = H.ss10;
lastChange = "2023-05-25 21:32:22 +0000";
layers = (
{
layerId = "6D97EE47-94AA-478E-ABFB-936E6C32B491";
paths = (
{
closed = 1;
nodes = (
"1338 -440 LINE",
"1338 1117 LINE",
"100 1117 LINE",
"100 -440 LINE"
);
},
{
closed = 1;
nodes = (
"180 1037 LINE",
"1258 1037 LINE",
"1258 -360 LINE",
"180 -360 LINE"
);
},
{
closed = 1;
nodes = (
"1234 -336 LINE",
"1234 1013 LINE",
"204 1013 LINE",
"204 -336 LINE"
);
},
{
closed = 1;
nodes = (
"344 30 LINE",
"363 30 OFFCURVE",
"402 33 OFFCURVE",
"432 46 CURVE",
"432 661 LINE",
"402 674 OFFCURVE",
"363 677 OFFCURVE",
"344 677 CURVE",
"344 707 LINE",
"607 707 LINE",
"607 677 LINE",
"588 677 OFFCURVE",
"549 674 OFFCURVE",
"519 661 CURVE",
"519 399 LINE",
"919 399 LINE",
"919 661 LINE",
"889 674 OFFCURVE",
"850 677 OFFCURVE",
"831 677 CURVE",
"831 707 LINE",
"1094 707 LINE",
"1094 677 LINE",
"1075 677 OFFCURVE",
"1036 674 OFFCURVE",
"1006 661 CURVE",
"1006 46 LINE",
"1036 33 OFFCURVE",
"1075 30 OFFCURVE",
"1094 30 CURVE",
"1094 0 LINE",
"831 0 LINE",
"831 30 LINE",
"850 30 OFFCURVE",
"889 33 OFFCURVE",
"919 46 CURVE",
"919 348 LINE",
"519 348 LINE",
"519 46 LINE",
"549 33 OFFCURVE",
"588 30 OFFCURVE",
"607 30 CURVE",
"607 0 LINE",
"344 0 LINE"
);
}
);
width = 1438;
}
);
},
{
glyphname = I.ss10;
lastChange = "2023-05-25 21:32:22 +0000";
layers = (
{
anchors = (
{
name = BOTTOM;
position = "{476, 0}";
},
{
name = TOP;
position = "{475, 707}";
}
);
layerId = "6D97EE47-94AA-478E-ABFB-936E6C32B491";
paths = (
{
closed = 1;
nodes = (
"851 -440 LINE",
"851 1117 LINE",
"100 1117 LINE",
"100 -440 LINE"
);
},
{
closed = 1;
nodes = (
"180 1037 LINE",
"771 1037 LINE",
"771 -360 LINE",
"180 -360 LINE"
);
},
{
closed = 1;
nodes = (
"747 -336 LINE",
"747 1013 LINE",
"204 1013 LINE",
"204 -336 LINE"
);
},
{
closed = 1;
nodes = (
"344 30 LINE",
"363 30 OFFCURVE",
"402 33 OFFCURVE",
"432 46 CURVE",
"432 661 LINE",
"402 674 OFFCURVE",
"363 677 OFFCURVE",
"344 677 CURVE",
"344 707 LINE",
"607 707 LINE",
"607 677 LINE",
"588 677 OFFCURVE",
"549 674 OFFCURVE",
"519 661 CURVE",
"519 46 LINE",
"549 33 OFFCURVE",
"588 30 OFFCURVE",
"607 30 CURVE",
"607 0 LINE",
"344 0 LINE"
);
}
);
width = 951;
}
);
},
{
glyphname = J.ss10;
lastChange = "2023-05-25 21:32:22 +0000";
layers = (
{
layerId = "6D97EE47-94AA-478E-ABFB-936E6C32B491";
paths = (
{
closed = 1;
nodes = (
"894 -440 LINE",
"894 1117 LINE",
"100 1117 LINE",
"100 -440 LINE"
);
},
{
closed = 1;
nodes = (
"344 -163 LINE",
"381 -130 OFFCURVE",
"439 -54 OFFCURVE",
"464 41 CURVE SMOOTH",
"471 67 OFFCURVE",
"474 94 OFFCURVE",
"474 120 CURVE SMOOTH",
"474 661 LINE",
"444 674 OFFCURVE",
"405 677 OFFCURVE",
"386 677 CURVE",
"386 707 LINE",
"650 707 LINE",
"650 677 LINE",
"631 677 OFFCURVE",
"592 674 OFFCURVE",
"562 661 CURVE",
"562 100 LINE",
"519 -75 OFFCURVE",
"390 -171 OFFCURVE",
"366 -186 CURVE"
);
},
{
closed = 1;
nodes = (
"180 1037 LINE",
"814 1037 LINE",
"814 -360 LINE",
"180 -360 LINE"
);
},
{
closed = 1;
nodes = (
"790 -336 LINE",
"790 1013 LINE",
"204 1013 LINE",
"204 -336 LINE"
);
}
);
width = 994;
}
);
},
{
glyphname = K.ss10;
lastChange = "2023-05-25 21:32:22 +0000";
layers = (
{
anchors = (
{
name = BOTTOM;
position = "{650, 0}";
}
);
layerId = "6D97EE47-94AA-478E-ABFB-936E6C32B491";
paths = (
{
closed = 1;
nodes = (
"1250 -440 LINE",
"1250 1117 LINE",
"100 1117 LINE",
"100 -440 LINE"
);
},
{
closed = 1;
nodes = (
"344 30 LINE",
"363 30 OFFCURVE",
"402 33 OFFCURVE",
"432 46 CURVE",
"432 661 LINE",
"402 674 OFFCURVE",
"363 677 OFFCURVE",
"344 677 CURVE",
"344 707 LINE",
"607 707 LINE",
"607 677 LINE",
"588 677 OFFCURVE",
"549 674 OFFCURVE",
"519 661 CURVE",
"519 46 LINE",
"550 33 OFFCURVE",
"591 30 OFFCURVE",
"611 30 CURVE",
"611 0 LINE",
"344 0 LINE"
);
},
{
closed = 1;
nodes = (
"180 1037 LINE",
"1170 1037 LINE",
"1170 -360 LINE",
"180 -360 LINE"
);
},
{
closed = 1;
nodes = (
"1146 -336 LINE",
"1146 1013 LINE",
"204 1013 LINE",
"204 -336 LINE"
);
},
{
closed = 1;
nodes = (
"862 -29 OFFCURVE",
"819 7 OFFCURVE",
"763 65 CURVE SMOOTH",
"712 117 OFFCURVE",
"569 331 OFFCURVE",
"537 373 CURVE",
"806 661 LINE",
"781 674 OFFCURVE",
"749 677 OFFCURVE",
"734 677 CURVE",
"734 707 LINE",
"962 707 LINE",
"962 677 LINE",
"943 677 OFFCURVE",
"905 674 OFFCURVE",
"875 661 CURVE",
"625 392 LINE",
"668 333 OFFCURVE",
"769 197 OFFCURVE",
"832 127 CURVE SMOOTH",
"885 68 OFFCURVE",
"917 27 OFFCURVE",
"1006 0 CURVE",
"999 -30 LINE"
);
}
);
width = 1350;
}
);
},
{
glyphname = L.ss10;
lastChange = "2023-05-25 21:32:22 +0000";
layers = (
{
layerId = "6D97EE47-94AA-478E-ABFB-936E6C32B491";
paths = (
{
closed = 1;
nodes = (
"1124 -440 LINE",
"1124 1117 LINE",
"100 1117 LINE",
"100 -440 LINE"
);
},
{
closed = 1;
nodes = (
"180 1037 LINE",
"1044 1037 LINE",
"1044 -360 LINE",
"180 -360 LINE"
);
},
{
closed = 1;
nodes = (
"1020 -336 LINE",
"1020 1013 LINE",
"204 1013 LINE",
"204 -336 LINE"
);
},
{
closed = 1;
nodes = (
"344 30 LINE",
"363 30 OFFCURVE",
"402 33 OFFCURVE",
"432 46 CURVE",
"432 661 LINE",
"402 674 OFFCURVE",
"363 677 OFFCURVE",
"344 677 CURVE",
"344 707 LINE",
"607 707 LINE",
"607 677 LINE",
"588 677 OFFCURVE",
"549 674 OFFCURVE",
"519 661 CURVE",
"519 51 LINE",
"787 51 LINE",
"810 77 OFFCURVE",
"841 139 OFFCURVE",
"849 158 CURVE",
"880 148 LINE",
"834 0 LINE",
"344 0 LINE"
);
}
);
width = 1224;
}
);
},
{
glyphname = M.ss10;
lastChange = "2023-05-25 21:32:22 +0000";
layers = (
{
layerId = "6D97EE47-94AA-478E-ABFB-936E6C32B491";
paths = (
{
closed = 1;
nodes = (
"1447 -440 LINE",
"1447 1117 LINE",
"100 1117 LINE",
"100 -440 LINE"
);
},
{
closed = 1;
nodes = (
"180 1037 LINE",
"1367 1037 LINE",
"1367 -360 LINE",
"180 -360 LINE"
);
},
{
closed = 1;
nodes = (
"1343 -336 LINE",
"1343 1013 LINE",
"204 1013 LINE",
"204 -336 LINE"
);
},
{
closed = 1;
nodes = (
"342 30 LINE",
"361 30 OFFCURVE",
"400 33 OFFCURVE",
"430 46 CURVE",
"457 661 LINE",
"427 674 OFFCURVE",
"388 677 OFFCURVE",
"369 677 CURVE",
"369 707 LINE",
"547 707 LINE",
"782 133 LINE",
"750 134 LINE",
"1031 707 LINE",
"1178 707 LINE",
"1178 677 LINE",
"1159 677 OFFCURVE",
"1121 674 OFFCURVE",
"1091 661 CURVE",
"1115 46 LINE",
"1145 33 OFFCURVE",
"1184 30 OFFCURVE",
"1203 30 CURVE",
"1203 0 LINE",
"939 0 LINE",
"939 30 LINE",
"958 30 OFFCURVE",
"997 33 OFFCURVE",
"1027 46 CURVE",
"1008 544 LINE",
"741 0 LINE",
"509 568 LINE",
"486 46 LINE",
"516 33 OFFCURVE",
"555 30 OFFCURVE",
"574 30 CURVE",
"574 0 LINE",
"342 0 LINE"
);
}
);
width = 1547;
}
);
},
{
glyphname = N.ss10;
lastChange = "2023-05-25 21:32:22 +0000";
layers = (
{
layerId = "6D97EE47-94AA-478E-ABFB-936E6C32B491";
paths = (
{
closed = 1;
nodes = (
"1314 -440 LINE",
"1314 1117 LINE",
"100 1117 LINE",
"100 -440 LINE"
);
},
{
closed = 1;
nodes = (
"180 1037 LINE",
"1234 1037 LINE",
"1234 -360 LINE",
"180 -360 LINE"
);
},
{
closed = 1;
nodes = (
"1210 -336 LINE",
"1210 1013 LINE",
"204 1013 LINE",
"204 -336 LINE"
);
},
{
closed = 1;
nodes = (
"488 582 LINE",
"488 46 LINE",
"518 33 OFFCURVE",
"557 30 OFFCURVE",
"576 30 CURVE",
"576 0 LINE",
"344 0 LINE",
"344 30 LINE",
"363 30 OFFCURVE",
"402 33 OFFCURVE",
"432 46 CURVE",
"432 661 LINE",
"402 674 OFFCURVE",
"363 677 OFFCURVE",
"344 677 CURVE",
"344 707 LINE",
"503 707 LINE",
"926 147 LINE",
"926 661 LINE",
"896 674 OFFCURVE",
"857 677 OFFCURVE",
"838 677 CURVE",
"838 707 LINE",
"1070 707 LINE",
"1070 677 LINE",
"1051 677 OFFCURVE",
"1012 674 OFFCURVE",
"982 661 CURVE",
"982 -14 LINE",
"937 -14 LINE"
);
}
);
width = 1414;
}
);
},
{
glyphname = O.ss10;
lastChange = "2023-05-25 21:32:22 +0000";
layers = (
{
layerId = "6D97EE47-94AA-478E-ABFB-936E6C32B491";
paths = (
{
closed = 1;
nodes = (
"1332 -440 LINE",
"1332 1117 LINE",
"100 1117 LINE",
"100 -440 LINE"
);
},
{
closed = 1;
nodes = (
"180 1037 LINE",
"1252 1037 LINE",
"1252 -360 LINE",
"180 -360 LINE"
);
},
{
closed = 1;
nodes = (
"1228 -336 LINE",
"1228 1013 LINE",
"204 1013 LINE",
"204 -336 LINE"
);
},
{
closed = 1;
nodes = (
"509 -14 OFFCURVE",
"344 146 OFFCURVE",
"344 348 CURVE SMOOTH",
"344 553 OFFCURVE",
"512 721 OFFCURVE",
"718 721 CURVE SMOOTH",
"921 721 OFFCURVE",
"1088 562 OFFCURVE",
"1088 360 CURVE SMOOTH",
"1088 155 OFFCURVE",
"919 -14 OFFCURVE",
"713 -14 CURVE SMOOTH"
);
},
{
closed = 1;
nodes = (
"890 41 OFFCURVE",
"996 165 OFFCURVE",
"996 319 CURVE SMOOTH",
"996 496 OFFCURVE",
"860 667 OFFCURVE",
"689 667 CURVE SMOOTH",
"542 667 OFFCURVE",
"435 544 OFFCURVE",
"435 390 CURVE SMOOTH",
"435 215 OFFCURVE",
"570 41 OFFCURVE",
"743 41 CURVE SMOOTH"
);
}
);
width = 1432;
}
);
},
{
glyphname = P.ss10;
lastChange = "2023-05-25 21:32:22 +0000";
layers = (
{
layerId = "6D97EE47-94AA-478E-ABFB-936E6C32B491";
paths = (
{
closed = 1;
nodes = (
"1118 -440 LINE",
"1118 1117 LINE",
"100 1117 LINE",
"100 -440 LINE"
);
},
{
closed = 1;
nodes = (
"180 1037 LINE",
"1038 1037 LINE",
"1038 -360 LINE",
"180 -360 LINE"
);
},
{
closed = 1;
nodes = (
"1014 -336 LINE",
"1014 1013 LINE",
"204 1013 LINE",
"204 -336 LINE"
);
},
{
closed = 1;
nodes = (
"344 30 LINE",
"363 30 OFFCURVE",
"402 33 OFFCURVE",
"432 46 CURVE",
"432 667 LINE",
"404 673 OFFCURVE",
"363 675 OFFCURVE",
"348 672 CURVE",
"345 702 LINE",
"472 712 OFFCURVE",
"530 721 OFFCURVE",
"605 721 CURVE SMOOTH",
"767 721 OFFCURVE",
"874 605 OFFCURVE",
"874 491 CURVE SMOOTH",
"874 375 OFFCURVE",
"768 261 OFFCURVE",
"581 268 CURVE",
"576 300 LINE",
"717 309 OFFCURVE",
"781 381 OFFCURVE",
"781 470 CURVE SMOOTH",
"781 607 OFFCURVE",
"653 692 OFFCURVE",
"519 671 CURVE",
"519 46 LINE",
"552 33 OFFCURVE",
"595 30 OFFCURVE",
"616 30 CURVE",
"616 0 LINE",
"344 0 LINE"
);
}
);
width = 1218;
}
);
},
{
glyphname = Q.ss10;
lastChange = "2023-05-25 21:32:22 +0000";
layers = (
{
layerId = "6D97EE47-94AA-478E-ABFB-936E6C32B491";
paths = (
{
closed = 1;
nodes = (
"1391 -440 LINE",
"1391 1117 LINE",
"100 1117 LINE",
"100 -440 LINE"
);
},
{
closed = 1;
nodes = (
"979 -190 OFFCURVE",
"855 -136 OFFCURVE",
"739 -13 CURVE",
"730 -14 OFFCURVE",
"722 -14 OFFCURVE",
"713 -14 CURVE SMOOTH",
"507 -14 OFFCURVE",
"344 149 OFFCURVE",
"344 348 CURVE SMOOTH",
"344 553 OFFCURVE",
"513 721 OFFCURVE",
"718 721 CURVE SMOOTH",
"921 721 OFFCURVE",
"1089 561 OFFCURVE",
"1089 359 CURVE SMOOTH",
"1089 197 OFFCURVE",
"983 58 OFFCURVE",
"837 7 CURVE",
"925 -90 OFFCURVE",
"1037 -158 OFFCURVE",
"1147 -168 CURVE",
"1144 -200 LINE"
);
},
{
closed = 1;
nodes = (
"891 41 OFFCURVE",
"996 165 OFFCURVE",
"996 319 CURVE SMOOTH",
"996 496 OFFCURVE",
"860 667 OFFCURVE",
"689 667 CURVE SMOOTH",
"541 667 OFFCURVE",
"435 543 OFFCURVE",
"435 390 CURVE SMOOTH",
"435 216 OFFCURVE",
"570 41 OFFCURVE",
"743 41 CURVE SMOOTH"
);
},
{
closed = 1;
nodes = (
"180 1037 LINE",
"1311 1037 LINE",
"1311 -360 LINE",
"180 -360 LINE"
);
},
{
closed = 1;
nodes = (
"1287 -336 LINE",
"1287 1013 LINE",
"204 1013 LINE",
"204 -336 LINE"
);
}
);
width = 1491;
}
);
},
{
glyphname = R.ss10;
lastChange = "2023-05-25 21:32:22 +0000";
layers = (
{
layerId = "6D97EE47-94AA-478E-ABFB-936E6C32B491";
paths = (
{
closed = 1;
nodes = (
"1251 -440 LINE",
"1251 1117 LINE",
"100 1117 LINE",
"100 -440 LINE"
);
},
{
closed = 1;
nodes = (
"180 1037 LINE",
"1171 1037 LINE",
"1171 -360 LINE",
"180 -360 LINE"
);
},
{
closed = 1;
nodes = (
"1147 -336 LINE",
"1147 1013 LINE",
"204 1013 LINE",
"204 -336 LINE"
);
},
{
closed = 1;
nodes = (
"344 30 LINE",
"363 30 OFFCURVE",
"402 33 OFFCURVE",
"432 46 CURVE",
"432 669 LINE",
"400 676 OFFCURVE",
"365 676 OFFCURVE",
"347 674 CURVE",
"344 704 LINE",
"440 712 OFFCURVE",
"524 721 OFFCURVE",
"599 721 CURVE SMOOTH",
"733 721 OFFCURVE",
"838 680 OFFCURVE",
"838 548 CURVE SMOOTH",
"838 482 OFFCURVE",
"798 402 OFFCURVE",
"685 354 CURVE",
"721 289 OFFCURVE",
"782 195 OFFCURVE",
"835 128 CURVE SMOOTH",
"884 65 OFFCURVE",
"920 33 OFFCURVE",
"1007 0 CURVE",
"998 -29 LINE",
"860 -20 OFFCURVE",
"813 12 OFFCURVE",
"760 73 CURVE SMOOTH",
"718 122 OFFCURVE",
"641 265 OFFCURVE",
"603 330 CURVE",
"578 324 OFFCURVE",
"550 320 OFFCURVE",
"519 317 CURVE",
"519 46 LINE",
"550 33 OFFCURVE",
"591 30 OFFCURVE",
"611 30 CURVE",
"611 0 LINE",
"344 0 LINE"
);
},
{
closed = 1;
nodes = (
"672 359 OFFCURVE",
"751 444 OFFCURVE",
"751 524 CURVE SMOOTH",
"751 642 OFFCURVE",
"652 694 OFFCURVE",
"519 677 CURVE",
"519 353 LINE"
);
}
);
width = 1351;
}
);
},
{
glyphname = S.ss10;
lastChange = "2023-05-25 21:32:22 +0000";
layers = (
{
layerId = "6D97EE47-94AA-478E-ABFB-936E6C32B491";
paths = (
{
closed = 1;
nodes = (
"1045 -440 LINE",
"1045 1117 LINE",
"100 1117 LINE",
"100 -440 LINE"
);
},
{
closed = 1;
nodes = (
"180 1037 LINE",
"965 1037 LINE",
"965 -360 LINE",
"180 -360 LINE"
);
},
{
closed = 1;
nodes = (
"941 -336 LINE",
"941 1013 LINE",
"204 1013 LINE",
"204 -336 LINE"
);
},
{
closed = 1;
nodes = (
"476 -14 OFFCURVE",
"381 15 OFFCURVE",
"375 23 CURVE",
"344 215 LINE",
"377 221 LINE",
"403 106 OFFCURVE",
"452 33 OFFCURVE",
"560 33 CURVE SMOOTH",
"648 33 OFFCURVE",
"710 79 OFFCURVE",
"710 155 CURVE SMOOTH",
"710 316 OFFCURVE",
"389 334 OFFCURVE",
"389 537 CURVE SMOOTH",
"389 660 OFFCURVE",
"495 721 OFFCURVE",
"626 721 CURVE SMOOTH",
"687 721 OFFCURVE",
"739 707 OFFCURVE",
"765 702 CURVE",
"787 540 LINE",
"754 536 LINE",
"743 620 OFFCURVE",
"703 675 OFFCURVE",
"619 675 CURVE SMOOTH",
"542 675 OFFCURVE",
"477 626 OFFCURVE",
"477 560 CURVE SMOOTH",
"477 402 OFFCURVE",
"801 400 OFFCURVE",
"801 168 CURVE SMOOTH",
"801 50 OFFCURVE",
"699 -14 OFFCURVE",
"570 -14 CURVE SMOOTH"
);
}
);
width = 1145;
}
);
},
{
glyphname = T.ss10;
lastChange = "2023-05-25 21:32:22 +0000";
layers = (
{
layerId = "6D97EE47-94AA-478E-ABFB-936E6C32B491";
paths = (
{
closed = 1;
nodes = (
"1206 -440 LINE",
"1206 1117 LINE",
"100 1117 LINE",
"100 -440 LINE"
);
},
{
closed = 1;
nodes = (
"180 1037 LINE",
"1126 1037 LINE",
"1126 -360 LINE",
"180 -360 LINE"
);
},
{
closed = 1;
nodes = (
"1102 -336 LINE",
"1102 1013 LINE",
"204 1013 LINE",
"204 -336 LINE"
);
},
{
closed = 1;
nodes = (
"521 30 LINE",
"540 30 OFFCURVE",
"579 33 OFFCURVE",
"609 46 CURVE",
"609 656 LINE",
"400 656 LINE",
"388 612 OFFCURVE",
"382 571 OFFCURVE",
"376 531 CURVE",
"344 531 LINE",
"344 707 LINE",
"962 707 LINE",
"936 528 LINE",
"905 531 LINE",
"906 570 OFFCURVE",
"907 610 OFFCURVE",
"901 656 CURVE",
"696 656 LINE",
"696 46 LINE",
"727 33 OFFCURVE",
"766 30 OFFCURVE",
"785 30 CURVE",
"785 0 LINE",
"521 0 LINE"
);
}
);
width = 1306;
}
);
},
{
glyphname = U.ss10;
lastChange = "2023-05-25 21:32:22 +0000";
layers = (
{
anchors = (
{
name = BOTTOM;
position = "{731, 0}";
},
{
name = TOP;
position = "{730, 707}";
}
);
layerId = "6D97EE47-94AA-478E-ABFB-936E6C32B491";
paths = (
{
closed = 1;
nodes = (
"1332 -440 LINE",
"1332 1117 LINE",
"100 1117 LINE",
"100 -440 LINE"
);
},
{
closed = 1;
nodes = (
"634 -14 OFFCURVE",
"507 18 OFFCURVE",
"457 134 CURVE SMOOTH",
"433 192 OFFCURVE",
"432 281 OFFCURVE",
"432 384 CURVE SMOOTH",
"432 661 LINE",
"402 674 OFFCURVE",
"363 677 OFFCURVE",
"344 677 CURVE",
"344 707 LINE",
"607 707 LINE",
"607 677 LINE",
"588 677 OFFCURVE",
"549 674 OFFCURVE",
"519 661 CURVE",
"519 389 LINE SMOOTH",
"519 338 OFFCURVE",
"517 220 OFFCURVE",
"534 166 CURVE SMOOTH",
"557 97 OFFCURVE",
"629 38 OFFCURVE",
"727 38 CURVE SMOOTH",
"822 38 OFFCURVE",
"905 76 OFFCURVE",
"931 162 CURVE SMOOTH",
"947 218 OFFCURVE",
"944 305 OFFCURVE",
"944 400 CURVE SMOOTH",
"944 661 LINE",
"914 674 OFFCURVE",
"875 677 OFFCURVE",
"856 677 CURVE",
"856 707 LINE",
"1088 707 LINE",
"1088 677 LINE",
"1069 677 OFFCURVE",
"1030 674 OFFCURVE",
"1000 661 CURVE",
"1000 393 LINE SMOOTH",
"1000 306 OFFCURVE",
"1002 199 OFFCURVE",
"982 139 CURVE SMOOTH",
"941 15 OFFCURVE",
"800 -14 OFFCURVE",
"717 -14 CURVE SMOOTH"
);
},
{
closed = 1;
nodes = (
"180 1037 LINE",
"1252 1037 LINE",
"1252 -360 LINE",
"180 -360 LINE"
);
},
{
closed = 1;
nodes = (
"1228 -336 LINE",
"1228 1013 LINE",
"204 1013 LINE",
"204 -336 LINE"
);
}
);
width = 1432;
}
);
},
{
glyphname = V.ss10;
lastChange = "2023-05-25 21:32:22 +0000";
layers = (
{
layerId = "6D97EE47-94AA-478E-ABFB-936E6C32B491";
paths = (
{
closed = 1;
nodes = (
"1306 -440 LINE",
"1306 1117 LINE",
"100 1117 LINE",
"100 -440 LINE"
);
},
{
closed = 1;
nodes = (
"180 1037 LINE",
"1226 1037 LINE",
"1226 -360 LINE",
"180 -360 LINE"
);
},
{
closed = 1;
nodes = (
"1202 -336 LINE",
"1202 1013 LINE",
"204 1013 LINE",
"204 -336 LINE"
);
},
{
closed = 1;
nodes = (
"423 661 LINE",
"396 674 OFFCURVE",
"361 677 OFFCURVE",
"344 677 CURVE",
"344 707 LINE",
"605 707 LINE",
"605 677 LINE",
"586 677 OFFCURVE",
"547 674 OFFCURVE",
"517 661 CURVE",
"717 124 LINE",
"937 661 LINE",
"907 674 OFFCURVE",
"868 677 OFFCURVE",
"849 677 CURVE",
"849 707 LINE",
"1062 707 LINE",
"1062 677 LINE",
"1047 677 OFFCURVE",
"1016 674 OFFCURVE",
"992 661 CURVE",
"716 -14 LINE",
"675 -14 LINE"
);
}
);
width = 1406;
}
);
},
{
glyphname = W.ss10;
lastChange = "2023-05-25 21:32:22 +0000";
layers = (
{
layerId = "6D97EE47-94AA-478E-ABFB-936E6C32B491";
paths = (
{
closed = 1;
nodes = (
"1557 -440 LINE",
"1557 1117 LINE",
"100 1117 LINE",
"100 -440 LINE"
);
},
{
closed = 1;
nodes = (
"180 1037 LINE",
"1477 1037 LINE",
"1477 -360 LINE",
"180 -360 LINE"
);
},
{
closed = 1;
nodes = (
"1453 -336 LINE",
"1453 1013 LINE",
"204 1013 LINE",
"204 -336 LINE"
);
},
{
closed = 1;
nodes = (
"420 661 LINE",
"394 674 OFFCURVE",
"360 677 OFFCURVE",
"344 677 CURVE",
"344 707 LINE",
"598 707 LINE",
"598 677 LINE",
"579 677 OFFCURVE",
"540 674 OFFCURVE",
"511 661 CURVE",
"645 143 LINE",
"839 619 LINE",
"880 619 LINE",
"1064 152 LINE",
"1188 661 LINE",
"1159 674 OFFCURVE",
"1120 677 OFFCURVE",
"1101 677 CURVE",
"1101 707 LINE",
"1313 707 LINE",
"1313 677 LINE",
"1298 677 OFFCURVE",
"1266 674 OFFCURVE",
"1241 661 CURVE",
"1075 -14 LINE",
"1034 -14 LINE",
"839 484 LINE",
"636 -14 LINE",
"595 -14 LINE"
);
}
);
width = 1657;
}
);
},
{
glyphname = X.ss10;
lastChange = "2023-05-25 21:32:22 +0000";
layers = (
{
layerId = "6D97EE47-94AA-478E-ABFB-936E6C32B491";
paths = (
{
closed = 1;
nodes = (
"1255 -440 LINE",
"1255 1117 LINE",
"100 1117 LINE",
"100 -440 LINE"
);
},
{
closed = 1;
nodes = (
"180 1037 LINE",
"1175 1037 LINE",
"1175 -360 LINE",
"180 -360 LINE"
);
},
{
closed = 1;
nodes = (
"1151 -336 LINE",
"1151 1013 LINE",
"204 1013 LINE",
"204 -336 LINE"
);
},
{
closed = 1;
nodes = (
"344 30 LINE",
"359 30 OFFCURVE",
"391 33 OFFCURVE",
"416 46 CURVE",
"629 352 LINE",
"428 662 LINE",
"402 674 OFFCURVE",
"368 677 OFFCURVE",
"352 677 CURVE",
"352 707 LINE",
"622 707 LINE",
"622 677 LINE",
"603 677 OFFCURVE",
"564 674 OFFCURVE",
"534 661 CURVE",
"688 424 LINE",
"855 661 LINE",
"825 674 OFFCURVE",
"786 677 OFFCURVE",
"767 677 CURVE",
"767 707 LINE",
"989 707 LINE",
"989 677 LINE",
"974 677 OFFCURVE",
"942 674 OFFCURVE",
"918 661 CURVE",
"719 377 LINE",
"934 46 LINE",
"960 33 OFFCURVE",
"994 30 OFFCURVE",
"1011 30 CURVE",
"1011 0 LINE",
"741 0 LINE",
"741 30 LINE",
"760 30 OFFCURVE",
"798 33 OFFCURVE",
"828 46 CURVE",
"660 305 LINE",
"479 46 LINE",
"509 33 OFFCURVE",
"548 30 OFFCURVE",
"567 30 CURVE",
"567 0 LINE",
"344 0 LINE"
);
}
);
width = 1355;
}
);
},
{
glyphname = Y.ss10;
lastChange = "2023-05-25 21:32:22 +0000";
layers = (
{
layerId = "6D97EE47-94AA-478E-ABFB-936E6C32B491";
paths = (
{
closed = 1;
nodes = (
"1232 -440 LINE",
"1232 1117 LINE",
"100 1117 LINE",
"100 -440 LINE"
);
},
{
closed = 1;
nodes = (
"180 1037 LINE",
"1152 1037 LINE",
"1152 -360 LINE",
"180 -360 LINE"
);
},
{
closed = 1;
nodes = (
"1128 -336 LINE",
"1128 1013 LINE",
"204 1013 LINE",
"204 -336 LINE"
);
},
{
closed = 1;
nodes = (
"542 30 LINE",
"561 30 OFFCURVE",
"600 33 OFFCURVE",
"630 46 CURVE",
"630 282 LINE",
"420 661 LINE",
"394 674 OFFCURVE",
"360 677 OFFCURVE",
"344 677 CURVE",
"344 707 LINE",
"608 707 LINE",
"608 677 LINE",
"589 677 OFFCURVE",
"551 674 OFFCURVE",
"521 661 CURVE",
"689 357 LINE",
"859 661 LINE",
"829 674 OFFCURVE",
"790 677 OFFCURVE",
"771 677 CURVE",
"771 707 LINE",
"988 707 LINE",
"988 677 LINE",
"973 677 OFFCURVE",
"942 674 OFFCURVE",
"917 662 CURVE",
"718 303 LINE",
"718 46 LINE",
"748 33 OFFCURVE",
"787 30 OFFCURVE",
"806 30 CURVE",
"806 0 LINE",
"542 0 LINE"
);
}
);
width = 1332;
}
);
},
{
glyphname = Z.ss10;
lastChange = "2023-05-25 21:32:22 +0000";
layers = (
{
layerId = "6D97EE47-94AA-478E-ABFB-936E6C32B491";
paths = (
{
closed = 1;
nodes = (
"1158 -440 LINE",
"1158 1117 LINE",
"100 1117 LINE",
"100 -440 LINE"
);
},
{
closed = 1;
nodes = (
"180 1037 LINE",
"1078 1037 LINE",
"1078 -360 LINE",
"180 -360 LINE"
);
},
{
closed = 1;
nodes = (
"1054 -336 LINE",
"1054 1013 LINE",
"204 1013 LINE",
"204 -336 LINE"
);
},
{
closed = 1;
nodes = (
"344 38 LINE",
"759 656 LINE",
"413 656 LINE",
"401 613 OFFCURVE",
"395 574 OFFCURVE",
"387 534 CURVE",
"355 536 LINE",
"362 707 LINE",
"857 707 LINE",
"874 669 LINE",
"458 51 LINE",
"819 51 LINE",
"850 90 OFFCURVE",
"879 161 OFFCURVE",
"883 175 CURVE",
"914 167 LINE",
"875 0 LINE",
"359 0 LINE"
);
}
);
width = 1258;
}
);
},
{
glyphname = a;
lastChange = "2023-05-25 21:32:22 +0000";
layers = (
{
anchors = (
{
name = BOTTOM;
position = "{222, 0}";
},
{
name = TOP;
position = "{211, 456}";
}
);
background = {
paths = (
{
closed = 1;
nodes = (
"1391 -9 OFFCURVE",
"1431 19 OFFCURVE",
"1474 44 CURVE",
"1479 14 OFFCURVE",
"1501 -9 OFFCURVE",
"1533 -9 CURVE SMOOTH",
"1570 -9 OFFCURVE",
"1597 4 OFFCURVE",
"1621 21 CURVE",
"1609 47 LINE",
"1594 42 OFFCURVE",
"1576 38 OFFCURVE",
"1562 47 CURVE SMOOTH",
"1548 57 OFFCURVE",
"1549 73 OFFCURVE",
"1549 106 CURVE SMOOTH",
"1549 132 OFFCURVE",
"1549 319 OFFCURVE",
"1549 362 CURVE SMOOTH",
"1549 417 OFFCURVE",
"1524 446 OFFCURVE",
"1471 459 CURVE SMOOTH",
"1418 472 OFFCURVE",
"1352 453 OFFCURVE",
"1321 432 CURVE SMOOTH",
"1262 392 OFFCURVE",
"1249 322 OFFCURVE",
"1255 298 CURVE",
"1335 330 LINE",
"1331 356 OFFCURVE",
"1337 377 OFFCURVE",
"1352 394 CURVE SMOOTH",
"1359 402 OFFCURVE",
"1372 412 OFFCURVE",
"1386 416 CURVE SMOOTH",
"1407 421 OFFCURVE",
"1433 419 OFFCURVE",
"1448 406 CURVE SMOOTH",
"1468 390 OFFCURVE",
"1470 377 OFFCURVE",
"1470 329 CURVE SMOOTH",
"1470 305 OFFCURVE",
"1470 268 OFFCURVE",
"1470 261 CURVE",
"1415 242 OFFCURVE",
"1269 190 OFFCURVE",
"1246 178 CURVE",
"1231 149 OFFCURVE",
"1228 96 OFFCURVE",
"1239 65 CURVE SMOOTH",
"1253 26 OFFCURVE",
"1292 -9 OFFCURVE",
"1352 -9 CURVE SMOOTH"
);
},
{
closed = 1;
nodes = (
"1307 87 OFFCURVE",
"1308 141 OFFCURVE",
"1314 152 CURVE SMOOTH",
"1319 161 OFFCURVE",
"1409 196 OFFCURVE",
"1470 217 CURVE",
"1470 187 OFFCURVE",
"1470 117 OFFCURVE",
"1470 79 CURVE",
"1402 46 OFFCURVE",
"1365 49 OFFCURVE",
"1343 64 CURVE SMOOTH"
);
},
{
closed = 1;
nodes = (
"797 -8 OFFCURVE",
"831 20 OFFCURVE",
"874 45 CURVE",
"879 15 OFFCURVE",
"901 -8 OFFCURVE",
"933 -8 CURVE SMOOTH",
"970 -8 OFFCURVE",
"997 5 OFFCURVE",
"1021 22 CURVE",
"1009 48 LINE",
"1000 45 OFFCURVE",
"991 43 OFFCURVE",
"982 43 CURVE SMOOTH",
"975 43 OFFCURVE",
"968 44 OFFCURVE",
"962 48 CURVE SMOOTH",
"948 58 OFFCURVE",
"949 74 OFFCURVE",
"949 107 CURVE SMOOTH",
"949 363 LINE SMOOTH",
"949 432 OFFCURVE",
"902 464 OFFCURVE",
"833 464 CURVE SMOOTH",
"736 464 OFFCURVE",
"652 405 OFFCURVE",
"655 299 CURVE",
"735 331 LINE",
"727 381 OFFCURVE",
"760 420 OFFCURVE",
"808 420 CURVE SMOOTH",
"834 420 OFFCURVE",
"852 407 OFFCURVE",
"860 394 CURVE SMOOTH",
"869 379 OFFCURVE",
"870 365 OFFCURVE",
"870 339 CURVE SMOOTH",
"870 262 LINE",
"815 243 OFFCURVE",
"669 191 OFFCURVE",
"646 179 CURVE",
"637 162 OFFCURVE",
"632 136 OFFCURVE",
"632 111 CURVE SMOOTH",
"632 40 OFFCURVE",
"682 -8 OFFCURVE",
"752 -8 CURVE SMOOTH"
);
},
{
closed = 1;
nodes = (
"730 54 OFFCURVE",
"700 97 OFFCURVE",
"714 156 CURVE",
"730 165 OFFCURVE",
"809 197 OFFCURVE",
"870 218 CURVE",
"870 80 LINE",
"832 61 OFFCURVE",
"803 54 OFFCURVE",
"782 54 CURVE SMOOTH"
);
},
{
closed = 1;
nodes = (
"197 -8 OFFCURVE",
"231 20 OFFCURVE",
"274 45 CURVE",
"279 15 OFFCURVE",
"301 -8 OFFCURVE",
"337 -8 CURVE SMOOTH",
"370 -8 OFFCURVE",
"397 5 OFFCURVE",
"421 22 CURVE",
"409 48 LINE",
"400 45 OFFCURVE",
"391 43 OFFCURVE",
"382 43 CURVE SMOOTH",
"375 43 OFFCURVE",
"368 44 OFFCURVE",
"362 48 CURVE SMOOTH",
"348 58 OFFCURVE",
"349 74 OFFCURVE",
"349 107 CURVE SMOOTH",
"349 363 LINE SMOOTH",
"349 432 OFFCURVE",
"302 464 OFFCURVE",
"233 464 CURVE SMOOTH",
"136 464 OFFCURVE",
"52 405 OFFCURVE",
"55 299 CURVE",
"135 331 LINE",
"127 381 OFFCURVE",
"160 420 OFFCURVE",
"208 420 CURVE SMOOTH",
"234 420 OFFCURVE",
"252 407 OFFCURVE",
"260 394 CURVE SMOOTH",
"269 379 OFFCURVE",
"270 365 OFFCURVE",
"270 339 CURVE SMOOTH",
"270 262 LINE",
"215 243 OFFCURVE",
"69 191 OFFCURVE",
"46 179 CURVE",
"37 162 OFFCURVE",
"32 136 OFFCURVE",
"32 111 CURVE SMOOTH",
"32 40 OFFCURVE",
"82 -8 OFFCURVE",
"152 -8 CURVE SMOOTH"
);
},
{
closed = 1;
nodes = (
"130 54 OFFCURVE",
"100 97 OFFCURVE",
"114 156 CURVE",
"130 165 OFFCURVE",
"209 197 OFFCURVE",
"270 218 CURVE",
"270 80 LINE",
"232 61 OFFCURVE",
"203 54 OFFCURVE",
"182 54 CURVE SMOOTH"
);
}
);
};
layerId = "6D97EE47-94AA-478E-ABFB-936E6C32B491";
paths = (
{
closed = 1;
nodes = (
"197 -8 OFFCURVE",
"231 20 OFFCURVE",
"274 45 CURVE",
"279 15 OFFCURVE",
"301 -8 OFFCURVE",
"337 -8 CURVE SMOOTH",
"370 -8 OFFCURVE",
"397 5 OFFCURVE",
"421 22 CURVE",
"409 48 LINE",
"397 44 OFFCURVE",
"375 39 OFFCURVE",
"362 48 CURVE SMOOTH",
"348 58 OFFCURVE",
"349 69 OFFCURVE",
"349 107 CURVE SMOOTH",
"349 363 LINE SMOOTH",
"349 432 OFFCURVE",
"302 464 OFFCURVE",
"233 464 CURVE SMOOTH",
"136 464 OFFCURVE",
"52 405 OFFCURVE",
"55 299 CURVE",
"135 331 LINE",
"127 381 OFFCURVE",
"160 420 OFFCURVE",
"208 420 CURVE SMOOTH",
"234 420 OFFCURVE",
"252 407 OFFCURVE",
"260 394 CURVE SMOOTH",
"269 379 OFFCURVE",
"270 365 OFFCURVE",
"270 339 CURVE SMOOTH",
"270 262 LINE",
"215 243 OFFCURVE",
"69 191 OFFCURVE",
"46 179 CURVE",
"37 162 OFFCURVE",
"32 136 OFFCURVE",
"32 111 CURVE SMOOTH",
"32 40 OFFCURVE",
"82 -8 OFFCURVE",
"152 -8 CURVE SMOOTH"
);
},
{
closed = 1;
nodes = (
"130 54 OFFCURVE",
"100 97 OFFCURVE",
"114 156 CURVE",
"130 165 OFFCURVE",
"209 197 OFFCURVE",
"270 218 CURVE",
"270 80 LINE",
"232 61 OFFCURVE",
"203 54 OFFCURVE",
"182 54 CURVE SMOOTH"
);
}
);
width = 443;
}
);
leftKerningGroup = a;
rightKerningGroup = a;
rightMetricsKey = "=n";
unicode = 0061;
},
{
glyphname = ae;
lastChange = "2023-05-25 21:32:22 +0000";
layers = (
{
background = {
paths = (
{
closed = 1;
nodes = (
"490 -45 OFFCURVE",
"596 30 OFFCURVE",
"637 90 CURVE",
"616 108 LINE",
"576 72 OFFCURVE",
"503 42 OFFCURVE",
"428 89 CURVE SMOOTH",
"326 153 OFFCURVE",
"311 344 OFFCURVE",
"416 400 CURVE SMOOTH",
"484 436 OFFCURVE",
"549 401 OFFCURVE",
"549 342 CURVE",
"334 268 LINE",
"334 224 LINE",
"638 317 LINE",
"646 394 OFFCURVE",
"574 463 OFFCURVE",
"488 464 CURVE SMOOTH",
"441 464 OFFCURVE",
"388 444 OFFCURVE",
"348 406 CURVE SMOOTH",
"329 388 OFFCURVE",
"312 365 OFFCURVE",
"298 338 CURVE",
"304 303 LINE",
"296 258 LINE",
"270 221 LINE",
"268 144 OFFCURVE",
"298 54 OFFCURVE",
"382 11 CURVE SMOOTH"
);
},
{
closed = 1;
nodes = (
"109 88 OFFCURVE",
"110 131 OFFCURVE",
"116 142 CURVE SMOOTH",
"122 151 OFFCURVE",
"213 187 OFFCURVE",
"273 207 CURVE",
"273 177 OFFCURVE",
"302 133 OFFCURVE",
"302 96 CURVE",
"225 57 OFFCURVE",
"179 43 OFFCURVE",
"145 65 CURVE SMOOTH"
);
},
{
closed = 1;
nodes = (
"200 -9 OFFCURVE",
"283 38 OFFCURVE",
"326 64 CURVE",
"321 128 LINE",
"321 287 LINE",
"348 362 LINE",
"348 417 OFFCURVE",
"323 446 OFFCURVE",
"269 459 CURVE SMOOTH",
"217 472 OFFCURVE",
"151 453 OFFCURVE",
"120 432 CURVE SMOOTH",
"61 392 OFFCURVE",
"48 322 OFFCURVE",
"54 298 CURVE",
"134 330 LINE",
"129 356 OFFCURVE",
"136 377 OFFCURVE",
"151 394 CURVE SMOOTH",
"158 402 OFFCURVE",
"171 412 OFFCURVE",
"184 416 CURVE SMOOTH",
"206 421 OFFCURVE",
"232 419 OFFCURVE",
"247 406 CURVE SMOOTH",
"267 390 OFFCURVE",
"268 377 OFFCURVE",
"268 329 CURVE SMOOTH",
"268 305 OFFCURVE",
"268 257 OFFCURVE",
"268 250 CURVE",
"213 231 OFFCURVE",
"68 179 OFFCURVE",
"44 167 CURVE",
"31 153 OFFCURVE",
"29 92 OFFCURVE",
"38 65 CURVE SMOOTH",
"49 26 OFFCURVE",
"91 -9 OFFCURVE",
"151 -9 CURVE SMOOTH"
);
},
{
closed = 1;
nodes = (
"299 1017 LINE",
"349 1163 LINE",
"349 1232 OFFCURVE",
"302 1264 OFFCURVE",
"233 1264 CURVE SMOOTH",
"136 1264 OFFCURVE",
"52 1205 OFFCURVE",
"55 1099 CURVE",
"135 1131 LINE",
"127 1181 OFFCURVE",
"160 1220 OFFCURVE",
"208 1220 CURVE SMOOTH",
"234 1220 OFFCURVE",
"252 1207 OFFCURVE",
"260 1194 CURVE SMOOTH",
"269 1179 OFFCURVE",
"270 1165 OFFCURVE",
"270 1139 CURVE SMOOTH",
"270 1061 LINE",
"215 1042 OFFCURVE",
"69 990 OFFCURVE",
"46 978 CURVE",
"37 961 OFFCURVE",
"32 935 OFFCURVE",
"32 910 CURVE SMOOTH",
"32 839 OFFCURVE",
"82 791 OFFCURVE",
"152 791 CURVE SMOOTH",
"197 791 OFFCURVE",
"282 841 OFFCURVE",
"325 866 CURVE",
"349 906 LINE"
);
},
{
closed = 1;
nodes = (
"130 853 OFFCURVE",
"100 896 OFFCURVE",
"114 955 CURVE",
"130 964 OFFCURVE",
"209 996 OFFCURVE",
"270 1017 CURVE",
"283 1021 LINE",
"305 896 LINE",
"270 879 LINE",
"232 860 OFFCURVE",
"203 853 OFFCURVE",
"182 853 CURVE SMOOTH"
);
},
{
closed = 1;
nodes = (
"271 896 OFFCURVE",
"350 792 OFFCURVE",
"462 792 CURVE SMOOTH",
"539 792 OFFCURVE",
"606 846 OFFCURVE",
"637 891 CURVE",
"616 909 LINE",
"591 886 OFFCURVE",
"552 865 OFFCURVE",
"507 865 CURVE SMOOTH",
"412 865 OFFCURVE",
"344 954 OFFCURVE",
"344 1059 CURVE SMOOTH",
"344 1138 OFFCURVE",
"390 1212 OFFCURVE",
"461 1212 CURVE SMOOTH",
"512 1212 OFFCURVE",
"549 1193 OFFCURVE",
"549 1143 CURVE",
"334 1069 LINE",
"334 1025 LINE",
"638 1118 LINE",
"647 1202 OFFCURVE",
"565 1264 OFFCURVE",
"485 1264 CURVE SMOOTH",
"367 1264 OFFCURVE",
"271 1161 OFFCURVE",
"271 1015 CURVE SMOOTH"
);
}
);
};
layerId = "6D97EE47-94AA-478E-ABFB-936E6C32B491";
paths = (
{
closed = 1;
nodes = (
"299 217 LINE",
"349 363 LINE",
"349 432 OFFCURVE",
"302 464 OFFCURVE",
"233 464 CURVE SMOOTH",
"136 464 OFFCURVE",
"52 405 OFFCURVE",
"55 299 CURVE",
"135 331 LINE",
"127 381 OFFCURVE",
"160 420 OFFCURVE",
"208 420 CURVE SMOOTH",
"234 420 OFFCURVE",
"252 407 OFFCURVE",
"260 394 CURVE SMOOTH",
"269 379 OFFCURVE",
"270 365 OFFCURVE",
"270 339 CURVE SMOOTH",
"270 253 LINE",
"215 234 OFFCURVE",
"69 182 OFFCURVE",
"46 170 CURVE",
"37 153 OFFCURVE",
"32 135 OFFCURVE",
"32 110 CURVE SMOOTH",
"32 39 OFFCURVE",
"82 -9 OFFCURVE",
"152 -9 CURVE SMOOTH",
"208 -9 OFFCURVE",
"282 40 OFFCURVE",
"325 69 CURVE",
"349 106 LINE"
);
},
{
closed = 1;
nodes = (
"130 53 OFFCURVE",
"100 88 OFFCURVE",
"114 147 CURVE",
"130 156 OFFCURVE",
"209 188 OFFCURVE",
"270 209 CURVE",
"283 213 LINE",
"305 95 LINE",
"246 65 OFFCURVE",
"213 53 OFFCURVE",
"182 53 CURVE SMOOTH"
);
},
{
closed = 1;
nodes = (
"271 96 OFFCURVE",
"350 -8 OFFCURVE",
"462 -8 CURVE SMOOTH",
"539 -8 OFFCURVE",
"606 46 OFFCURVE",
"637 91 CURVE",
"616 109 LINE",
"591 86 OFFCURVE",
"552 65 OFFCURVE",
"507 65 CURVE SMOOTH",
"412 65 OFFCURVE",
"343 154 OFFCURVE",
"343 259 CURVE SMOOTH",
"343 338 OFFCURVE",
"390 414 OFFCURVE",
"459 414 CURVE SMOOTH",
"495 414 OFFCURVE",
"539 394 OFFCURVE",
"551 344 CURVE",
"334 270 LINE",
"334 227 LINE",
"638 320 LINE",
"644 404 OFFCURVE",
"567 464 OFFCURVE",
"485 464 CURVE SMOOTH",
"367 464 OFFCURVE",
"271 361 OFFCURVE",
"271 215 CURVE SMOOTH"
);
}
);
width = 660;
}
);
leftKerningGroup = a;
leftMetricsKey = a;
rightKerningGroup = ae;
rightMetricsKey = e;
unicode = 00E6;
},
{
glyphname = b;
lastChange = "2023-05-25 21:32:22 +0000";
layers = (
{
components = (
{
name = serifLC_ascender;
transform = "{1, 0, 0, 1, 24, 0}";
}
);
layerId = "6D97EE47-94AA-478E-ABFB-936E6C32B491";
paths = (
{
closed = 1;
nodes = (
"383 -8 OFFCURVE",
"494 111 OFFCURVE",
"494 261 CURVE SMOOTH",
"494 365 OFFCURVE",
"427 464 OFFCURVE",
"331 464 CURVE SMOOTH",
"276 464 OFFCURVE",
"215 428 OFFCURVE",
"165 372 CURVE",
"165 331 LINE",
"199 366 OFFCURVE",
"244 395 OFFCURVE",
"288 395 CURVE SMOOTH",
"364 395 OFFCURVE",
"419 308 OFFCURVE",
"419 215 CURVE SMOOTH",
"419 117 OFFCURVE",
"362 42 OFFCURVE",
"271 42 CURVE SMOOTH",
"226 42 OFFCURVE",
"185 64 OFFCURVE",
"165 99 CURVE",
"95 23 LINE",
"142 -2 OFFCURVE",
"181 -8 OFFCURVE",
"229 -8 CURVE SMOOTH"
);
},
{
closed = 1;
nodes = (
"176 23 LINE",
"176 775 LINE",
"95 738 LINE",
"95 23 LINE"
);
}
);
width = 518;
}
);
leftKerningGroup = b;
leftMetricsKey = "=n-2";
rightKerningGroup = o;
rightMetricsKey = o;
unicode = 0062;
},
{
glyphname = c;
lastChange = "2023-05-25 21:32:22 +0000";
layers = (
{
anchors = (
{
name = BOTTOM;
position = "{240, 0}";
},
{
name = TOP;
position = "{240, 456}";
}
);
background = {
paths = (
{
closed = 1;
nodes = (
"307 -9 OFFCURVE",
"376 30 OFFCURVE",
"405 73 CURVE",
"384 92 LINE",
"362 72 OFFCURVE",
"330 59 OFFCURVE",
"295 59 CURVE SMOOTH",
"264 59 OFFCURVE",
"230 66 OFFCURVE",
"195 88 CURVE SMOOTH",
"138 124 OFFCURVE",
"110 186 OFFCURVE",
"110 261 CURVE SMOOTH",
"110 318 OFFCURVE",
"132 373 OFFCURVE",
"177 399 CURVE",
"241 433 OFFCURVE",
"310 398 OFFCURVE",
"350 337 CURVE",
"412 396 LINE",
"394 424 OFFCURVE",
"350 464 OFFCURVE",
"257 464 CURVE SMOOTH",
"209 464 OFFCURVE",
"164 447 OFFCURVE",
"129 421 CURVE SMOOTH",
"75 381 OFFCURVE",
"34 311 OFFCURVE",
"34 221 CURVE SMOOTH",
"34 138 OFFCURVE",
"68 53 OFFCURVE",
"151 11 CURVE SMOOTH",
"178 -3 OFFCURVE",
"207 -9 OFFCURVE",
"235 -9 CURVE SMOOTH"
);
}
);
};
layerId = "6D97EE47-94AA-478E-ABFB-936E6C32B491";
paths = (
{
closed = 1;
nodes = (
"307 -8 OFFCURVE",
"376 31 OFFCURVE",
"405 74 CURVE",
"384 93 LINE",
"362 73 OFFCURVE",
"330 60 OFFCURVE",
"295 60 CURVE SMOOTH",
"187 60 OFFCURVE",
"110 143 OFFCURVE",
"110 262 CURVE SMOOTH",
"110 341 OFFCURVE",
"154 412 OFFCURVE",
"229 412 CURVE SMOOTH",
"276 412 OFFCURVE",
"321 382 OFFCURVE",
"350 337 CURVE",
"412 396 LINE",
"394 424 OFFCURVE",
"350 464 OFFCURVE",
"257 464 CURVE SMOOTH",
"132 464 OFFCURVE",
"34 357 OFFCURVE",
"34 222 CURVE SMOOTH",
"34 96 OFFCURVE",
"116 -8 OFFCURVE",
"235 -8 CURVE SMOOTH"
);
}
);
width = 434;
}
);
leftKerningGroup = o;
leftMetricsKey = o;
rightKerningGroup = c;
rightMetricsKey = "=o-2";
unicode = 0063;
},
{
glyphname = d;
lastChange = "2023-05-25 21:32:22 +0000";
layers = (
{
background = {
paths = (
{
closed = 1;
nodes = (
"285 -8 OFFCURVE",
"323 27 OFFCURVE",
"370 84 CURVE",
"370 127 LINE",
"339 79 OFFCURVE",
"300 62 OFFCURVE",
"263 62 CURVE SMOOTH",
"171 62 OFFCURVE",
"107 149 OFFCURVE",
"107 249 CURVE SMOOTH",
"107 347 OFFCURVE",
"166 412 OFFCURVE",
"254 412 CURVE SMOOTH",
"302 412 OFFCURVE",
"345 387 OFFCURVE",
"370 342 CURVE",
"370 442 LINE",
"337 457 OFFCURVE",
"306 464 OFFCURVE",
"275 464 CURVE SMOOTH",
"144 464 OFFCURVE",
"34 339 OFFCURVE",
"34 202 CURVE SMOOTH",
"34 82 OFFCURVE",
"109 -8 OFFCURVE",
"217 -8 CURVE SMOOTH"
);
},
{
closed = 1;
nodes = (
"529 52 LINE",
"517 79 LINE",
"497 72 OFFCURVE",
"468 63 OFFCURVE",
"440 66 CURVE",
"440 775 LINE",
"359 749 LINE",
"362 67 LINE",
"362 44 OFFCURVE",
"364 7 OFFCURVE",
"408 -8 CURVE"
);
}
);
};
components = (
{
name = serifLC_ascender;
transform = "{1, 0, 0, 1, 288, 0}";
},
{
name = serifLC_slant;
transform = "{1, 0, 0, 1, 406, 0}";
}
);
layerId = "6D97EE47-94AA-478E-ABFB-936E6C32B491";
paths = (
{
closed = 1;
nodes = (
"285 -8 OFFCURVE",
"323 27 OFFCURVE",
"370 84 CURVE",
"370 127 LINE",
"339 79 OFFCURVE",
"300 62 OFFCURVE",
"263 62 CURVE SMOOTH",
"171 62 OFFCURVE",
"107 149 OFFCURVE",
"107 249 CURVE SMOOTH",
"107 347 OFFCURVE",
"166 412 OFFCURVE",
"254 412 CURVE SMOOTH",
"302 412 OFFCURVE",
"345 387 OFFCURVE",
"370 342 CURVE",
"370 442 LINE",
"337 457 OFFCURVE",
"306 464 OFFCURVE",
"275 464 CURVE SMOOTH",
"144 464 OFFCURVE",
"34 339 OFFCURVE",
"34 202 CURVE SMOOTH",
"34 82 OFFCURVE",
"109 -8 OFFCURVE",
"217 -8 CURVE SMOOTH"
);
},
{
closed = 1;
nodes = (
"440 66 LINE",
"440 775 LINE",
"359 750 LINE",
"359 67 LINE SMOOTH",
"359 44 OFFCURVE",
"361 7 OFFCURVE",
"406 -8 CURVE"
);
}
);
width = 551;
}
);
leftKerningGroup = o;
leftMetricsKey = o;
rightKerningGroup = d;
rightMetricsKey = n;
unicode = 0064;
},
{
glyphname = eth;
lastChange = "2023-05-25 21:32:22 +0000";
layers = (
{
layerId = "6D97EE47-94AA-478E-ABFB-936E6C32B491";
paths = (
{
closed = 1;
nodes = (
"394 -8 OFFCURVE",
"489 94 OFFCURVE",
"496 231 CURVE SMOOTH",
"503 369 OFFCURVE",
"453 493 OFFCURVE",
"394 572 CURVE SMOOTH",
"318 673 OFFCURVE",
"190 738 OFFCURVE",
"77 770 CURVE",
"65 737 LINE",
"182 697 OFFCURVE",
"281 629 OFFCURVE",
"329 551 CURVE SMOOTH",
"372 480 OFFCURVE",
"409 382 OFFCURVE",
"409 254 CURVE SMOOTH",
"409 137 OFFCURVE",
"374 36 OFFCURVE",
"282 36 CURVE SMOOTH",
"190 36 OFFCURVE",
"122 147 OFFCURVE",
"122 254 CURVE SMOOTH",
"122 342 OFFCURVE",
"171 421 OFFCURVE",
"248 421 CURVE SMOOTH",
"330 421 OFFCURVE",
"420 322 OFFCURVE",
"429 243 CURVE",
"468 328 LINE",
"427 409 OFFCURVE",
"354 464 OFFCURVE",
"263 464 CURVE SMOOTH",
"135 464 OFFCURVE",
"34 355 OFFCURVE",
"34 226 CURVE SMOOTH",
"34 96 OFFCURVE",
"138 -8 OFFCURVE",
"266 -8 CURVE SMOOTH"
);
},
{
closed = 1;
nodes = (
"442 665 LINE",
"430 714 LINE",
"151 579 LINE",
"163 529 LINE"
);
}
);
width = 521;
}
);
leftKerningGroup = o;
leftMetricsKey = o;
rightKerningGroup = o;
rightMetricsKey = o;
unicode = 00F0;
},
{
glyphname = dcroat;
lastChange = "2023-05-25 21:32:22 +0000";
layers = (
{
components = (
{
name = d;
}
);
layerId = "6D97EE47-94AA-478E-ABFB-936E6C32B491";
paths = (
{
closed = 1;
nodes = (
"529 558 LINE",
"529 596 LINE",
"229 596 LINE",
"229 558 LINE"
);
}
);
width = 541;
}
);
leftKerningGroup = o;
rightKerningGroup = d;
unicode = 0111;
},
{
glyphname = e;
lastChange = "2023-05-25 21:32:22 +0000";
layers = (
{
anchors = (
{
name = BOTTOM;
position = "{230, 0}";
},
{
name = TOP;
position = "{232, 456}";
}
);
background = {
paths = (
{
closed = 1;
nodes = (
"254 -45 OFFCURVE",
"359 30 OFFCURVE",
"400 90 CURVE",
"379 108 LINE",
"339 72 OFFCURVE",
"266 41 OFFCURVE",
"190 88 CURVE SMOOTH",
"88 152 OFFCURVE",
"74 344 OFFCURVE",
"180 400 CURVE SMOOTH",
"248 436 OFFCURVE",
"318 381 OFFCURVE",
"318 317 CURVE",
"103 300 LINE",
"103 261 LINE",
"407 277 LINE",
"419 389 OFFCURVE",
"338 463 OFFCURVE",
"252 464 CURVE SMOOTH",
"205 464 OFFCURVE",
"152 444 OFFCURVE",
"112 406 CURVE SMOOTH",
"69 366 OFFCURVE",
"36 300 OFFCURVE",
"34 221 CURVE SMOOTH",
"32 144 OFFCURVE",
"62 54 OFFCURVE",
"146 11 CURVE SMOOTH"
);
}
);
};
layerId = "6D97EE47-94AA-478E-ABFB-936E6C32B491";
paths = (
{
closed = 1;
nodes = (
"34 96 OFFCURVE",
"113 -8 OFFCURVE",
"225 -8 CURVE SMOOTH",
"302 -8 OFFCURVE",
"369 46 OFFCURVE",
"400 91 CURVE",
"379 109 LINE",
"354 86 OFFCURVE",
"315 65 OFFCURVE",
"270 65 CURVE SMOOTH",
"175 65 OFFCURVE",
"107 154 OFFCURVE",
"107 259 CURVE SMOOTH",
"107 338 OFFCURVE",
"153 412 OFFCURVE",
"224 412 CURVE SMOOTH",
"275 412 OFFCURVE",
"318 368 OFFCURVE",
"318 318 CURVE",
"103 301 LINE",
"103 262 LINE",
"407 278 LINE",
"418 380 OFFCURVE",
"348 464 OFFCURVE",
"248 464 CURVE SMOOTH",
"130 465 OFFCURVE",
"34 361 OFFCURVE",
"34 215 CURVE SMOOTH"
);
}
);
width = 430;
}
);
leftKerningGroup = o;
leftMetricsKey = c;
rightKerningGroup = e;
rightMetricsKey = c;
unicode = 0065;
},
{
glyphname = eogonek;
lastChange = "2023-05-25 21:32:22 +0000";
layers = (
{
components = (
{
name = ogonekcomb;
transform = "{1, 0, 0, 1, 137, 0}";
},
{
name = e;
}
);
layerId = "6D97EE47-94AA-478E-ABFB-936E6C32B491";
paths = (
{
closed = 1;
nodes = (
"289 0 LINE",
"308 18 LINE",
"291 30 LINE",
"250 0 LINE"
);
}
);
width = 430;
}
);
leftKerningGroup = o;
leftMetricsKey = e;
rightKerningGroup = e;
rightMetricsKey = e;
unicode = 0119;
},
{
glyphname = schwa;
lastChange = "2023-05-25 21:32:22 +0000";
layers = (
{
layerId = "6D97EE47-94AA-478E-ABFB-936E6C32B491";
paths = (
{
closed = 1;
nodes = (
"250 -8 OFFCURVE",
"289 12 OFFCURVE",
"329 50 CURVE SMOOTH",
"373 91 OFFCURVE",
"407 160 OFFCURVE",
"407 242 CURVE SMOOTH",
"407 363 OFFCURVE",
"326 465 OFFCURVE",
"216 465 CURVE SMOOTH",
"139 465 OFFCURVE",
"72 411 OFFCURVE",
"41 366 CURVE",
"62 348 LINE",
"87 371 OFFCURVE",
"128 394 OFFCURVE",
"173 394 CURVE SMOOTH",
"272 394 OFFCURVE",
"334 305 OFFCURVE",
"334 198 CURVE SMOOTH",
"334 117 OFFCURVE",
"287 45 OFFCURVE",
"217 45 CURVE SMOOTH",
"164 45 OFFCURVE",
"119 91 OFFCURVE",
"123 149 CURVE",
"338 166 LINE",
"338 205 LINE",
"34 189 LINE",
"19 81 OFFCURVE",
"91 -8 OFFCURVE",
"189 -8 CURVE SMOOTH"
);
}
);
width = 431;
}
);
leftKerningGroup = o;
rightKerningGroup = o;
rightMetricsKey = o;
unicode = 0259;
},
{
glyphname = f;
lastChange = "2023-05-25 21:32:22 +0000";
layers = (
{
background = {
paths = (
{
closed = 1;
nodes = (
"1488 400 LINE",
"1634 400 LINE",
"1634 456 LINE",
"1486 456 LINE",
"1487 504 OFFCURVE",
"1477 636 OFFCURVE",
"1525 689 CURVE SMOOTH",
"1574 744 OFFCURVE",
"1655 738 OFFCURVE",
"1704 684 CURVE",
"1774 752 LINE",
"1718 807 OFFCURVE",
"1586 823 OFFCURVE",
"1489 729 CURVE SMOOTH",
"1410 653 OFFCURVE",
"1407 548 OFFCURVE",
"1407 456 CURVE",
"1357 456 LINE",
"1346 400 LINE",
"1407 400 LINE",
"1407 0 LINE",
"1488 0 LINE"
);
},
{
closed = 1;
nodes = (
"888 400 LINE",
"1034 400 LINE",
"1034 456 LINE",
"886 456 LINE",
"887 504 OFFCURVE",
"877 637 OFFCURVE",
"925 690 CURVE SMOOTH",
"948 716 OFFCURVE",
"979 728 OFFCURVE",
"1010 728 CURVE SMOOTH",
"1044 728 OFFCURVE",
"1078 713 OFFCURVE",
"1104 685 CURVE",
"1174 753 LINE",
"1147 780 OFFCURVE",
"1101 797 OFFCURVE",
"1051 797 CURVE SMOOTH",
"997 797 OFFCURVE",
"939 778 OFFCURVE",
"889 730 CURVE SMOOTH",
"810 654 OFFCURVE",
"807 548 OFFCURVE",
"807 456 CURVE",
"757 456 LINE",
"746 400 LINE",
"807 400 LINE",
"807 0 LINE",
"888 0 LINE"
);
},
{
closed = 1;
nodes = (
"188 0 LINE",
"188 489 LINE SMOOTH",
"188 602 OFFCURVE",
"190 661 OFFCURVE",
"225 700 CURVE SMOOTH",
"248 726 OFFCURVE",
"279 738 OFFCURVE",
"310 738 CURVE SMOOTH",
"344 738 OFFCURVE",
"382 717 OFFCURVE",
"408 689 CURVE",
"474 753 LINE",
"447 780 OFFCURVE",
"401 797 OFFCURVE",
"351 797 CURVE SMOOTH",
"297 797 OFFCURVE",
"239 778 OFFCURVE",
"189 730 CURVE SMOOTH",
"110 654 OFFCURVE",
"107 548 OFFCURVE",
"107 456 CURVE SMOOTH",
"107 0 LINE"
);
}
);
};
backgroundImage = {
imagePath = HP/LOWERCASE/f_1.jpg;
locked = "1";
transform = "{64.451, 0, 0, 64.451, -63, -275}";
};
components = (
{
name = serifLC;
transform = "{-1, 0, 0, 1, 107, 0}";
},
{
name = serifLC;
transform = "{1.2, 0, 0, 1, 188, 0}";
},
{
name = f_bar_left;
transform = "{1, 0, 0, 1, 42, 0}";
},
{
name = f_bar_right;
transform = "{1, 0, 0, 1, 178, 0}";
}
);
layerId = "6D97EE47-94AA-478E-ABFB-936E6C32B491";
paths = (
{
closed = 1;
nodes = (
"188 0 LINE",
"188 481 LINE SMOOTH",
"188 594 OFFCURVE",
"190 653 OFFCURVE",
"225 692 CURVE SMOOTH",
"248 718 OFFCURVE",
"279 730 OFFCURVE",
"310 730 CURVE SMOOTH",
"344 730 OFFCURVE",
"382 709 OFFCURVE",
"408 681 CURVE",
"474 745 LINE",
"447 772 OFFCURVE",
"401 789 OFFCURVE",
"351 789 CURVE SMOOTH",
"297 789 OFFCURVE",
"239 770 OFFCURVE",
"189 722 CURVE SMOOTH",
"110 646 OFFCURVE",
"107 540 OFFCURVE",
"107 448 CURVE SMOOTH",
"107 0 LINE"
);
}
);
width = 364;
}
);
leftKerningGroup = f;
rightKerningGroup = f;
unicode = 0066;
},
{
glyphname = g;
lastChange = "2023-05-26 13:11:01 +0000";
layers = (
{
anchors = (
{
name = TOP;
position = "{223, 456}";
}
);
background = {
paths = (
{
closed = 1;
nodes = (
"-745 -312 OFFCURVE",
"-621 -232 OFFCURVE",
"-621 -122 CURVE SMOOTH",
"-621 -33 OFFCURVE",
"-714 15 OFFCURVE",
"-795 15 CURVE SMOOTH",
"-830 15 OFFCURVE",
"-855 13 OFFCURVE",
"-877 14 CURVE SMOOTH",
"-927 16 OFFCURVE",
"-961 26 OFFCURVE",
"-961 58 CURVE SMOOTH",
"-961 84 OFFCURVE",
"-915 127 OFFCURVE",
"-890 139 CURVE",
"-935 152 LINE",
"-956 130 OFFCURVE",
"-1014 77 OFFCURVE",
"-1047 28 CURVE",
"-1047 -16 OFFCURVE",
"-954 -37 OFFCURVE",
"-875 -44 CURVE SMOOTH",
"-790 -51 OFFCURVE",
"-702 -60 OFFCURVE",
"-702 -148 CURVE SMOOTH",
"-702 -222 OFFCURVE",
"-777 -264 OFFCURVE",
"-855 -264 CURVE SMOOTH",
"-920 -264 OFFCURVE",
"-990 -233 OFFCURVE",
"-990 -166 CURVE SMOOTH",
"-990 -123 OFFCURVE",
"-967 -80 OFFCURVE",
"-902 -36 CURVE",
"-941 -24 LINE",
"-992 -62 OFFCURVE",
"-1080 -118 OFFCURVE",
"-1080 -187 CURVE SMOOTH",
"-1080 -274 OFFCURVE",
"-972 -312 OFFCURVE",
"-871 -312 CURVE SMOOTH"
);
},
{
closed = 1;
nodes = (
"-791 116 OFFCURVE",
"-712 194 OFFCURVE",
"-712 292 CURVE SMOOTH",
"-712 383 OFFCURVE",
"-786 464 OFFCURVE",
"-884 464 CURVE SMOOTH",
"-980 464 OFFCURVE",
"-1052 383 OFFCURVE",
"-1052 288 CURVE SMOOTH",
"-1052 194 OFFCURVE",
"-976 116 OFFCURVE",
"-882 116 CURVE SMOOTH"
);
},
{
closed = 1;
nodes = (
"-790 219 OFFCURVE",
"-820 162 OFFCURVE",
"-872 162 CURVE SMOOTH",
"-927 162 OFFCURVE",
"-974 230 OFFCURVE",
"-974 300 CURVE SMOOTH",
"-974 360 OFFCURVE",
"-945 416 OFFCURVE",
"-891 416 CURVE SMOOTH",
"-836 416 OFFCURVE",
"-790 345 OFFCURVE",
"-790 276 CURVE SMOOTH"
);
},
{
closed = 1;
nodes = (
"-614 415 LINE",
"-781 396 LINE",
"-759 352 LINE",
"-622 351 LINE"
);
},
{
closed = 1;
nodes = (
"4955 -312 OFFCURVE",
"5079 -232 OFFCURVE",
"5079 -122 CURVE SMOOTH",
"5079 -28 OFFCURVE",
"4986 11 OFFCURVE",
"4905 11 CURVE SMOOTH",
"4870 11 OFFCURVE",
"4836 10 OFFCURVE",
"4810 12 CURVE SMOOTH",
"4781 14 OFFCURVE",
"4726 19 OFFCURVE",
"4726 51 CURVE SMOOTH",
"4726 81 OFFCURVE",
"4758 109 OFFCURVE",
"4805 139 CURVE",
"4775 152 LINE",
"4740 130 OFFCURVE",
"4653 84 OFFCURVE",
"4653 34 CURVE SMOOTH",
"4653 -21 OFFCURVE",
"4746 -52 OFFCURVE",
"4825 -60 CURVE SMOOTH",
"4910 -69 OFFCURVE",
"4998 -60 OFFCURVE",
"4998 -148 CURVE SMOOTH",
"4998 -222 OFFCURVE",
"4923 -264 OFFCURVE",
"4845 -264 CURVE SMOOTH",
"4780 -264 OFFCURVE",
"4711 -233 OFFCURVE",
"4711 -166 CURVE SMOOTH",
"4711 -123 OFFCURVE",
"4728 -80 OFFCURVE",
"4793 -36 CURVE",
"4764 -24 LINE",
"4709 -59 OFFCURVE",
"4628 -105 OFFCURVE",
"4628 -183 CURVE SMOOTH",
"4628 -276 OFFCURVE",
"4728 -312 OFFCURVE",
"4829 -312 CURVE SMOOTH"
);
},
{
closed = 1;
nodes = (
"4909 116 OFFCURVE",
"4988 194 OFFCURVE",
"4988 292 CURVE SMOOTH",
"4988 383 OFFCURVE",
"4914 464 OFFCURVE",
"4816 464 CURVE SMOOTH",
"4720 464 OFFCURVE",
"4648 383 OFFCURVE",
"4648 288 CURVE SMOOTH",
"4648 194 OFFCURVE",
"4724 116 OFFCURVE",
"4818 116 CURVE SMOOTH"
);
},
{
closed = 1;
nodes = (
"4910 219 OFFCURVE",
"4880 162 OFFCURVE",
"4828 162 CURVE SMOOTH",
"4773 162 OFFCURVE",
"4726 230 OFFCURVE",
"4726 300 CURVE SMOOTH",
"4726 360 OFFCURVE",
"4755 416 OFFCURVE",
"4809 416 CURVE SMOOTH",
"4864 416 OFFCURVE",
"4910 345 OFFCURVE",
"4910 276 CURVE SMOOTH"
);
},
{
closed = 1;
nodes = (
"5086 415 LINE",
"4919 396 LINE",
"4941 352 LINE",
"5078 351 LINE"
);
},
{
closed = 1;
nodes = (
"4255 -312 OFFCURVE",
"4379 -232 OFFCURVE",
"4379 -122 CURVE SMOOTH",
"4379 -28 OFFCURVE",
"4295 1 OFFCURVE",
"4209 12 CURVE SMOOTH",
"4111 24 OFFCURVE",
"4026 17 OFFCURVE",
"4026 54 CURVE SMOOTH",
"4026 84 OFFCURVE",
"4058 109 OFFCURVE",
"4105 139 CURVE",
"4075 152 LINE",
"4040 130 OFFCURVE",
"3953 84 OFFCURVE",
"3953 34 CURVE SMOOTH",
"3953 -8 OFFCURVE",
"4004 -35 OFFCURVE",
"4064 -48 CURVE SMOOTH",
"4112 -58 OFFCURVE",
"4159 -59 OFFCURVE",
"4195 -65 CURVE SMOOTH",
"4248 -73 OFFCURVE",
"4298 -83 OFFCURVE",
"4298 -148 CURVE SMOOTH",
"4298 -222 OFFCURVE",
"4223 -264 OFFCURVE",
"4145 -264 CURVE SMOOTH",
"4080 -264 OFFCURVE",
"4011 -233 OFFCURVE",
"4011 -166 CURVE SMOOTH",
"4011 -123 OFFCURVE",
"4028 -80 OFFCURVE",
"4093 -36 CURVE",
"4064 -24 LINE",
"4009 -59 OFFCURVE",
"3928 -105 OFFCURVE",
"3928 -183 CURVE SMOOTH",
"3928 -276 OFFCURVE",
"4028 -312 OFFCURVE",
"4129 -312 CURVE SMOOTH"
);
},
{
closed = 1;
nodes = (
"4209 116 OFFCURVE",
"4288 194 OFFCURVE",
"4288 292 CURVE SMOOTH",
"4288 383 OFFCURVE",
"4214 464 OFFCURVE",
"4116 464 CURVE SMOOTH",
"4020 464 OFFCURVE",
"3948 383 OFFCURVE",
"3948 288 CURVE SMOOTH",
"3948 194 OFFCURVE",
"4024 116 OFFCURVE",
"4118 116 CURVE SMOOTH"
);
},
{
closed = 1;
nodes = (
"4210 219 OFFCURVE",
"4180 162 OFFCURVE",
"4128 162 CURVE SMOOTH",
"4073 162 OFFCURVE",
"4026 230 OFFCURVE",
"4026 300 CURVE SMOOTH",
"4026 360 OFFCURVE",
"4055 416 OFFCURVE",
"4109 416 CURVE SMOOTH",
"4164 416 OFFCURVE",
"4210 345 OFFCURVE",
"4210 276 CURVE SMOOTH"
);
},
{
closed = 1;
nodes = (
"4386 415 LINE",
"4219 396 LINE",
"4241 352 LINE",
"4378 351 LINE"
);
},
{
closed = 1;
nodes = (
"3455 -312 OFFCURVE",
"3579 -232 OFFCURVE",
"3579 -122 CURVE SMOOTH",
"3579 -28 OFFCURVE",
"3495 1 OFFCURVE",
"3409 12 CURVE SMOOTH",
"3311 24 OFFCURVE",
"3226 17 OFFCURVE",
"3226 54 CURVE SMOOTH",
"3226 84 OFFCURVE",
"3258 109 OFFCURVE",
"3305 139 CURVE",
"3275 152 LINE",
"3240 130 OFFCURVE",
"3153 84 OFFCURVE",
"3153 32 CURVE SMOOTH",
"3153 -13 OFFCURVE",
"3204 -37 OFFCURVE",
"3264 -47 CURVE SMOOTH",
"3312 -55 OFFCURVE",
"3359 -59 OFFCURVE",
"3395 -65 CURVE SMOOTH",
"3448 -73 OFFCURVE",
"3498 -83 OFFCURVE",
"3498 -148 CURVE SMOOTH",
"3498 -222 OFFCURVE",
"3423 -264 OFFCURVE",
"3345 -264 CURVE SMOOTH",
"3280 -264 OFFCURVE",
"3211 -233 OFFCURVE",
"3211 -166 CURVE SMOOTH",
"3211 -123 OFFCURVE",
"3228 -80 OFFCURVE",
"3293 -36 CURVE",
"3264 -24 LINE",
"3209 -59 OFFCURVE",
"3128 -105 OFFCURVE",
"3128 -183 CURVE SMOOTH",
"3128 -276 OFFCURVE",
"3228 -312 OFFCURVE",
"3329 -312 CURVE SMOOTH"
);
},
{
closed = 1;
nodes = (
"3409 116 OFFCURVE",
"3488 194 OFFCURVE",
"3488 292 CURVE SMOOTH",
"3488 383 OFFCURVE",
"3414 464 OFFCURVE",
"3316 464 CURVE SMOOTH",
"3220 464 OFFCURVE",
"3148 383 OFFCURVE",
"3148 288 CURVE SMOOTH",
"3148 194 OFFCURVE",
"3224 116 OFFCURVE",
"3318 116 CURVE SMOOTH"
);
},
{
closed = 1;
nodes = (
"3410 219 OFFCURVE",
"3380 162 OFFCURVE",
"3328 162 CURVE SMOOTH",
"3273 162 OFFCURVE",
"3226 230 OFFCURVE",
"3226 300 CURVE SMOOTH",
"3226 360 OFFCURVE",
"3255 416 OFFCURVE",
"3309 416 CURVE SMOOTH",
"3364 416 OFFCURVE",
"3410 345 OFFCURVE",
"3410 276 CURVE SMOOTH"
);
},
{
closed = 1;
nodes = (
"3586 415 LINE",
"3419 396 LINE",
"3441 352 LINE",
"3578 351 LINE"
);
},
{
closed = 1;
nodes = (
"2527 147 OFFCURVE",
"2453 108 OFFCURVE",
"2453 60 CURVE SMOOTH",
"2453 15 OFFCURVE",
"2504 -9 OFFCURVE",
"2564 -19 CURVE SMOOTH",
"2612 -27 OFFCURVE",
"2659 -31 OFFCURVE",
"2695 -37 CURVE SMOOTH",
"2748 -45 OFFCURVE",
"2798 -55 OFFCURVE",
"2798 -120 CURVE SMOOTH",
"2798 -200 OFFCURVE",
"2727 -242 OFFCURVE",
"2645 -242 CURVE SMOOTH",
"2580 -242 OFFCURVE",
"2511 -205 OFFCURVE",
"2511 -138 CURVE SMOOTH",
"2511 -95 OFFCURVE",
"2528 -52 OFFCURVE",
"2593 -8 CURVE",
"2564 4 LINE",
"2509 -31 OFFCURVE",
"2428 -77 OFFCURVE",
"2428 -155 CURVE SMOOTH",
"2428 -248 OFFCURVE",
"2528 -284 OFFCURVE",
"2629 -284 CURVE SMOOTH",
"2755 -284 OFFCURVE",
"2879 -204 OFFCURVE",
"2879 -94 CURVE SMOOTH",
"2879 0 OFFCURVE",
"2795 29 OFFCURVE",
"2709 40 CURVE SMOOTH",
"2611 52 OFFCURVE",
"2526 45 OFFCURVE",
"2526 82 CURVE SMOOTH",
"2526 108 OFFCURVE",
"2551 131 OFFCURVE",
"2588 156 CURVE",
"2566 170 LINE"
);
},
{
closed = 1;
nodes = (
"2709 116 OFFCURVE",
"2788 194 OFFCURVE",
"2788 292 CURVE SMOOTH",
"2788 383 OFFCURVE",
"2714 464 OFFCURVE",
"2616 464 CURVE SMOOTH",
"2520 464 OFFCURVE",
"2448 383 OFFCURVE",
"2448 288 CURVE SMOOTH",
"2448 194 OFFCURVE",
"2524 116 OFFCURVE",
"2618 116 CURVE SMOOTH"
);
},
{
closed = 1;
nodes = (
"2710 219 OFFCURVE",
"2680 162 OFFCURVE",
"2628 162 CURVE SMOOTH",
"2573 162 OFFCURVE",
"2526 230 OFFCURVE",
"2526 300 CURVE SMOOTH",
"2526 360 OFFCURVE",
"2555 416 OFFCURVE",
"2609 416 CURVE SMOOTH",
"2664 416 OFFCURVE",
"2710 345 OFFCURVE",
"2710 276 CURVE SMOOTH"
);
},
{
closed = 1;
nodes = (
"2886 415 LINE",
"2719 396 LINE",
"2741 352 LINE",
"2878 351 LINE"
);
},
{
closed = 1;
nodes = (
"1727 147 OFFCURVE",
"1653 108 OFFCURVE",
"1653 60 CURVE SMOOTH",
"1653 15 OFFCURVE",
"1704 -9 OFFCURVE",
"1764 -19 CURVE SMOOTH",
"1812 -27 OFFCURVE",
"1849 -31 OFFCURVE",
"1885 -37 CURVE SMOOTH",
"1938 -45 OFFCURVE",
"1988 -55 OFFCURVE",
"1988 -120 CURVE SMOOTH",
"1988 -200 OFFCURVE",
"1927 -242 OFFCURVE",
"1845 -242 CURVE SMOOTH",
"1780 -242 OFFCURVE",
"1711 -205 OFFCURVE",
"1711 -138 CURVE SMOOTH",
"1711 -95 OFFCURVE",
"1728 -52 OFFCURVE",
"1793 -8 CURVE",
"1764 4 LINE",
"1709 -31 OFFCURVE",
"1628 -77 OFFCURVE",
"1628 -155 CURVE SMOOTH",
"1628 -248 OFFCURVE",
"1728 -284 OFFCURVE",
"1829 -284 CURVE SMOOTH",
"1955 -284 OFFCURVE",
"2069 -204 OFFCURVE",
"2069 -94 CURVE SMOOTH",
"2069 0 OFFCURVE",
"1985 29 OFFCURVE",
"1899 40 CURVE SMOOTH",
"1801 52 OFFCURVE",
"1726 45 OFFCURVE",
"1726 82 CURVE SMOOTH",
"1726 108 OFFCURVE",
"1751 131 OFFCURVE",
"1788 156 CURVE",
"1766 170 LINE"
);
},
{
closed = 1;
nodes = (
"1909 116 OFFCURVE",
"1988 194 OFFCURVE",
"1988 292 CURVE SMOOTH",
"1988 383 OFFCURVE",
"1914 464 OFFCURVE",
"1816 464 CURVE SMOOTH",
"1720 464 OFFCURVE",
"1648 383 OFFCURVE",
"1648 288 CURVE SMOOTH",
"1648 194 OFFCURVE",
"1724 116 OFFCURVE",
"1818 116 CURVE SMOOTH"
);
},
{
closed = 1;
nodes = (
"1910 219 OFFCURVE",
"1880 162 OFFCURVE",
"1828 162 CURVE SMOOTH",
"1773 162 OFFCURVE",
"1726 230 OFFCURVE",
"1726 300 CURVE SMOOTH",
"1726 360 OFFCURVE",
"1755 416 OFFCURVE",
"1809 416 CURVE SMOOTH",
"1864 416 OFFCURVE",
"1910 345 OFFCURVE",
"1910 276 CURVE SMOOTH"
);
},
{
closed = 1;
nodes = (
"2076 415 LINE",
"1909 396 LINE",
"1931 352 LINE",
"2068 351 LINE"
);
},
{
closed = 1;
nodes = (
"927 147 OFFCURVE",
"853 108 OFFCURVE",
"853 60 CURVE SMOOTH",
"853 15 OFFCURVE",
"904 -9 OFFCURVE",
"964 -19 CURVE SMOOTH",
"1012 -27 OFFCURVE",
"1049 -31 OFFCURVE",
"1085 -37 CURVE SMOOTH",
"1138 -45 OFFCURVE",
"1192 -61 OFFCURVE",
"1192 -120 CURVE SMOOTH",
"1192 -194 OFFCURVE",
"1127 -242 OFFCURVE",
"1045 -242 CURVE SMOOTH",
"980 -242 OFFCURVE",
"907 -205 OFFCURVE",
"907 -138 CURVE SMOOTH",
"907 -95 OFFCURVE",
"928 -52 OFFCURVE",
"993 -8 CURVE",
"964 4 LINE",
"909 -31 OFFCURVE",
"828 -77 OFFCURVE",
"828 -151 CURVE SMOOTH",
"828 -244 OFFCURVE",
"928 -284 OFFCURVE",
"1029 -284 CURVE SMOOTH",
"1155 -284 OFFCURVE",
"1269 -204 OFFCURVE",
"1269 -94 CURVE SMOOTH",
"1269 0 OFFCURVE",
"1185 29 OFFCURVE",
"1099 40 CURVE SMOOTH",
"1001 52 OFFCURVE",
"926 45 OFFCURVE",
"926 82 CURVE SMOOTH",
"926 108 OFFCURVE",
"951 131 OFFCURVE",
"988 156 CURVE",
"966 170 LINE"
);
},
{
closed = 1;
nodes = (
"1109 116 OFFCURVE",
"1188 194 OFFCURVE",
"1188 292 CURVE SMOOTH",
"1188 383 OFFCURVE",
"1114 464 OFFCURVE",
"1016 464 CURVE SMOOTH",
"920 464 OFFCURVE",
"848 383 OFFCURVE",
"848 288 CURVE SMOOTH",
"848 194 OFFCURVE",
"924 116 OFFCURVE",
"1018 116 CURVE SMOOTH"
);
},
{
closed = 1;
nodes = (
"1110 219 OFFCURVE",
"1080 162 OFFCURVE",
"1028 162 CURVE SMOOTH",
"973 162 OFFCURVE",
"926 230 OFFCURVE",
"926 300 CURVE SMOOTH",
"926 360 OFFCURVE",
"955 416 OFFCURVE",
"1009 416 CURVE SMOOTH",
"1064 416 OFFCURVE",
"1110 345 OFFCURVE",
"1110 276 CURVE SMOOTH"
);
},
{
closed = 1;
nodes = (
"1276 415 LINE",
"1109 396 LINE",
"1131 352 LINE",
"1268 351 LINE"
);
},
{
closed = 1;
nodes = (
"127 147 OFFCURVE",
"53 108 OFFCURVE",
"53 60 CURVE SMOOTH",
"53 15 OFFCURVE",
"104 -9 OFFCURVE",
"164 -19 CURVE SMOOTH",
"212 -27 OFFCURVE",
"249 -31 OFFCURVE",
"285 -37 CURVE SMOOTH",
"338 -45 OFFCURVE",
"392 -61 OFFCURVE",
"392 -120 CURVE SMOOTH",
"392 -194 OFFCURVE",
"327 -242 OFFCURVE",
"245 -242 CURVE SMOOTH",
"180 -242 OFFCURVE",
"107 -205 OFFCURVE",
"107 -138 CURVE SMOOTH",
"107 -95 OFFCURVE",
"128 -52 OFFCURVE",
"193 -8 CURVE",
"164 4 LINE",
"109 -31 OFFCURVE",
"28 -77 OFFCURVE",
"28 -151 CURVE SMOOTH",
"28 -244 OFFCURVE",
"128 -284 OFFCURVE",
"229 -284 CURVE SMOOTH",
"355 -284 OFFCURVE",
"469 -204 OFFCURVE",
"469 -94 CURVE SMOOTH",
"469 0 OFFCURVE",
"385 25 OFFCURVE",
"299 37 CURVE SMOOTH",
"201 51 OFFCURVE",
"126 50 OFFCURVE",
"126 87 CURVE SMOOTH",
"126 113 OFFCURVE",
"151 131 OFFCURVE",
"188 156 CURVE",
"166 170 LINE"
);
},
{
closed = 1;
nodes = (
"309 116 OFFCURVE",
"388 194 OFFCURVE",
"388 292 CURVE SMOOTH",
"388 383 OFFCURVE",
"314 464 OFFCURVE",
"216 464 CURVE SMOOTH",
"120 464 OFFCURVE",
"48 383 OFFCURVE",
"48 288 CURVE SMOOTH",
"48 194 OFFCURVE",
"124 116 OFFCURVE",
"218 116 CURVE SMOOTH"
);
},
{
closed = 1;
nodes = (
"310 219 OFFCURVE",
"280 162 OFFCURVE",
"228 162 CURVE SMOOTH",
"173 162 OFFCURVE",
"126 230 OFFCURVE",
"126 300 CURVE SMOOTH",
"126 360 OFFCURVE",
"155 416 OFFCURVE",
"209 416 CURVE SMOOTH",
"264 416 OFFCURVE",
"310 345 OFFCURVE",
"310 276 CURVE SMOOTH"
);
},
{
closed = 1;
nodes = (
"476 415 LINE",
"309 396 LINE",
"331 352 LINE",
"468 351 LINE"
);
}
);
};
guideLines = (
{
angle = -8;
position = "{7, 3}";
},
{
angle = -8;
position = "{7, 81}";
}
);
layerId = "6D97EE47-94AA-478E-ABFB-936E6C32B491";
paths = (
{
closed = 1;
nodes = (
"127 147 OFFCURVE",
"53 108 OFFCURVE",
"53 60 CURVE SMOOTH",
"53 15 OFFCURVE",
"104 -9 OFFCURVE",
"164 -19 CURVE SMOOTH",
"212 -27 OFFCURVE",
"249 -31 OFFCURVE",
"285 -37 CURVE SMOOTH",
"338 -45 OFFCURVE",
"392 -61 OFFCURVE",
"392 -120 CURVE SMOOTH",
"392 -194 OFFCURVE",
"327 -242 OFFCURVE",
"245 -242 CURVE SMOOTH",
"180 -242 OFFCURVE",
"107 -205 OFFCURVE",
"107 -138 CURVE SMOOTH",
"107 -95 OFFCURVE",
"128 -52 OFFCURVE",
"193 -8 CURVE",
"164 4 LINE",
"109 -31 OFFCURVE",
"28 -77 OFFCURVE",
"28 -151 CURVE SMOOTH",
"28 -244 OFFCURVE",
"128 -284 OFFCURVE",
"234 -284 CURVE SMOOTH",
"355 -284 OFFCURVE",
"469 -204 OFFCURVE",
"469 -94 CURVE SMOOTH",
"469 0 OFFCURVE",
"385 25 OFFCURVE",
"299 37 CURVE SMOOTH",
"201 51 OFFCURVE",
"126 50 OFFCURVE",
"126 87 CURVE SMOOTH",
"126 113 OFFCURVE",
"151 131 OFFCURVE",
"188 156 CURVE",
"166 170 LINE"
);
},
{
closed = 1;
nodes = (
"309 116 OFFCURVE",
"388 194 OFFCURVE",
"388 292 CURVE SMOOTH",
"388 383 OFFCURVE",
"314 464 OFFCURVE",
"216 464 CURVE SMOOTH",
"120 464 OFFCURVE",
"48 383 OFFCURVE",
"48 288 CURVE SMOOTH",
"48 194 OFFCURVE",
"124 116 OFFCURVE",
"218 116 CURVE SMOOTH"
);
},
{
closed = 1;
nodes = (
"310 219 OFFCURVE",
"280 162 OFFCURVE",
"228 162 CURVE SMOOTH",
"173 162 OFFCURVE",
"126 230 OFFCURVE",
"126 300 CURVE SMOOTH",
"126 360 OFFCURVE",
"155 416 OFFCURVE",
"209 416 CURVE SMOOTH",
"264 416 OFFCURVE",
"310 345 OFFCURVE",
"310 276 CURVE SMOOTH"
);
},
{
closed = 1;
nodes = (
"476 415 LINE",
"309 396 LINE",
"331 352 LINE",
"468 351 LINE"
);
}
);
width = 494;
}
);
leftKerningGroup = g;
rightKerningGroup = g;
unicode = 0067;
},
{
glyphname = h;
lastChange = "2023-05-25 21:32:22 +0000";
layers = (
{
anchors = (
{
name = TOP;
position = "{278, 707}";
}
);
background = {
paths = (
{
closed = 1;
nodes = (
"1988 0 LINE",
"1988 37 OFFCURVE",
"1988 215 OFFCURVE",
"1988 314 CURVE SMOOTH",
"1988 424 OFFCURVE",
"1937 464 OFFCURVE",
"1859 464 CURVE SMOOTH",
"1787 464 OFFCURVE",
"1699 391 OFFCURVE",
"1661 364 CURVE",
"1677 332 LINE",
"1706 354 OFFCURVE",
"1761 402 OFFCURVE",
"1814 402 CURVE SMOOTH",
"1878 402 OFFCURVE",
"1907 357 OFFCURVE",
"1907 293 CURVE SMOOTH",
"1907 220 OFFCURVE",
"1907 44 OFFCURVE",
"1907 0 CURVE"
);
},
{
closed = 1;
nodes = (
"1688 0 LINE",
"1688 775 LINE",
"1607 747 LINE",
"1607 0 LINE"
);
},
{
closed = 1;
nodes = (
"488 0 LINE",
"488 37 OFFCURVE",
"488 215 OFFCURVE",
"488 314 CURVE SMOOTH",
"488 374 OFFCURVE",
"475 419 OFFCURVE",
"424 447 CURVE SMOOTH",
"405 458 OFFCURVE",
"383 464 OFFCURVE",
"359 464 CURVE SMOOTH",
"287 464 OFFCURVE",
"199 391 OFFCURVE",
"161 364 CURVE",
"177 332 LINE",
"206 354 OFFCURVE",
"263 402 OFFCURVE",
"311 402 CURVE SMOOTH",
"333 402 OFFCURVE",
"353 398 OFFCURVE",
"367 387 CURVE SMOOTH",
"405 358 OFFCURVE",
"407 327 OFFCURVE",
"407 276 CURVE SMOOTH",
"407 203 OFFCURVE",
"407 44 OFFCURVE",
"407 0 CURVE"
);
},
{
closed = 1;
nodes = (
"188 0 LINE",
"188 775 LINE",
"107 747 LINE",
"107 0 LINE"
);
}
);
};
components = (
{
name = serifLC;
transform = "{-1, 0, 0, 1, 107, 0}";
},
{
name = serifLC;
transform = "{1, 0, 0, 1, 188, 0}";
},
{
name = serifLC;
transform = "{-1, 0, 0, 1, 407, 0}";
},
{
name = serifLC;
transform = "{1, 0, 0, 1, 488, 0}";
},
{
name = serifLC_ascender;
transform = "{1, 0, 0, 1, 36, 0}";
}
);
layerId = "6D97EE47-94AA-478E-ABFB-936E6C32B491";
paths = (
{
closed = 1;
nodes = (
"188 0 LINE",
"188 775 LINE",
"107 738 LINE",
"107 0 LINE"
);
},
{
closed = 1;
nodes = (
"488 0 LINE",
"488 314 LINE SMOOTH",
"488 374 OFFCURVE",
"471 409 OFFCURVE",
"447 431 CURVE SMOOTH",
"416 459 OFFCURVE",
"383 464 OFFCURVE",
"359 464 CURVE SMOOTH",
"286 464 OFFCURVE",
"199 391 OFFCURVE",
"160 364 CURVE",
"177 332 LINE",
"205 354 OFFCURVE",
"258 402 OFFCURVE",
"322 402 CURVE SMOOTH",
"352 402 OFFCURVE",
"378 390 OFFCURVE",
"393 366 CURVE SMOOTH",
"406 344 OFFCURVE",
"407 322 OFFCURVE",
"407 289 CURVE SMOOTH",
"407 0 LINE"
);
}
);
width = 589;
}
);
leftKerningGroup = h;
leftMetricsKey = "=n+2";
rightKerningGroup = n;
rightMetricsKey = n;
unicode = 0068;
},
{
glyphname = hbar;
lastChange = "2023-05-25 21:32:22 +0000";
layers = (
{
components = (
{
name = h;
}
);
layerId = "6D97EE47-94AA-478E-ABFB-936E6C32B491";
paths = (
{
closed = 1;
nodes = (
"329 557 LINE",
"329 595 LINE",
"29 595 LINE",
"29 557 LINE"
);
}
);
width = 589;
}
);
leftKerningGroup = h;
leftMetricsKey = h;
rightKerningGroup = n;
rightMetricsKey = h;
unicode = 0127;
},
{
glyphname = hcaron;
lastChange = "2023-05-25 21:32:22 +0000";
layers = (
{
components = (
{
name = serifLC;
transform = "{-1, 0, 0, 1, 167, 0}";
},
{
name = serifLC;
transform = "{1, 0, 0, 1, 248, 0}";
},
{
name = serifLC;
transform = "{-1, 0, 0, 1, 467, 0}";
},
{
name = serifLC;
transform = "{1, 0, 0, 1, 548, 0}";
},
{
name = serifLC_ascender;
transform = "{1, 0, 0, 1, 96, -40}";
},
{
name = circumflexcomb.case;
transform = "{-1, 0, 0, -1, 374, 1743}";
}
);
layerId = "6D97EE47-94AA-478E-ABFB-936E6C32B491";
paths = (
{
closed = 1;
nodes = (
"548 0 LINE",
"548 37 OFFCURVE",
"548 215 OFFCURVE",
"548 314 CURVE SMOOTH",
"548 374 OFFCURVE",
"535 419 OFFCURVE",
"484 447 CURVE SMOOTH",
"465 458 OFFCURVE",
"443 464 OFFCURVE",
"419 464 CURVE SMOOTH",
"347 464 OFFCURVE",
"259 391 OFFCURVE",
"221 364 CURVE",
"237 332 LINE",
"266 354 OFFCURVE",
"323 402 OFFCURVE",
"371 402 CURVE SMOOTH",
"393 402 OFFCURVE",
"413 398 OFFCURVE",
"427 387 CURVE SMOOTH",
"465 358 OFFCURVE",
"467 327 OFFCURVE",
"467 276 CURVE SMOOTH",
"467 203 OFFCURVE",
"467 44 OFFCURVE",
"467 0 CURVE"
);
},
{
closed = 1;
nodes = (
"248 0 LINE",
"248 735 LINE",
"167 707 LINE",
"167 0 LINE"
);
}
);
width = 649;
}
);
leftKerningGroup = h;
leftMetricsKey = h;
rightKerningGroup = n;
rightMetricsKey = h;
unicode = 021F;
},
{
glyphname = hcircumflex;
lastChange = "2023-05-25 21:32:22 +0000";
layers = (
{
components = (
{
name = serifLC;
transform = "{-1, 0, 0, 1, 168, 0}";
},
{
name = serifLC;
transform = "{1, 0, 0, 1, 249, 0}";
},
{
name = serifLC;
transform = "{-1, 0, 0, 1, 468, 0}";
},
{
name = serifLC;
transform = "{1, 0, 0, 1, 549, 0}";
},
{
name = serifLC_ascender;
transform = "{1, 0, 0, 1, 97, -20}";
},
{
name = circumflexcomb.case;
transform = "{1, 0, 0, 1, 28, 0}";
}
);
layerId = "6D97EE47-94AA-478E-ABFB-936E6C32B491";
paths = (
{
closed = 1;
nodes = (
"549 0 LINE",
"549 37 OFFCURVE",
"549 215 OFFCURVE",
"549 314 CURVE SMOOTH",
"549 374 OFFCURVE",
"536 419 OFFCURVE",
"485 447 CURVE SMOOTH",
"466 458 OFFCURVE",
"444 464 OFFCURVE",
"420 464 CURVE SMOOTH",
"348 464 OFFCURVE",
"260 391 OFFCURVE",
"222 364 CURVE",
"238 332 LINE",
"267 354 OFFCURVE",
"324 402 OFFCURVE",
"372 402 CURVE SMOOTH",
"394 402 OFFCURVE",
"414 398 OFFCURVE",
"428 387 CURVE SMOOTH",
"466 358 OFFCURVE",
"468 327 OFFCURVE",
"468 276 CURVE SMOOTH",
"468 203 OFFCURVE",
"468 44 OFFCURVE",
"468 0 CURVE"
);
},
{
closed = 1;
nodes = (
"249 0 LINE",
"249 755 LINE",
"168 727 LINE",
"168 0 LINE"
);
}
);
width = 650;
}
);
leftKerningGroup = h;
leftMetricsKey = h;
rightKerningGroup = n;
rightMetricsKey = h;
unicode = 0125;
},
{
glyphname = idotless;
lastChange = "2023-05-25 21:32:22 +0000";
layers = (
{
anchors = (
{
name = BOTTOM;
position = "{148, 0}";
},
{
name = TOP;
position = "{147, 456}";
}
);
backgroundImage = {
imagePath = HP/LOWERCASE/i_1.jpg;
locked = "1";
transform = "{65.44, 0, 0, 65.44, -1827, -503}";
};
components = (
{
name = serifLC;
transform = "{-1, 0, 0, 1, 107, 0}";
},
{
name = serifLC;
transform = "{1, 0, 0, 1, 188, 0}";
},
{
name = serifLC_ascender;
transform = "{1, 0, 0, 1, 36, -319}";
}
);
layerId = "6D97EE47-94AA-478E-ABFB-936E6C32B491";
paths = (
{
closed = 1;
nodes = (
"188 0 LINE",
"188 456 LINE",
"107 428 LINE",
"107 0 LINE"
);
}
);
width = 289;
}
);
leftKerningGroup = i;
leftMetricsKey = "=n+2";
rightKerningGroup = i;
rightMetricsKey = n;
unicode = 0131;
},
{
glyphname = jdotless;
lastChange = "2023-05-25 21:32:22 +0000";
layers = (
{
anchors = (
{
name = TOP;
position = "{137, 456}";
}
);
background = {
paths = (
{
closed = 1;
nodes = (
"17 -270 OFFCURVE",
"140 -182 OFFCURVE",
"178 -20 CURVE",
"97 -20 LINE",
"87 -132 OFFCURVE",
"18 -226 OFFCURVE",
"-22 -262 CURVE",
"-5 -284 LINE"
);
},
{
closed = 1;
nodes = (
"135 9 LINE",
"97 62 LINE",
"98 19 OFFCURVE",
"97 -43 OFFCURVE",
"86 -80 CURVE"
);
},
{
closed = 1;
nodes = (
"178 -20 LINE",
"178 456 LINE",
"97 428 LINE",
"97 -20 LINE"
);
}
);
};
components = (
{
name = serifLC_ascender;
transform = "{1, 0, 0, 1, 26, -319}";
}
);
layerId = "6D97EE47-94AA-478E-ABFB-936E6C32B491";
paths = (
{
closed = 1;
nodes = (
"-5 -284 LINE",
"17 -270 OFFCURVE",
"140 -182 OFFCURVE",
"178 -20 CURVE",
"178 456 LINE",
"97 428 LINE",
"97 13 LINE SMOOTH",
"96 -16 OFFCURVE",
"94 -46 OFFCURVE",
"89 -69 CURVE SMOOTH",
"67 -159 OFFCURVE",
"12 -231 OFFCURVE",
"-22 -262 CURVE"
);
}
);
width = 238;
}
);
leftKerningGroup = j;
rightKerningGroup = j;
unicode = 0237;
},
{
glyphname = k;
lastChange = "2023-05-25 21:32:22 +0000";
layers = (
{
anchors = (
{
name = BOTTOM;
position = "{283, 0}";
}
);
components = (
{
name = serifLC;
transform = "{-1, 0, 0, 1, 107, 0}";
},
{
name = serifLC;
transform = "{1.04, 0, 0, 1, 188, 0}";
},
{
name = serifLC;
transform = "{-1, 0, 0, -1, 368, 456}";
},
{
name = serifLC_ascender;
transform = "{1, 0, 0, 1, 36, 0}";
},
{
name = serifLC;
transform = "{0.9, 0, 0, -1, 433, 456}";
}
);
guideLines = (
{
angle = 305.718;
position = "{301, 106}";
},
{
angle = 80.2176;
position = "{532, -14}";
}
);
layerId = "6D97EE47-94AA-478E-ABFB-936E6C32B491";
paths = (
{
closed = 1;
nodes = (
"534 -2 LINE",
"481 17 OFFCURVE",
"459 42 OFFCURVE",
"424 81 CURVE SMOOTH",
"381 129 OFFCURVE",
"311 222 OFFCURVE",
"281 264 CURVE",
"202 246 LINE",
"224 216 OFFCURVE",
"323 68 OFFCURVE",
"358 31 CURVE SMOOTH",
"396 -6 OFFCURVE",
"429 -28 OFFCURVE",
"529 -31 CURVE"
);
},
{
closed = 1;
nodes = (
"188 0 LINE",
"188 775 LINE",
"107 738 LINE",
"107 0 LINE"
);
},
{
closed = 1;
nodes = (
"472 448 LINE",
"406 448 LINE",
"202 246 LINE",
"232 210 LINE"
);
},
{
closed = 1;
nodes = (
"433 410 LINE",
"433 456 LINE",
"368 456 LINE",
"368 410 LINE"
);
}
);
width = 544;
}
);
leftKerningGroup = h;
leftMetricsKey = "=n+2";
rightKerningGroup = k;
unicode = 006B;
},
{
glyphname = kgreenlandic;
lastChange = "2023-05-25 21:32:22 +0000";
layers = (
{
components = (
{
name = serifLC;
transform = "{-1, 0, 0, 1, 107, 0}";
},
{
name = serifLC;
transform = "{1, 0, 0, 1, 188, 0}";
},
{
name = serifLC_ascender;
transform = "{1, 0, 0, 1, 36, -319}";
},
{
name = serifLC;
transform = "{-1, 0, 0, -1, 368, 456}";
},
{
name = serifLC;
transform = "{0.9, 0, 0, -1, 436, 456}";
}
);
layerId = "6D97EE47-94AA-478E-ABFB-936E6C32B491";
paths = (
{
closed = 1;
nodes = (
"534 -2 LINE",
"481 17 OFFCURVE",
"459 42 OFFCURVE",
"424 81 CURVE SMOOTH",
"381 129 OFFCURVE",
"311 222 OFFCURVE",
"281 264 CURVE",
"202 246 LINE",
"224 216 OFFCURVE",
"323 68 OFFCURVE",
"358 31 CURVE SMOOTH",
"396 -6 OFFCURVE",
"429 -28 OFFCURVE",
"529 -31 CURVE"
);
},
{
closed = 1;
nodes = (
"188 0 LINE",
"188 456 LINE",
"107 423 LINE",
"107 0 LINE"
);
},
{
closed = 1;
nodes = (
"477 448 LINE",
"406 448 LINE",
"202 246 LINE",
"237 210 LINE"
);
},
{
closed = 1;
nodes = (
"436 408 LINE",
"436 456 LINE",
"368 456 LINE",
"368 408 LINE"
);
}
);
width = 544;
}
);
leftKerningGroup = n;
leftMetricsKey = k;
rightKerningGroup = k;
rightMetricsKey = k;
unicode = 0138;
},
{
glyphname = l;
lastChange = "2023-05-25 21:32:22 +0000";
layers = (
{
anchors = (
{
name = BOTTOM;
position = "{147, 0}";
},
{
name = TOP;
position = "{118, 739}";
}
);
components = (
{
name = serifLC;
transform = "{-1, 0, 0, 1, 107, 0}";
},
{
name = serifLC;
transform = "{1, 0, 0, 1, 188, 0}";
},
{
name = serifLC_ascender;
transform = "{1, 0, 0, 1, 36, 0}";
}
);
layerId = "6D97EE47-94AA-478E-ABFB-936E6C32B491";
paths = (
{
closed = 1;
nodes = (
"188 0 LINE",
"188 775 LINE",
"107 738 LINE",
"107 0 LINE"
);
}
);
width = 289;
}
);
leftKerningGroup = h;
leftMetricsKey = "=n+2";
rightKerningGroup = n;
rightMetricsKey = n;
unicode = 006C;
},
{
glyphname = ldot;
lastChange = "2023-05-25 21:32:22 +0000";
layers = (
{
background = {
paths = (
{
closed = 1;
nodes = (
"355.72 274.84 OFFCURVE",
"379.24 300.04 OFFCURVE",
"379.24 328.6 CURVE SMOOTH",
"379.24 358 OFFCURVE",
"355.72 380.68 OFFCURVE",
"325.48 380.68 CURVE SMOOTH",
"295.24 380.68 OFFCURVE",
"272.56 355.48 OFFCURVE",
"272.56 326.92 CURVE SMOOTH",
"272.56 297.52 OFFCURVE",
"295.24 274.84 OFFCURVE",
"325.48 274.84 CURVE SMOOTH"
);
}
);
};
components = (
{
alignment = -1;
name = l;
},
{
alignment = -1;
name = periodcentered;
transform = "{0.84, 0, 0, 0.84, 202, 137}";
}
);
layerId = "6D97EE47-94AA-478E-ABFB-936E6C32B491";
width = 407;
}
);
leftKerningGroup = h;
rightKerningGroup = n;
unicode = 0140;
},
{
glyphname = lslash;
lastChange = "2023-05-25 21:32:22 +0000";
layers = (
{
components = (
{
name = l;
transform = "{1, 0, 0, 1, 3, 0}";
}
);
layerId = "6D97EE47-94AA-478E-ABFB-936E6C32B491";
paths = (
{
closed = 1;
nodes = (
"282 471 LINE",
"264 504 LINE",
"22 386 LINE",
"40 353 LINE"
);
}
);
width = 298;
}
);
leftKerningGroup = h;
leftMetricsKey = "=l-6";
rightKerningGroup = n;
rightMetricsKey = "=l-6";
unicode = 0142;
},
{
glyphname = m;
lastChange = "2023-05-29 09:14:45 +0000";
layers = (
{
background = {
paths = (
{
closed = 1;
nodes = (
"1474 0 LINE",
"1474 37 OFFCURVE",
"1474 215 OFFCURVE",
"1474 314 CURVE SMOOTH",
"1474 374 OFFCURVE",
"1460 419 OFFCURVE",
"1410 447 CURVE SMOOTH",
"1390 458 OFFCURVE",
"1369 464 OFFCURVE",
"1345 464 CURVE SMOOTH",
"1272 464 OFFCURVE",
"1185 391 OFFCURVE",
"1146 364 CURVE",
"1162 332 LINE",
"1191 354 OFFCURVE",
"1248 402 OFFCURVE",
"1296 402 CURVE SMOOTH",
"1318 402 OFFCURVE",
"1338 398 OFFCURVE",
"1352 387 CURVE SMOOTH",
"1390 358 OFFCURVE",
"1392 327 OFFCURVE",
"1392 276 CURVE SMOOTH",
"1392 203 OFFCURVE",
"1392 44 OFFCURVE",
"1392 0 CURVE"
);
},
{
closed = 1;
nodes = (
"1186 0 LINE",
"1186 456 LINE",
"1105 428 LINE",
"1105 0 LINE"
);
},
{
closed = 1;
nodes = (
"1761 0 LINE",
"1761 37 OFFCURVE",
"1761 215 OFFCURVE",
"1761 314 CURVE SMOOTH",
"1761 374 OFFCURVE",
"1748 419 OFFCURVE",
"1697 447 CURVE SMOOTH",
"1678 458 OFFCURVE",
"1656 464 OFFCURVE",
"1632 464 CURVE SMOOTH",
"1560 464 OFFCURVE",
"1484 402 OFFCURVE",
"1445 375 CURVE",
"1461 343 LINE",
"1490 365 OFFCURVE",
"1536 402 OFFCURVE",
"1584 402 CURVE SMOOTH",
"1606 402 OFFCURVE",
"1626 398 OFFCURVE",
"1640 387 CURVE SMOOTH",
"1678 358 OFFCURVE",
"1680 327 OFFCURVE",
"1680 276 CURVE SMOOTH",
"1680 203 OFFCURVE",
"1680 44 OFFCURVE",
"1680 0 CURVE"
);
},
{
closed = 1;
nodes = (
"186 0 LINE",
"186 456 LINE",
"105 428 LINE",
"105 0 LINE"
);
},
{
closed = 1;
nodes = (
"473 0 LINE",
"473 314 LINE SMOOTH",
"473 374 OFFCURVE",
"460 419 OFFCURVE",
"409 447 CURVE SMOOTH",
"390 458 OFFCURVE",
"368 464 OFFCURVE",
"344 464 CURVE SMOOTH",
"271 464 OFFCURVE",
"184 391 OFFCURVE",
"145 364 CURVE",
"162 332 LINE",
"190 354 OFFCURVE",
"243 402 OFFCURVE",
"307 402 CURVE SMOOTH",
"337 402 OFFCURVE",
"363 390 OFFCURVE",
"378 366 CURVE SMOOTH",
"391 344 OFFCURVE",
"392 322 OFFCURVE",
"392 289 CURVE SMOOTH",
"392 0 LINE"
);
},
{
closed = 1;
nodes = (
"760 0 LINE",
"760 314 LINE SMOOTH",
"760 374 OFFCURVE",
"747 419 OFFCURVE",
"696 447 CURVE SMOOTH",
"677 458 OFFCURVE",
"655 464 OFFCURVE",
"631 464 CURVE SMOOTH",
"558 464 OFFCURVE",
"471 391 OFFCURVE",
"432 364 CURVE",
"449 332 LINE",
"477 354 OFFCURVE",
"530 402 OFFCURVE",
"594 402 CURVE SMOOTH",
"624 402 OFFCURVE",
"650 390 OFFCURVE",
"665 366 CURVE SMOOTH",
"678 344 OFFCURVE",
"679 322 OFFCURVE",
"679 289 CURVE SMOOTH",
"679 0 LINE"
);
}
);
};
components = (
{
name = serifLC;
transform = "{-1, 0, 0, 1, 105, 0}";
},
{
name = serifLC;
transform = "{0.9, 0, 0, 1, 186, 0}";
},
{
name = serifLC;
transform = "{-0.9, 0, 0, 1, 392, 0}";
},
{
name = serifLC_ascender;
transform = "{1, 0, 0, 1, 34, -319}";
},
{
name = serifLC;
transform = "{0.9, 0, 0, 1, 473, 0}";
},
{
name = serifLC;
transform = "{-0.9, 0, 0, 1, 679, 0}";
},
{
name = serifLC;
transform = "{1, 0, 0, 1, 760, 0}";
}
);
layerId = "6D97EE47-94AA-478E-ABFB-936E6C32B491";
paths = (
{
closed = 1;
nodes = (
"186 0 LINE",
"186 456 LINE",
"105 428 LINE",
"105 0 LINE"
);
},
{
closed = 1;
nodes = (
"473 0 LINE",
"473 314 LINE SMOOTH",
"473 374 OFFCURVE",
"456 409 OFFCURVE",
"432 431 CURVE SMOOTH",
"401 459 OFFCURVE",
"368 464 OFFCURVE",
"344 464 CURVE SMOOTH",
"271 464 OFFCURVE",
"184 391 OFFCURVE",
"145 364 CURVE",
"162 332 LINE",
"190 354 OFFCURVE",
"243 402 OFFCURVE",
"307 402 CURVE SMOOTH",
"337 402 OFFCURVE",
"363 390 OFFCURVE",
"378 366 CURVE SMOOTH",
"391 344 OFFCURVE",
"392 322 OFFCURVE",
"392 289 CURVE SMOOTH",
"392 0 LINE"
);
},
{
closed = 1;
nodes = (
"760 0 LINE",
"760 314 LINE SMOOTH",
"760 374 OFFCURVE",
"743 409 OFFCURVE",
"719 431 CURVE SMOOTH",
"688 459 OFFCURVE",
"655 464 OFFCURVE",
"631 464 CURVE SMOOTH",
"558 464 OFFCURVE",
"471 391 OFFCURVE",
"432 364 CURVE",
"449 332 LINE",
"477 354 OFFCURVE",
"530 402 OFFCURVE",
"594 402 CURVE SMOOTH",
"624 402 OFFCURVE",
"650 390 OFFCURVE",
"665 366 CURVE SMOOTH",
"678 344 OFFCURVE",
"679 322 OFFCURVE",
"679 289 CURVE SMOOTH",
"679 0 LINE"
);
}
);
width = 861;
}
);
leftKerningGroup = n;
leftMetricsKey = n;
rightKerningGroup = n;
rightMetricsKey = n;
unicode = 006D;
},
{
glyphname = n;
lastChange = "2023-05-25 21:32:22 +0000";
layers = (
{
anchors = (
{
name = BOTTOM;
position = "{292, 0}";
},
{
name = TOP;
position = "{282, 456}";
}
);
background = {
paths = (
{
closed = 1;
nodes = (
"1979 0 LINE",
"1979 37 OFFCURVE",
"1979 215 OFFCURVE",
"1979 314 CURVE SMOOTH",
"1979 374 OFFCURVE",
"1966 419 OFFCURVE",
"1915 447 CURVE SMOOTH",
"1896 458 OFFCURVE",
"1874 464 OFFCURVE",
"1850 464 CURVE SMOOTH",
"1777 464 OFFCURVE",
"1690 391 OFFCURVE",
"1651 364 CURVE",
"1668 332 LINE",
"1696 354 OFFCURVE",
"1749 402 OFFCURVE",
"1813 402 CURVE SMOOTH",
"1864 402 OFFCURVE",
"1898 369 OFFCURVE",
"1898 289 CURVE SMOOTH",
"1898 216 OFFCURVE",
"1898 44 OFFCURVE",
"1898 0 CURVE"
);
},
{
closed = 1;
nodes = (
"1686 0 LINE",
"1686 456 LINE",
"1605 428 LINE",
"1605 0 LINE"
);
},
{
closed = 1;
nodes = (
"1279 0 LINE",
"1279 37 OFFCURVE",
"1279 215 OFFCURVE",
"1279 314 CURVE SMOOTH",
"1279 374 OFFCURVE",
"1266 419 OFFCURVE",
"1215 447 CURVE SMOOTH",
"1196 458 OFFCURVE",
"1174 464 OFFCURVE",
"1150 464 CURVE SMOOTH",
"1077 464 OFFCURVE",
"990 391 OFFCURVE",
"951 364 CURVE",
"968 332 LINE",
"996 354 OFFCURVE",
"1053 402 OFFCURVE",
"1101 402 CURVE SMOOTH",
"1124 402 OFFCURVE",
"1144 398 OFFCURVE",
"1158 387 CURVE SMOOTH",
"1196 358 OFFCURVE",
"1198 327 OFFCURVE",
"1198 276 CURVE SMOOTH",
"1198 203 OFFCURVE",
"1198 44 OFFCURVE",
"1198 0 CURVE"
);
},
{
closed = 1;
nodes = (
"986 0 LINE",
"986 456 LINE",
"905 428 LINE",
"905 0 LINE"
);
},
{
closed = 1;
nodes = (
"479 0 LINE",
"479 314 LINE SMOOTH",
"479 374 OFFCURVE",
"466 419 OFFCURVE",
"415 447 CURVE SMOOTH",
"396 458 OFFCURVE",
"374 464 OFFCURVE",
"350 464 CURVE SMOOTH",
"277 464 OFFCURVE",
"190 391 OFFCURVE",
"151 364 CURVE",
"168 332 LINE",
"196 354 OFFCURVE",
"249 402 OFFCURVE",
"313 402 CURVE SMOOTH",
"343 402 OFFCURVE",
"369 390 OFFCURVE",
"384 366 CURVE SMOOTH",
"397 344 OFFCURVE",
"398 322 OFFCURVE",
"398 289 CURVE SMOOTH",
"398 0 LINE"
);
},
{
closed = 1;
nodes = (
"186 0 LINE",
"186 456 LINE",
"105 428 LINE",
"105 0 LINE"
);
}
);
};
components = (
{
name = serifLC;
transform = "{-1, 0, 0, 1, 105, 0}";
},
{
name = serifLC;
transform = "{1, 0, 0, 1, 186, 0}";
},
{
name = serifLC;
transform = "{-0.9, 0, 0, 1, 398, 0}";
},
{
name = serifLC_ascender;
transform = "{1, 0, 0, 1, 34, -319}";
},
{
name = serifLC;
transform = "{1, 0, 0, 1, 479, 0}";
}
);
layerId = "6D97EE47-94AA-478E-ABFB-936E6C32B491";
paths = (
{
closed = 1;
nodes = (
"186 0 LINE",
"186 456 LINE",
"105 428 LINE",
"105 0 LINE"
);
},
{
closed = 1;
nodes = (
"479 0 LINE",
"479 314 LINE SMOOTH",
"479 374 OFFCURVE",
"462 409 OFFCURVE",
"438 431 CURVE SMOOTH",
"407 459 OFFCURVE",
"374 464 OFFCURVE",
"350 464 CURVE SMOOTH",
"277 464 OFFCURVE",
"190 391 OFFCURVE",
"151 364 CURVE",
"168 332 LINE",
"196 354 OFFCURVE",
"249 402 OFFCURVE",
"313 402 CURVE SMOOTH",
"343 402 OFFCURVE",
"369 390 OFFCURVE",
"384 366 CURVE SMOOTH",
"397 344 OFFCURVE",
"398 322 OFFCURVE",
"398 289 CURVE SMOOTH",
"398 0 LINE"
);
}
);
width = 580;
}
);
leftKerningGroup = n;
rightKerningGroup = n;
unicode = 006E;
},
{
glyphname = eng;
lastChange = "2023-05-25 21:32:22 +0000";
layers = (
{
components = (
{
name = serifLC;
transform = "{-1, 0, 0, 1, 105, 0}";
},
{
name = serifLC;
transform = "{1, 0, 0, 1, 186, 0}";
},
{
name = serifLC_ascender;
transform = "{1, 0, 0, 1, 34, -319}";
}
);
layerId = "6D97EE47-94AA-478E-ABFB-936E6C32B491";
paths = (
{
closed = 1;
nodes = (
"282 -247 OFFCURVE",
"342 -235 OFFCURVE",
"384 -210 CURVE SMOOTH",
"426 -185 OFFCURVE",
"455 -147 OFFCURVE",
"467 -110 CURVE SMOOTH",
"472 -94 OFFCURVE",
"476 -64 OFFCURVE",
"477 -46 CURVE SMOOTH",
"478 -29 OFFCURVE",
"479 6 OFFCURVE",
"479 10 CURVE SMOOTH",
"479 66 OFFCURVE",
"479 222 OFFCURVE",
"479 314 CURVE SMOOTH",
"479 374 OFFCURVE",
"466 419 OFFCURVE",
"415 447 CURVE SMOOTH",
"396 458 OFFCURVE",
"374 464 OFFCURVE",
"350 464 CURVE SMOOTH",
"277 464 OFFCURVE",
"190 391 OFFCURVE",
"151 364 CURVE",
"168 332 LINE",
"196 354 OFFCURVE",
"253 402 OFFCURVE",
"301 402 CURVE SMOOTH",
"324 402 OFFCURVE",
"344 398 OFFCURVE",
"358 387 CURVE SMOOTH",
"396 358 OFFCURVE",
"398 327 OFFCURVE",
"398 276 CURVE SMOOTH",
"398 203 OFFCURVE",
"398 45 OFFCURVE",
"398 0 CURVE SMOOTH",
"398 -75 OFFCURVE",
"400 -155 OFFCURVE",
"358 -175 CURVE SMOOTH",
"321 -193 OFFCURVE",
"274 -168 OFFCURVE",
"246 -143 CURVE",
"225 -235 LINE"
);
},
{
closed = 1;
nodes = (
"186 0 LINE",
"186 456 LINE",
"105 428 LINE",
"105 0 LINE"
);
}
);
width = 529;
}
);
leftKerningGroup = n;
leftMetricsKey = n;
rightKerningGroup = n;
rightMetricsKey = "=n+28";
unicode = 014B;
},
{
glyphname = nhookleft;
lastChange = "2023-05-25 21:32:22 +0000";
layers = (
{
components = (
{
name = serifLC;
transform = "{-0.9, 0, 0, 1, 398, 0}";
},
{
name = serifLC_ascender;
transform = "{1, 0, 0, 1, 34, -319}";
},
{
name = serifLC;
transform = "{1, 0, 0, 1, 479, 0}";
}
);
layerId = "6D97EE47-94AA-478E-ABFB-936E6C32B491";
paths = (
{
closed = 1;
nodes = (
"479 0 LINE",
"479 37 OFFCURVE",
"479 215 OFFCURVE",
"479 314 CURVE SMOOTH",
"479 374 OFFCURVE",
"466 419 OFFCURVE",
"415 447 CURVE SMOOTH",
"396 458 OFFCURVE",
"374 464 OFFCURVE",
"350 464 CURVE SMOOTH",
"277 464 OFFCURVE",
"190 391 OFFCURVE",
"151 364 CURVE",
"168 332 LINE",
"196 354 OFFCURVE",
"253 402 OFFCURVE",
"301 402 CURVE SMOOTH",
"324 402 OFFCURVE",
"344 398 OFFCURVE",
"358 387 CURVE SMOOTH",
"396 358 OFFCURVE",
"398 327 OFFCURVE",
"398 276 CURVE SMOOTH",
"398 203 OFFCURVE",
"398 44 OFFCURVE",
"398 0 CURVE"
);
},
{
closed = 1;
nodes = (
"-11 -247 OFFCURVE",
"49 -235 OFFCURVE",
"91 -210 CURVE SMOOTH",
"133 -185 OFFCURVE",
"162 -147 OFFCURVE",
"174 -110 CURVE SMOOTH",
"179 -94 OFFCURVE",
"183 -70 OFFCURVE",
"184 -52 CURVE SMOOTH",
"185 -35 OFFCURVE",
"186 -4 OFFCURVE",
"186 10 CURVE",
"105 0 LINE",
"105 -75 OFFCURVE",
"107 -155 OFFCURVE",
"65 -175 CURVE SMOOTH",
"28 -193 OFFCURVE",
"-19 -168 OFFCURVE",
"-47 -143 CURVE",
"-68 -235 LINE"
);
},
{
closed = 1;
nodes = (
"186 10 LINE",
"186 456 LINE",
"105 428 LINE",
"105 0 LINE"
);
}
);
width = 580;
}
);
leftKerningGroup = nhookleft;
rightKerningGroup = n;
rightMetricsKey = n;
unicode = 0272;
},
{
glyphname = o;
lastChange = "2023-05-25 21:32:22 +0000";
layers = (
{
anchors = (
{
name = BOTTOM;
position = "{270, 0}";
},
{
name = CENTER;
position = "{264, 222}";
},
{
name = TOP;
position = "{265, 456}";
}
);
layerId = "6D97EE47-94AA-478E-ABFB-936E6C32B491";
paths = (
{
closed = 1;
nodes = (
"395 -8 OFFCURVE",
"496 101 OFFCURVE",
"496 231 CURVE SMOOTH",
"496 355 OFFCURVE",
"395 464 OFFCURVE",
"263 464 CURVE SMOOTH",
"135 464 OFFCURVE",
"34 355 OFFCURVE",
"34 226 CURVE SMOOTH",
"34 96 OFFCURVE",
"138 -8 OFFCURVE",
"266 -8 CURVE SMOOTH"
);
},
{
closed = 1;
nodes = (
"190 36 OFFCURVE",
"122 147 OFFCURVE",
"122 254 CURVE SMOOTH",
"122 342 OFFCURVE",
"171 421 OFFCURVE",
"248 421 CURVE SMOOTH",
"339 421 OFFCURVE",
"407 311 OFFCURVE",
"407 204 CURVE SMOOTH",
"407 117 OFFCURVE",
"361 36 OFFCURVE",
"282 36 CURVE SMOOTH"
);
}
);
width = 520;
}
);
leftKerningGroup = o;
rightKerningGroup = o;
unicode = 006F;
},
{
glyphname = oogonek;
lastChange = "2023-05-25 21:32:22 +0000";
layers = (
{
components = (
{
alignment = -1;
name = ogonekcomb;
transform = "{1, 0, 0, 1, 188, 0}";
},
{
name = o;
}
);
layerId = "6D97EE47-94AA-478E-ABFB-936E6C32B491";
paths = (
{
closed = 1;
nodes = (
"340 0 LINE",
"359 18 LINE",
"342 30 LINE",
"301 0 LINE"
);
}
);
width = 520;
}
);
leftKerningGroup = o;
leftMetricsKey = o;
rightKerningGroup = o;
rightMetricsKey = o;
unicode = 01EB;
},
{
glyphname = oslash;
lastChange = "2023-05-25 21:32:22 +0000";
layers = (
{
components = (
{
name = o;
}
);
layerId = "6D97EE47-94AA-478E-ABFB-936E6C32B491";
paths = (
{
closed = 1;
nodes = (
"448 503 LINE",
"413 522 LINE",
"84 -50 LINE",
"119 -69 LINE"
);
}
);
width = 520;
}
);
leftKerningGroup = o;
leftMetricsKey = o;
rightKerningGroup = o;
rightMetricsKey = o;
unicode = 00F8;
},
{
glyphname = oe;
lastChange = "2023-05-25 21:32:22 +0000";
layers = (
{
components = (
{
name = e;
transform = "{1, 0, 0, 1, 373, 0}";
}
);
layerId = "6D97EE47-94AA-478E-ABFB-936E6C32B491";
paths = (
{
closed = 1;
nodes = (
"349 -8 OFFCURVE",
"423 37 OFFCURVE",
"464 110 CURVE",
"446 178 OFFCURVE",
"465 281 OFFCURVE",
"479 317 CURVE",
"443 409 OFFCURVE",
"354 464 OFFCURVE",
"263 464 CURVE SMOOTH",
"135 464 OFFCURVE",
"34 355 OFFCURVE",
"34 226 CURVE SMOOTH",
"34 96 OFFCURVE",
"138 -8 OFFCURVE",
"266 -8 CURVE SMOOTH"
);
},
{
closed = 1;
nodes = (
"190 36 OFFCURVE",
"122 147 OFFCURVE",
"122 254 CURVE SMOOTH",
"122 342 OFFCURVE",
"171 421 OFFCURVE",
"248 421 CURVE SMOOTH",
"316 421 OFFCURVE",
"382 353 OFFCURVE",
"402 258 CURVE SMOOTH",
"405 240 OFFCURVE",
"407 222 OFFCURVE",
"407 204 CURVE SMOOTH",
"407 117 OFFCURVE",
"361 36 OFFCURVE",
"282 36 CURVE SMOOTH"
);
}
);
width = 803;
}
);
leftKerningGroup = o;
leftMetricsKey = o;
rightKerningGroup = e;
rightMetricsKey = e;
unicode = 0153;
},
{
glyphname = p;
lastChange = "2023-05-25 21:32:22 +0000";
layers = (
{
components = (
{
name = serifLC;
transform = "{-1, 0, 0, 1, 107, -276}";
},
{
name = serifLC;
transform = "{1.1, 0, 0, 1, 188, -276}";
},
{
name = serifLC_ascender;
transform = "{1, 0, 0, 1, 36, -319}";
}
);
layerId = "6D97EE47-94AA-478E-ABFB-936E6C32B491";
paths = (
{
closed = 1;
nodes = (
"394 -8 OFFCURVE",
"505 111 OFFCURVE",
"505 261 CURVE SMOOTH",
"505 365 OFFCURVE",
"438 464 OFFCURVE",
"342 464 CURVE SMOOTH",
"287 464 OFFCURVE",
"226 428 OFFCURVE",
"176 372 CURVE",
"176 331 LINE",
"210 366 OFFCURVE",
"255 395 OFFCURVE",
"299 395 CURVE SMOOTH",
"376 395 OFFCURVE",
"430 309 OFFCURVE",
"430 215 CURVE SMOOTH",
"430 117 OFFCURVE",
"373 42 OFFCURVE",
"282 42 CURVE SMOOTH",
"237 42 OFFCURVE",
"196 64 OFFCURVE",
"176 99 CURVE",
"176 -1 LINE",
"197 -6 OFFCURVE",
"218 -8 OFFCURVE",
"240 -8 CURVE SMOOTH"
);
},
{
closed = 1;
nodes = (
"188 -276 LINE",
"188 456 LINE",
"107 428 LINE",
"107 -276 LINE"
);
}
);
width = 529;
}
);
leftKerningGroup = p;
leftMetricsKey = "=n+2";
rightKerningGroup = o;
rightMetricsKey = o;
unicode = 0070;
},
{
glyphname = thorn;
lastChange = "2023-05-25 21:32:22 +0000";
layers = (
{
background = {
paths = (
{
closed = 1;
nodes = (
"177 16 OFFCURVE",
"197 14 OFFCURVE",
"217 14 CURVE SMOOTH",
"361 14 OFFCURVE",
"479 123 OFFCURVE",
"479 275 CURVE SMOOTH",
"479 385 OFFCURVE",
"412 473 OFFCURVE",
"303 473 CURVE SMOOTH",
"253 473 OFFCURVE",
"201 454 OFFCURVE",
"157 411 CURVE",
"157 374 LINE",
"183 395 OFFCURVE",
"216 405 OFFCURVE",
"250 405 CURVE SMOOTH",
"346 405 OFFCURVE",
"407 331 OFFCURVE",
"407 224 CURVE SMOOTH",
"407 131 OFFCURVE",
"354 63 OFFCURVE",
"267 63 CURVE SMOOTH",
"220 63 OFFCURVE",
"178 87 OFFCURVE",
"157 123 CURVE",
"158 21 LINE"
);
},
{
closed = 1;
nodes = (
"186 -281 LINE",
"186 775 LINE",
"105 747 LINE",
"105 -281 LINE"
);
}
);
};
components = (
{
name = serifLC;
transform = "{-1, 0, 0, 1, 105, -281}";
},
{
name = serifLC;
transform = "{1.1, 0, 0, 1, 186, -281}";
},
{
name = serifLC_ascender;
transform = "{1, 0, 0, 1, 34, 0}";
}
);
layerId = "6D97EE47-94AA-478E-ABFB-936E6C32B491";
paths = (
{
closed = 1;
nodes = (
"186 -281 LINE",
"186 775 LINE",
"105 747 LINE",
"105 -281 LINE"
);
},
{
closed = 1;
nodes = (
"392 -8 OFFCURVE",
"503 111 OFFCURVE",
"503 261 CURVE SMOOTH",
"503 365 OFFCURVE",
"436 464 OFFCURVE",
"340 464 CURVE SMOOTH",
"285 464 OFFCURVE",
"224 428 OFFCURVE",
"174 372 CURVE",
"174 331 LINE",
"208 366 OFFCURVE",
"253 395 OFFCURVE",
"297 395 CURVE SMOOTH",
"374 395 OFFCURVE",
"428 309 OFFCURVE",
"428 215 CURVE SMOOTH",
"428 117 OFFCURVE",
"371 42 OFFCURVE",
"280 42 CURVE SMOOTH",
"235 42 OFFCURVE",
"194 64 OFFCURVE",
"174 99 CURVE",
"174 -1 LINE",
"195 -6 OFFCURVE",
"216 -8 OFFCURVE",
"238 -8 CURVE SMOOTH"
);
}
);
width = 527;
}
);
leftKerningGroup = thorn;
leftMetricsKey = n;
rightKerningGroup = o;
rightMetricsKey = o;
unicode = 00FE;
},
{
glyphname = q;
lastChange = "2023-05-25 21:32:22 +0000";
layers = (
{
components = (
{
name = serifLC;
transform = "{-1.1, 0, 0, 1, 348, -276}";
},
{
name = serifLC;
transform = "{1, 0, 0, 1, 429, -276}";
}
);
layerId = "6D97EE47-94AA-478E-ABFB-936E6C32B491";
paths = (
{
closed = 1;
nodes = (
"285 -8 OFFCURVE",
"323 27 OFFCURVE",
"370 84 CURVE",
"370 127 LINE",
"339 79 OFFCURVE",
"300 62 OFFCURVE",
"263 62 CURVE SMOOTH",
"173 62 OFFCURVE",
"107 146 OFFCURVE",
"107 249 CURVE SMOOTH",
"107 343 OFFCURVE",
"162 410 OFFCURVE",
"250 410 CURVE SMOOTH",
"302 410 OFFCURVE",
"350 380 OFFCURVE",
"370 325 CURVE",
"370 434 LINE",
"335 455 OFFCURVE",
"302 464 OFFCURVE",
"270 464 CURVE SMOOTH",
"145 464 OFFCURVE",
"34 338 OFFCURVE",
"34 202 CURVE SMOOTH",
"34 85 OFFCURVE",
"107 -8 OFFCURVE",
"217 -8 CURVE SMOOTH"
);
},
{
closed = 1;
nodes = (
"429 -276 LINE",
"429 473 LINE",
"404 480 LINE",
"370 434 LINE",
"348 434 LINE",
"348 -276 LINE"
);
}
);
width = 520;
}
);
leftKerningGroup = o;
leftMetricsKey = o;
rightKerningGroup = n;
rightMetricsKey = "=n-10";
unicode = 0071;
},
{
glyphname = r;
lastChange = "2023-05-25 21:32:22 +0000";
layers = (
{
anchors = (
{
name = BOTTOM;
position = "{137, 0}";
},
{
name = TOP;
position = "{189, 456}";
}
);
background = {
paths = (
{
closed = 1;
nodes = (
"176 294 OFFCURVE",
"201 363 OFFCURVE",
"249 377 CURVE SMOOTH",
"284 388 OFFCURVE",
"311 372 OFFCURVE",
"326 359 CURVE",
"370 450 LINE",
"350 462 OFFCURVE",
"325 466 OFFCURVE",
"296 463 CURVE SMOOTH",
"221 454 OFFCURVE",
"172 343 OFFCURVE",
"130 288 CURVE",
"156 264 LINE"
);
},
{
closed = 1;
nodes = (
"178 0 LINE",
"178 456 LINE",
"97 428 LINE",
"97 0 LINE"
);
}
);
};
backgroundImage = {
imagePath = HP/LOWERCASE/r_1.jpg;
locked = "1";
transform = "{65.318, 0, 0, 65.318, -2001, -418}";
};
components = (
{
name = serifLC;
transform = "{-0.9, 0, 0, 1, 97, 0}";
},
{
name = serifLC;
transform = "{1.1, 0, 0, 1, 178, 0}";
},
{
name = serifLC_ascender;
transform = "{1, 0, 0, 1, 26, -319}";
}
);
layerId = "6D97EE47-94AA-478E-ABFB-936E6C32B491";
paths = (
{
closed = 1;
nodes = (
"183 305 OFFCURVE",
"206 381 OFFCURVE",
"272 381 CURVE SMOOTH",
"296 381 OFFCURVE",
"315 369 OFFCURVE",
"326 359 CURVE",
"370 450 LINE",
"350 462 OFFCURVE",
"325 466 OFFCURVE",
"296 463 CURVE SMOOTH",
"221 454 OFFCURVE",
"172 343 OFFCURVE",
"130 288 CURVE",
"156 264 LINE"
);
},
{
closed = 1;
nodes = (
"178 0 LINE",
"178 456 LINE",
"97 428 LINE",
"97 0 LINE"
);
}
);
width = 376;
}
);
leftKerningGroup = n;
leftMetricsKey = n;
rightKerningGroup = r;
unicode = 0072;
},
{
glyphname = s;
lastChange = "2023-05-25 21:32:22 +0000";
layers = (
{
anchors = (
{
name = BOTTOM;
position = "{179, 0}";
},
{
name = TOP;
position = "{203, 456}";
}
);
background = {
paths = (
{
closed = 1;
nodes = (
"274 -8 OFFCURVE",
"337 37 OFFCURVE",
"337 125 CURVE SMOOTH",
"337 191 OFFCURVE",
"294 224 OFFCURVE",
"240 258 CURVE SMOOTH",
"195 287 OFFCURVE",
"140 305 OFFCURVE",
"140 359 CURVE SMOOTH",
"140 395 OFFCURVE",
"169 419 OFFCURVE",
"213 419 CURVE SMOOTH",
"258 419 OFFCURVE",
"290 386 OFFCURVE",
"297 332 CURVE",
"327 337 LINE",
"312 451 LINE",
"300 453 OFFCURVE",
"262 464 OFFCURVE",
"218 464 CURVE SMOOTH",
"130 464 OFFCURVE",
"63 416 OFFCURVE",
"63 335 CURVE SMOOTH",
"63 258 OFFCURVE",
"146 210 OFFCURVE",
"186 184 CURVE SMOOTH",
"223 161 OFFCURVE",
"260 142 OFFCURVE",
"260 103 CURVE SMOOTH",
"260 59 OFFCURVE",
"224 36 OFFCURVE",
"177 36 CURVE SMOOTH",
"115 36 OFFCURVE",
"79 88 OFFCURVE",
"67 154 CURVE",
"34 148 LINE",
"55 18 LINE",
"80 3 OFFCURVE",
"138 -8 OFFCURVE",
"184 -8 CURVE SMOOTH"
);
}
);
};
layerId = "6D97EE47-94AA-478E-ABFB-936E6C32B491";
paths = (
{
closed = 1;
nodes = (
"274 -8 OFFCURVE",
"337 42 OFFCURVE",
"337 115 CURVE SMOOTH",
"337 256 OFFCURVE",
"136 256 OFFCURVE",
"136 354 CURVE SMOOTH",
"136 396 OFFCURVE",
"169 419 OFFCURVE",
"213 419 CURVE SMOOTH",
"258 419 OFFCURVE",
"290 386 OFFCURVE",
"297 332 CURVE",
"327 337 LINE",
"312 451 LINE",
"300 453 OFFCURVE",
"262 464 OFFCURVE",
"218 464 CURVE SMOOTH",
"130 464 OFFCURVE",
"63 416 OFFCURVE",
"63 335 CURVE SMOOTH",
"63 213 OFFCURVE",
"260 183 OFFCURVE",
"260 103 CURVE SMOOTH",
"260 59 OFFCURVE",
"224 36 OFFCURVE",
"177 36 CURVE SMOOTH",
"115 36 OFFCURVE",
"79 88 OFFCURVE",
"67 154 CURVE",
"34 148 LINE",
"55 18 LINE",
"80 3 OFFCURVE",
"138 -8 OFFCURVE",
"184 -8 CURVE SMOOTH"
);
}
);
width = 371;
}
);
leftKerningGroup = s;
rightKerningGroup = s;
unicode = 0073;
},
{
glyphname = germandbls;
lastChange = "2023-05-25 21:32:22 +0000";
layers = (
{
background = {
paths = (
{
closed = 1;
nodes = (
"1426 -8 OFFCURVE",
"1488 37 OFFCURVE",
"1488 125 CURVE SMOOTH",
"1488 188 OFFCURVE",
"1447 243 OFFCURVE",
"1398 283 CURVE SMOOTH",
"1367 308 OFFCURVE",
"1320 346 OFFCURVE",
"1292 374 CURVE SMOOTH",
"1271 395 OFFCURVE",
"1259 409 OFFCURVE",
"1259 432 CURVE SMOOTH",
"1259 453 OFFCURVE",
"1269 471 OFFCURVE",
"1289 494 CURVE SMOOTH",
"1306 513 OFFCURVE",
"1342 547 OFFCURVE",
"1393 588 CURVE",
"1398 606 OFFCURVE",
"1402 623 OFFCURVE",
"1402 646 CURVE SMOOTH",
"1402 727 OFFCURVE",
"1333 797 OFFCURVE",
"1251 797 CURVE SMOOTH",
"1190 797 OFFCURVE",
"1127 772 OFFCURVE",
"1079 719 CURVE SMOOTH",
"1009 642 OFFCURVE",
"1007 538 OFFCURVE",
"1007 456 CURVE",
"957 456 LINE",
"946 400 LINE",
"1007 400 LINE",
"1007 0 LINE",
"1088 0 LINE",
"1088 58 OFFCURVE",
"1088 164 OFFCURVE",
"1088 236 CURVE SMOOTH",
"1088 311 OFFCURVE",
"1087 433 OFFCURVE",
"1087 499 CURVE SMOOTH",
"1087 516 OFFCURVE",
"1087 529 OFFCURVE",
"1087 537 CURVE SMOOTH",
"1087 602 OFFCURVE",
"1090 653 OFFCURVE",
"1123 694 CURVE SMOOTH",
"1145 722 OFFCURVE",
"1176 739 OFFCURVE",
"1213 739 CURVE SMOOTH",
"1271 739 OFFCURVE",
"1324 698 OFFCURVE",
"1324 630 CURVE SMOOTH",
"1324 614 OFFCURVE",
"1321 598 OFFCURVE",
"1317 586 CURVE",
"1286 558 OFFCURVE",
"1250 523 OFFCURVE",
"1230 495 CURVE SMOOTH",
"1213 470 OFFCURVE",
"1199 444 OFFCURVE",
"1199 412 CURVE SMOOTH",
"1199 391 OFFCURVE",
"1203 371 OFFCURVE",
"1220 344 CURVE SMOOTH",
"1248 300 OFFCURVE",
"1296 259 OFFCURVE",
"1337 223 CURVE SMOOTH",
"1380 185 OFFCURVE",
"1414 153 OFFCURVE",
"1414 103 CURVE SMOOTH",
"1414 68 OFFCURVE",
"1385 41 OFFCURVE",
"1348 37 CURVE SMOOTH",
"1313 33 OFFCURVE",
"1291 41 OFFCURVE",
"1265 69 CURVE SMOOTH",
"1249 86 OFFCURVE",
"1239 122 OFFCURVE",
"1233 154 CURVE",
"1200 148 LINE",
"1222 18 LINE",
"1246 3 OFFCURVE",
"1289 -8 OFFCURVE",
"1335 -8 CURVE SMOOTH"
);
},
{
closed = 1;
nodes = (
"526 -8 OFFCURVE",
"588 37 OFFCURVE",
"588 125 CURVE SMOOTH",
"588 188 OFFCURVE",
"547 243 OFFCURVE",
"498 283 CURVE SMOOTH",
"467 308 OFFCURVE",
"420 346 OFFCURVE",
"392 374 CURVE SMOOTH",
"371 395 OFFCURVE",
"359 409 OFFCURVE",
"359 432 CURVE SMOOTH",
"359 453 OFFCURVE",
"369 471 OFFCURVE",
"389 494 CURVE SMOOTH",
"406 513 OFFCURVE",
"442 547 OFFCURVE",
"493 588 CURVE",
"498 606 OFFCURVE",
"502 623 OFFCURVE",
"502 646 CURVE SMOOTH",
"502 727 OFFCURVE",
"423 797 OFFCURVE",
"345 797 CURVE SMOOTH",
"297 797 OFFCURVE",
"239 778 OFFCURVE",
"189 730 CURVE SMOOTH",
"110 654 OFFCURVE",
"107 548 OFFCURVE",
"107 456 CURVE",
"57 456 LINE",
"46 400 LINE",
"107 400 LINE",
"107 0 LINE",
"188 0 LINE",
"188 489 LINE SMOOTH",
"188 602 OFFCURVE",
"190 661 OFFCURVE",
"225 700 CURVE SMOOTH",
"248 726 OFFCURVE",
"276 739 OFFCURVE",
"313 739 CURVE SMOOTH",
"371 739 OFFCURVE",
"424 698 OFFCURVE",
"424 630 CURVE SMOOTH",
"424 614 OFFCURVE",
"421 598 OFFCURVE",
"417 586 CURVE",
"386 558 OFFCURVE",
"350 523 OFFCURVE",
"330 495 CURVE SMOOTH",
"313 470 OFFCURVE",
"299 444 OFFCURVE",
"299 412 CURVE SMOOTH",
"299 391 OFFCURVE",
"303 371 OFFCURVE",
"320 344 CURVE SMOOTH",
"348 300 OFFCURVE",
"396 259 OFFCURVE",
"437 223 CURVE SMOOTH",
"480 185 OFFCURVE",
"514 153 OFFCURVE",
"514 103 CURVE SMOOTH",
"514 68 OFFCURVE",
"485 41 OFFCURVE",
"448 37 CURVE SMOOTH",
"413 33 OFFCURVE",
"391 41 OFFCURVE",
"365 69 CURVE SMOOTH",
"349 86 OFFCURVE",
"339 122 OFFCURVE",
"333 154 CURVE",
"300 148 LINE",
"322 18 LINE",
"346 3 OFFCURVE",
"389 -8 OFFCURVE",
"435 -8 CURVE SMOOTH"
);
}
);
};
components = (
{
name = serifLC;
transform = "{-1, 0, 0, 1, 107, 0}";
},
{
name = serifLC;
transform = "{0.9, 0, 0, 1, 188, 0}";
},
{
name = f_bar_left;
transform = "{1, 0, 0, 1, 42, 0}";
}
);
layerId = "6D97EE47-94AA-478E-ABFB-936E6C32B491";
paths = (
{
closed = 1;
nodes = (
"188 0 LINE",
"188 481 LINE SMOOTH",
"188 594 OFFCURVE",
"190 653 OFFCURVE",
"225 692 CURVE SMOOTH",
"248 718 OFFCURVE",
"276 731 OFFCURVE",
"313 731 CURVE SMOOTH",
"371 731 OFFCURVE",
"424 690 OFFCURVE",
"424 622 CURVE SMOOTH",
"424 606 OFFCURVE",
"421 590 OFFCURVE",
"417 578 CURVE",
"386 550 OFFCURVE",
"351 523 OFFCURVE",
"330 495 CURVE SMOOTH",
"312 471 OFFCURVE",
"299 444 OFFCURVE",
"299 412 CURVE SMOOTH",
"299 391 OFFCURVE",
"303 371 OFFCURVE",
"320 344 CURVE SMOOTH",
"348 300 OFFCURVE",
"396 259 OFFCURVE",
"437 223 CURVE SMOOTH",
"480 185 OFFCURVE",
"514 153 OFFCURVE",
"514 103 CURVE SMOOTH",
"514 68 OFFCURVE",
"485 41 OFFCURVE",
"448 37 CURVE SMOOTH",
"413 33 OFFCURVE",
"391 41 OFFCURVE",
"365 69 CURVE SMOOTH",
"349 86 OFFCURVE",
"339 122 OFFCURVE",
"333 154 CURVE",
"300 148 LINE",
"322 18 LINE",
"346 3 OFFCURVE",
"389 -8 OFFCURVE",
"435 -8 CURVE SMOOTH",
"526 -8 OFFCURVE",
"588 37 OFFCURVE",
"588 125 CURVE SMOOTH",
"588 188 OFFCURVE",
"547 243 OFFCURVE",
"498 283 CURVE SMOOTH",
"467 308 OFFCURVE",
"420 346 OFFCURVE",
"392 374 CURVE SMOOTH",
"371 395 OFFCURVE",
"359 409 OFFCURVE",
"359 432 CURVE SMOOTH",
"359 453 OFFCURVE",
"368 472 OFFCURVE",
"389 494 CURVE SMOOTH",
"407 513 OFFCURVE",
"442 540 OFFCURVE",
"493 580 CURVE",
"498 598 OFFCURVE",
"502 615 OFFCURVE",
"502 638 CURVE SMOOTH",
"502 719 OFFCURVE",
"423 789 OFFCURVE",
"345 789 CURVE SMOOTH",
"297 789 OFFCURVE",
"239 770 OFFCURVE",
"189 722 CURVE SMOOTH",
"110 646 OFFCURVE",
"107 540 OFFCURVE",
"107 448 CURVE SMOOTH",
"107 0 LINE"
);
}
);
width = 622;
}
);
leftKerningGroup = f;
leftMetricsKey = f;
rightKerningGroup = s;
rightMetricsKey = s;
unicode = 00DF;
},
{
glyphname = longs;
lastChange = "2023-05-25 21:32:22 +0000";
layers = (
{
background = {
paths = (
{
closed = 1;
nodes = (
"2288 0 LINE",
"2288 489 LINE SMOOTH",
"2288 601 OFFCURVE",
"2289 650 OFFCURVE",
"2325 690 CURVE SMOOTH",
"2348 716 OFFCURVE",
"2379 728 OFFCURVE",
"2410 728 CURVE SMOOTH",
"2444 728 OFFCURVE",
"2478 713 OFFCURVE",
"2504 685 CURVE",
"2574 753 LINE",
"2547 780 OFFCURVE",
"2501 797 OFFCURVE",
"2451 797 CURVE SMOOTH",
"2397 797 OFFCURVE",
"2339 778 OFFCURVE",
"2289 730 CURVE SMOOTH",
"2210 654 OFFCURVE",
"2207 548 OFFCURVE",
"2207 456 CURVE",
"2147 456 LINE",
"2136 400 LINE",
"2207 400 LINE",
"2207 0 LINE"
);
},
{
closed = 1;
nodes = (
"2788 400 LINE",
"2934 400 LINE",
"2934 456 LINE",
"2786 456 LINE",
"2787 504 OFFCURVE",
"2777 637 OFFCURVE",
"2825 690 CURVE SMOOTH",
"2848 716 OFFCURVE",
"2879 728 OFFCURVE",
"2910 728 CURVE SMOOTH",
"2944 728 OFFCURVE",
"2978 713 OFFCURVE",
"3004 685 CURVE",
"3074 753 LINE",
"3047 780 OFFCURVE",
"3001 797 OFFCURVE",
"2951 797 CURVE SMOOTH",
"2897 797 OFFCURVE",
"2839 778 OFFCURVE",
"2789 730 CURVE SMOOTH",
"2710 654 OFFCURVE",
"2707 548 OFFCURVE",
"2707 456 CURVE",
"2657 456 LINE",
"2646 400 LINE",
"2707 400 LINE",
"2707 0 LINE",
"2788 0 LINE"
);
},
{
closed = 1;
nodes = (
"2434 400 LINE",
"2434 456 LINE",
"2288 456 LINE",
"2288 400 LINE"
);
},
{
closed = 1;
nodes = (
"1588 0 LINE",
"1588 489 LINE SMOOTH",
"1588 602 OFFCURVE",
"1590 661 OFFCURVE",
"1625 700 CURVE SMOOTH",
"1648 726 OFFCURVE",
"1679 738 OFFCURVE",
"1710 738 CURVE SMOOTH",
"1744 738 OFFCURVE",
"1782 717 OFFCURVE",
"1808 689 CURVE",
"1874 753 LINE",
"1847 780 OFFCURVE",
"1801 797 OFFCURVE",
"1751 797 CURVE SMOOTH",
"1697 797 OFFCURVE",
"1639 778 OFFCURVE",
"1589 730 CURVE SMOOTH",
"1510 654 OFFCURVE",
"1507 548 OFFCURVE",
"1507 456 CURVE SMOOTH",
"1507 0 LINE"
);
},
{
closed = 1;
nodes = (
"888 0 LINE",
"888 489 LINE SMOOTH",
"888 601 OFFCURVE",
"889 650 OFFCURVE",
"925 690 CURVE SMOOTH",
"948 716 OFFCURVE",
"979 728 OFFCURVE",
"1010 728 CURVE SMOOTH",
"1044 728 OFFCURVE",
"1078 713 OFFCURVE",
"1104 685 CURVE",
"1174 753 LINE",
"1147 780 OFFCURVE",
"1101 797 OFFCURVE",
"1051 797 CURVE SMOOTH",
"997 797 OFFCURVE",
"939 778 OFFCURVE",
"889 730 CURVE SMOOTH",
"810 654 OFFCURVE",
"807 548 OFFCURVE",
"807 456 CURVE",
"747 456 LINE",
"736 400 LINE",
"807 400 LINE",
"807 0 LINE"
);
},
{
closed = 1;
nodes = (
"188 0 LINE",
"188 489 LINE SMOOTH",
"188 602 OFFCURVE",
"190 661 OFFCURVE",
"225 700 CURVE SMOOTH",
"248 726 OFFCURVE",
"279 738 OFFCURVE",
"310 738 CURVE SMOOTH",
"344 738 OFFCURVE",
"382 717 OFFCURVE",
"408 689 CURVE",
"474 753 LINE",
"447 780 OFFCURVE",
"401 797 OFFCURVE",
"351 797 CURVE SMOOTH",
"297 797 OFFCURVE",
"239 778 OFFCURVE",
"189 730 CURVE SMOOTH",
"110 654 OFFCURVE",
"107 548 OFFCURVE",
"107 456 CURVE SMOOTH",
"107 0 LINE"
);
},
{
closed = 1;
nodes = (
"46 400 LINE",
"107 400 LINE",
"107 456 LINE",
"57 456 LINE"
);
}
);
};
components = (
{
name = serifLC;
transform = "{-1, 0, 0, 1, 107, 0}";
},
{
name = serifLC;
transform = "{1.2, 0, 0, 1, 188, 0}";
},
{
name = f_bar_left;
transform = "{1, 0, 0, 1, 42, 0}";
}
);
layerId = "6D97EE47-94AA-478E-ABFB-936E6C32B491";
paths = (
{
closed = 1;
nodes = (
"188 0 LINE",
"188 481 LINE SMOOTH",
"188 594 OFFCURVE",
"190 653 OFFCURVE",
"225 692 CURVE SMOOTH",
"248 718 OFFCURVE",
"279 730 OFFCURVE",
"310 730 CURVE SMOOTH",
"344 730 OFFCURVE",
"382 709 OFFCURVE",
"408 681 CURVE",
"474 745 LINE",
"447 772 OFFCURVE",
"401 789 OFFCURVE",
"351 789 CURVE SMOOTH",
"297 789 OFFCURVE",
"239 770 OFFCURVE",
"189 722 CURVE SMOOTH",
"110 646 OFFCURVE",
"107 540 OFFCURVE",
"107 448 CURVE SMOOTH",
"107 0 LINE"
);
}
);
width = 304;
}
);
leftKerningGroup = f;
leftMetricsKey = f;
rightKerningGroup = longs;
rightMetricsKey = "=f-60";
unicode = 017F;
},
{
glyphname = t;
lastChange = "2023-05-25 21:32:22 +0000";
layers = (
{
anchors = (
{
name = BOTTOM;
position = "{168, 0}";
}
);
background = {
paths = (
{
closed = 1;
nodes = (
"212 -8 OFFCURVE",
"275 24 OFFCURVE",
"295 41 CURVE",
"281 66 LINE",
"262 56 OFFCURVE",
"200 39 OFFCURVE",
"175 56 CURVE SMOOTH",
"156 68 OFFCURVE",
"154 85 OFFCURVE",
"154 127 CURVE SMOOTH",
"154 400 LINE",
"293 400 LINE",
"293 456 LINE",
"154 456 LINE",
"154 533 LINE",
"134 542 LINE",
"106 507 OFFCURVE",
"59 454 OFFCURVE",
"20 431 CURVE",
"20 400 LINE",
"73 400 LINE",
"73 122 LINE SMOOTH",
"73 72 OFFCURVE",
"77 47 OFFCURVE",
"89 29 CURVE SMOOTH",
"103 6 OFFCURVE",
"128 -8 OFFCURVE",
"158 -8 CURVE SMOOTH"
);
}
);
};
backgroundImage = {
imagePath = HP/LOWERCASE/t_1.jpg;
locked = "1";
transform = "{66.068, 0, 0, 66.068, -3355, -485}";
};
layerId = "6D97EE47-94AA-478E-ABFB-936E6C32B491";
paths = (
{
closed = 1;
nodes = (
"221 -8 OFFCURVE",
"261 14 OFFCURVE",
"295 41 CURVE",
"281 66 LINE",
"262 56 OFFCURVE",
"200 39 OFFCURVE",
"175 56 CURVE SMOOTH",
"156 68 OFFCURVE",
"154 85 OFFCURVE",
"154 127 CURVE SMOOTH",
"154 400 LINE",
"293 400 LINE",
"293 456 LINE",
"154 456 LINE",
"154 533 LINE",
"134 542 LINE",
"106 507 OFFCURVE",
"59 454 OFFCURVE",
"20 431 CURVE",
"20 400 LINE",
"73 400 LINE",
"73 122 LINE SMOOTH",
"73 72 OFFCURVE",
"77 47 OFFCURVE",
"89 29 CURVE SMOOTH",
"103 6 OFFCURVE",
"134 -8 OFFCURVE",
"164 -8 CURVE SMOOTH"
);
}
);
width = 309;
}
);
leftKerningGroup = t;
rightKerningGroup = t;
unicode = 0074;
},
{
glyphname = tbar;
lastChange = "2023-05-25 21:32:22 +0000";
layers = (
{
components = (
{
name = t;
}
);
layerId = "6D97EE47-94AA-478E-ABFB-936E6C32B491";
paths = (
{
closed = 1;
nodes = (
"272 233 LINE",
"272 271 LINE",
"25 271 LINE",
"25 233 LINE"
);
}
);
width = 309;
}
);
leftKerningGroup = t;
leftMetricsKey = t;
rightKerningGroup = t;
rightMetricsKey = t;
unicode = 0167;
},
{
glyphname = u;
lastChange = "2023-05-25 21:32:22 +0000";
layers = (
{
anchors = (
{
name = BOTTOM;
position = "{287, 0}";
},
{
name = TOP;
position = "{287, 456}";
}
);
background = {
annotations = (
{
position = "{235, 792}";
text = wrong;
type = Text;
width = 51;
}
);
components = (
{
name = serifLC_ascender;
transform = "{1, 0, 0, 1, 26, -319}";
},
{
name = serifLC_ascender;
transform = "{1, 0, 0, 1, 308, -319}";
}
);
paths = (
{
closed = 1;
nodes = (
"999 -8 OFFCURVE",
"1085 67 OFFCURVE",
"1124 95 CURVE",
"1108 124 LINE",
"1080 102 OFFCURVE",
"1022 53 OFFCURVE",
"975 53 CURVE SMOOTH",
"952 53 OFFCURVE",
"932 58 OFFCURVE",
"918 69 CURVE SMOOTH",
"880 98 OFFCURVE",
"878 128 OFFCURVE",
"878 179 CURVE SMOOTH",
"878 253 OFFCURVE",
"878 412 OFFCURVE",
"878 456 CURVE",
"797 434 LINE",
"797 397 OFFCURVE",
"797 241 OFFCURVE",
"797 141 CURVE SMOOTH",
"797 82 OFFCURVE",
"810 37 OFFCURVE",
"861 8 CURVE SMOOTH",
"880 -3 OFFCURVE",
"902 -8 OFFCURVE",
"926 -8 CURVE SMOOTH"
);
},
{
closed = 1;
nodes = (
"1249 52 LINE",
"1237 79 LINE",
"1217 72 OFFCURVE",
"1188 63 OFFCURVE",
"1160 66 CURVE",
"1160 456 LINE",
"1078 430 LINE",
"1080 67 LINE",
"1080 44 OFFCURVE",
"1082 7 OFFCURVE",
"1126 -8 CURVE"
);
},
{
closed = 1;
nodes = (
"97 426 LINE",
"97 142 LINE SMOOTH",
"97 82 OFFCURVE",
"110 37 OFFCURVE",
"161 9 CURVE SMOOTH",
"180 -2 OFFCURVE",
"202 -8 OFFCURVE",
"226 -8 CURVE SMOOTH",
"299 -8 OFFCURVE",
"386 65 OFFCURVE",
"425 92 CURVE",
"408 124 LINE",
"380 102 OFFCURVE",
"327 54 OFFCURVE",
"263 54 CURVE SMOOTH",
"233 54 OFFCURVE",
"207 66 OFFCURVE",
"192 90 CURVE SMOOTH",
"179 112 OFFCURVE",
"178 134 OFFCURVE",
"178 167 CURVE SMOOTH",
"178 456 LINE"
);
},
{
closed = 1;
nodes = (
"460 66 LINE",
"460 456 LINE",
"379 431 LINE",
"379 67 LINE SMOOTH",
"379 44 OFFCURVE",
"381 7 OFFCURVE",
"426 -8 CURVE"
);
}
);
};
components = (
{
name = serifLC_ascender;
transform = "{1, 0, 0, 1, 26, -319}";
},
{
name = serifLC_ascender;
transform = "{1, 0, 0, 1, 308, -319}";
},
{
name = serifLC_slant;
transform = "{1, 0, 0, 1, 426, 0}";
}
);
layerId = "6D97EE47-94AA-478E-ABFB-936E6C32B491";
paths = (
{
closed = 1;
nodes = (
"460 66 LINE",
"460 456 LINE",
"379 431 LINE",
"379 67 LINE SMOOTH",
"379 44 OFFCURVE",
"381 7 OFFCURVE",
"426 -8 CURVE"
);
},
{
closed = 1;
nodes = (
"97 426 LINE",
"97 142 LINE SMOOTH",
"97 82 OFFCURVE",
"114 47 OFFCURVE",
"138 25 CURVE SMOOTH",
"169 -3 OFFCURVE",
"202 -8 OFFCURVE",
"226 -8 CURVE SMOOTH",
"299 -8 OFFCURVE",
"386 65 OFFCURVE",
"425 92 CURVE",
"408 124 LINE",
"380 102 OFFCURVE",
"327 54 OFFCURVE",
"263 54 CURVE SMOOTH",
"233 54 OFFCURVE",
"207 66 OFFCURVE",
"192 90 CURVE SMOOTH",
"179 112 OFFCURVE",
"178 134 OFFCURVE",
"178 167 CURVE SMOOTH",
"178 456 LINE"
);
}
);
width = 571;
}
);
leftKerningGroup = u;
leftMetricsKey = n;
rightKerningGroup = n;
rightMetricsKey = n;
unicode = 0075;
},
{
glyphname = uogonek;
lastChange = "2023-05-25 21:32:22 +0000";
layers = (
{
components = (
{
alignment = -1;
name = ogonekcomb;
transform = "{1, 0, 0, 1, 286, 0}";
},
{
name = u;
}
);
layerId = "6D97EE47-94AA-478E-ABFB-936E6C32B491";
paths = (
{
closed = 1;
nodes = (
"438 -1 OFFCURVE",
"446 6 OFFCURVE",
"463 17 CURVE SMOOTH",
"479 27 OFFCURVE",
"496 36 OFFCURVE",
"519 46 CURVE",
"440 30 LINE",
"399 0 LINE",
"404 0 LINE",
"416 -21 LINE"
);
}
);
width = 571;
}
);
leftKerningGroup = u;
leftMetricsKey = u;
rightKerningGroup = n;
rightMetricsKey = u;
unicode = 0173;
},
{
glyphname = v;
lastChange = "2023-05-25 21:32:22 +0000";
layers = (
{
components = (
{
name = serifLC;
transform = "{-0.8, 0, 0, -1, 73, 456}";
},
{
name = serifLC;
transform = "{0.9, 0, 0, -1, 155, 456}";
},
{
name = serifLC;
transform = "{-0.9, 0, 0, -1, 388, 456}";
},
{
name = serifLC;
transform = "{0.8, 0, 0, -1, 439, 456}";
}
);
layerId = "6D97EE47-94AA-478E-ABFB-936E6C32B491";
paths = (
{
closed = 1;
nodes = (
"263 -14 LINE",
"286 69 LINE",
"138 456 LINE",
"54 456 LINE",
"235 -14 LINE"
);
},
{
closed = 1;
nodes = (
"155 408 LINE",
"155 456 LINE",
"73 456 LINE",
"73 408 LINE"
);
},
{
closed = 1;
nodes = (
"269 -14 LINE",
"459 456 LINE",
"406 456 LINE",
"246 60 LINE",
"244 -14 LINE"
);
},
{
closed = 1;
nodes = (
"439 408 LINE",
"439 456 LINE",
"388 456 LINE",
"388 408 LINE"
);
}
);
width = 512;
}
);
leftKerningGroup = v;
rightKerningGroup = v;
unicode = 0076;
},
{
glyphname = w;
lastChange = "2023-05-25 21:32:22 +0000";
layers = (
{
anchors = (
{
name = TOP;
position = "{376, 456}";
}
);
components = (
{
name = serifLC;
transform = "{-0.8, 0, 0, -1, 73, 456}";
},
{
name = serifLC;
transform = "{0.9, 0, 0, -1, 155, 456}";
},
{
name = serifLC;
transform = "{-0.9, 0, 0, -1, 596, 456}";
},
{
name = serifLC;
transform = "{0.8, 0, 0, -1, 647, 456}";
}
);
layerId = "6D97EE47-94AA-478E-ABFB-936E6C32B491";
paths = (
{
closed = 1;
nodes = (
"242 -14 LINE",
"273 65 LINE",
"155 410 LINE",
"73 410 LINE",
"218 -14 LINE"
);
},
{
closed = 1;
nodes = (
"252 -14 LINE",
"386 334 LINE",
"393 378 LINE",
"362 407 LINE",
"235 76 LINE",
"234 -14 LINE"
);
},
{
closed = 1;
nodes = (
"155 410 LINE",
"155 456 LINE",
"73 456 LINE",
"73 410 LINE"
);
},
{
closed = 1;
nodes = (
"490 -14 LINE",
"514 87 LINE",
"397 407 LINE",
"362 407 LINE",
"351 310 LINE",
"468 -14 LINE"
);
},
{
closed = 1;
nodes = (
"502 -14 LINE",
"647 410 LINE",
"596 410 LINE",
"479 67 LINE",
"477 -14 LINE"
);
},
{
closed = 1;
nodes = (
"647 410 LINE",
"647 456 LINE",
"596 456 LINE",
"596 410 LINE"
);
}
);
width = 720;
}
);
leftKerningGroup = v;
leftMetricsKey = v;
rightKerningGroup = v;
rightMetricsKey = v;
unicode = 0077;
},
{
glyphname = x;
lastChange = "2023-05-25 21:32:22 +0000";
layers = (
{
components = (
{
name = serifLC;
transform = "{-0.8, 0, 0, 1, 73, 0}";
},
{
name = serifLC;
transform = "{0.75, 0, 0, 1, 126, 0}";
},
{
name = serifLC;
transform = "{-0.8, 0, 0, 1, 322, 0}";
},
{
name = serifLC;
transform = "{0.8, 0, 0, 1, 414, 0}";
},
{
name = serifLC;
transform = "{-0.8, 0, 0, -1, 78, 456}";
},
{
name = serifLC;
transform = "{0.8, 0, 0, -1, 169, 456}";
},
{
name = serifLC;
transform = "{-0.75, 0, 0, -1, 351, 456}";
},
{
name = serifLC;
transform = "{0.8, 0, 0, -1, 405, 456}";
}
);
layerId = "6D97EE47-94AA-478E-ABFB-936E6C32B491";
paths = (
{
closed = 1;
nodes = (
"417 0 LINE",
"417 43 LINE",
"169 411 LINE",
"169 456 LINE",
"74 456 LINE",
"74 413 LINE",
"321 45 LINE",
"321 0 LINE"
);
},
{
closed = 1;
nodes = (
"126 0 LINE",
"126 44 LINE",
"267 232 LINE",
"209 232 LINE",
"68 43 LINE",
"68 0 LINE"
);
},
{
closed = 1;
nodes = (
"274 232 LINE",
"412 416 LINE",
"412 456 LINE",
"351 456 LINE",
"351 411 LINE",
"217 232 LINE"
);
}
);
width = 487;
}
);
leftKerningGroup = x;
leftMetricsKey = v;
rightKerningGroup = x;
rightMetricsKey = v;
unicode = 0078;
},
{
glyphname = y;
lastChange = "2023-05-25 21:32:22 +0000";
layers = (
{
anchors = (
{
name = TOP;
position = "{268, 456}";
}
);
backgroundImage = {
imagePath = HP/LOWERCASE/y_1.jpg;
locked = "1";
transform = "{63.452, 0, 0, 63.452, -1562, -790}";
};
components = (
{
name = serifLC;
transform = "{-0.8, 0, 0, -1, 73, 456}";
},
{
name = serifLC;
transform = "{0.9, 0, 0, -1, 154, 456}";
},
{
name = serifLC;
transform = "{-0.9, 0, 0, -1, 389, 456}";
},
{
name = serifLC;
transform = "{0.8, 0, 0, -1, 440, 456}";
}
);
layerId = "6D97EE47-94AA-478E-ABFB-936E6C32B491";
paths = (
{
closed = 1;
nodes = (
"133 -264 OFFCURVE",
"150 -245 OFFCURVE",
"175 -208 CURVE SMOOTH",
"203 -167 OFFCURVE",
"242 -81 OFFCURVE",
"257 -43 CURVE SMOOTH",
"459 456 LINE",
"407 456 LINE",
"255 82 LINE",
"281 82 LINE",
"137 456 LINE",
"54 456 LINE",
"237 -19 LINE",
"229 18 LINE",
"206 -29 OFFCURVE",
"170 -92 OFFCURVE",
"143 -124 CURVE SMOOTH",
"118 -156 OFFCURVE",
"86 -183 OFFCURVE",
"52 -204 CURVE",
"109 -279 LINE"
);
},
{
closed = 1;
nodes = (
"154 408 LINE",
"154 456 LINE",
"73 456 LINE",
"73 408 LINE"
);
},
{
closed = 1;
nodes = (
"439 408 LINE",
"439 456 LINE",
"389 456 LINE",
"389 408 LINE"
);
}
);
width = 513;
}
);
leftKerningGroup = v;
leftMetricsKey = v;
rightKerningGroup = v;
rightMetricsKey = v;
unicode = 0079;
},
{
glyphname = z;
lastChange = "2023-05-25 21:32:22 +0000";
layers = (
{
anchors = (
{
name = TOP;
position = "{217, 456}";
}
);
backgroundImage = {
imagePath = HP/LOWERCASE/z_1.jpg;
locked = "1";
transform = "{65.93, 0, 0, 65.93, -870, -474}";
};
layerId = "6D97EE47-94AA-478E-ABFB-936E6C32B491";
paths = (
{
closed = 1;
nodes = (
"112 0 LINE",
"401 431 LINE",
"391 456 LINE",
"324 456 LINE",
"34 24 LINE",
"44 0 LINE"
);
},
{
closed = 1;
nodes = (
"388 0 LINE",
"388 50 LINE",
"68 50 LINE",
"68 0 LINE"
);
},
{
closed = 1;
nodes = (
"423 150 LINE",
"395 158 LINE",
"391 145 OFFCURVE",
"365 81 OFFCURVE",
"338 46 CURVE",
"318 7 LINE",
"388 0 LINE"
);
},
{
closed = 1;
nodes = (
"89 348 OFFCURVE",
"94 395 OFFCURVE",
"117 450 CURVE",
"56 456 LINE",
"50 302 LINE",
"79 300 LINE"
);
},
{
closed = 1;
nodes = (
"356 406 LINE",
"356 456 LINE",
"56 456 LINE",
"56 406 LINE"
);
}
);
width = 457;
}
);
leftKerningGroup = z;
rightKerningGroup = z;
unicode = 007A;
},
{
glyphname = c_t.dlig;
lastChange = "2023-05-25 21:32:22 +0000";
layers = (
{
background = {
paths = (
{
closed = 1;
nodes = (
"327 425 LINE",
"266 506 OFFCURVE",
"282 676 OFFCURVE",
"402 676 CURVE SMOOTH",
"461 676 OFFCURVE",
"494 642 OFFCURVE",
"510 594 CURVE",
"510 456 LINE",
"588 456 LINE",
"588 607 LINE",
"559 681 OFFCURVE",
"502 721 OFFCURVE",
"422 721 CURVE SMOOTH",
"241 721 OFFCURVE",
"217 509 OFFCURVE",
"299 411 CURVE"
);
},
{
closed = 1;
nodes = (
"532 628 LINE",
"467 658 LINE",
"496 635 OFFCURVE",
"512 608 OFFCURVE",
"510 551 CURVE"
);
}
);
};
components = (
{
name = c;
},
{
name = t;
transform = "{1, 0, 0, 1, 434, 0}";
}
);
layerId = "6D97EE47-94AA-478E-ABFB-936E6C32B491";
paths = (
{
closed = 1;
nodes = (
"327 425 LINE",
"266 506 OFFCURVE",
"282 676 OFFCURVE",
"402 676 CURVE SMOOTH",
"461 676 OFFCURVE",
"494 642 OFFCURVE",
"510 594 CURVE",
"510 456 LINE",
"588 456 LINE",
"588 607 LINE",
"559 681 OFFCURVE",
"502 721 OFFCURVE",
"422 721 CURVE SMOOTH",
"241 721 OFFCURVE",
"217 509 OFFCURVE",
"299 411 CURVE"
);
}
);
width = 743;
}
);
leftKerningGroup = o;
leftMetricsKey = o;
rightKerningGroup = t;
rightMetricsKey = t;
},
{
glyphname = s_p.dlig;
lastChange = "2023-05-25 21:32:22 +0000";
layers = (
{
background = {
paths = (
{
closed = 1;
nodes = (
"288 425 LINE",
"227 506 OFFCURVE",
"243 676 OFFCURVE",
"363 676 CURVE SMOOTH",
"422 676 OFFCURVE",
"455 642 OFFCURVE",
"471 594 CURVE",
"471 426 LINE",
"549 456 LINE",
"549 607 LINE",
"520 681 OFFCURVE",
"463 721 OFFCURVE",
"383 721 CURVE SMOOTH",
"202 721 OFFCURVE",
"178 509 OFFCURVE",
"260 411 CURVE"
);
},
{
closed = 1;
nodes = (
"493 628 LINE",
"428 658 LINE",
"457 635 OFFCURVE",
"473 608 OFFCURVE",
"471 551 CURVE"
);
}
);
};
components = (
{
name = s;
},
{
name = p;
transform = "{1, 0, 0, 1, 361, 0}";
}
);
layerId = "6D97EE47-94AA-478E-ABFB-936E6C32B491";
paths = (
{
closed = 1;
nodes = (
"288 425 LINE",
"227 506 OFFCURVE",
"243 676 OFFCURVE",
"363 676 CURVE SMOOTH",
"422 676 OFFCURVE",
"455 642 OFFCURVE",
"471 594 CURVE",
"471 426 LINE",
"549 456 LINE",
"549 607 LINE",
"520 681 OFFCURVE",
"463 721 OFFCURVE",
"383 721 CURVE SMOOTH",
"202 721 OFFCURVE",
"178 509 OFFCURVE",
"260 411 CURVE"
);
}
);
width = 890;
}
);
leftKerningGroup = s;
leftMetricsKey = s;
rightKerningGroup = o;
rightMetricsKey = o;
},
{
glyphname = s_t.dlig;
lastChange = "2023-05-25 21:32:22 +0000";
layers = (
{
background = {
paths = (
{
closed = 1;
nodes = (
"601 -8 OFFCURVE",
"664 24 OFFCURVE",
"684 41 CURVE",
"670 66 LINE",
"651 56 OFFCURVE",
"589 39 OFFCURVE",
"564 56 CURVE SMOOTH",
"545 68 OFFCURVE",
"543 85 OFFCURVE",
"543 127 CURVE SMOOTH",
"543 400 LINE",
"682 400 LINE",
"682 456 LINE",
"543 456 LINE",
"497 511 LINE",
"471 481 OFFCURVE",
"438 448 OFFCURVE",
"409 431 CURVE",
"409 400 LINE",
"462 400 LINE",
"462 122 LINE SMOOTH",
"462 72 OFFCURVE",
"466 47 OFFCURVE",
"478 29 CURVE SMOOTH",
"492 6 OFFCURVE",
"517 -8 OFFCURVE",
"547 -8 CURVE SMOOTH"
);
}
);
};
components = (
{
name = s;
}
);
layerId = "6D97EE47-94AA-478E-ABFB-936E6C32B491";
paths = (
{
closed = 1;
nodes = (
"282 425 LINE",
"221 506 OFFCURVE",
"237 676 OFFCURVE",
"357 676 CURVE SMOOTH",
"416 676 OFFCURVE",
"449 642 OFFCURVE",
"465 594 CURVE",
"465 456 LINE",
"543 456 LINE",
"543 607 LINE",
"514 681 OFFCURVE",
"457 721 OFFCURVE",
"377 721 CURVE SMOOTH",
"196 721 OFFCURVE",
"172 509 OFFCURVE",
"254 411 CURVE"
);
},
{
closed = 1;
nodes = (
"610 -8 OFFCURVE",
"650 14 OFFCURVE",
"684 41 CURVE",
"670 66 LINE",
"651 56 OFFCURVE",
"589 39 OFFCURVE",
"564 56 CURVE SMOOTH",
"545 68 OFFCURVE",
"543 85 OFFCURVE",
"543 127 CURVE SMOOTH",
"543 400 LINE",
"682 400 LINE",
"682 456 LINE",
"543 456 LINE",
"543 533 LINE",
"523 542 LINE",
"495 507 OFFCURVE",
"448 454 OFFCURVE",
"409 431 CURVE",
"409 400 LINE",
"462 400 LINE",
"462 122 LINE SMOOTH",
"462 72 OFFCURVE",
"466 47 OFFCURVE",
"478 29 CURVE SMOOTH",
"492 6 OFFCURVE",
"523 -8 OFFCURVE",
"553 -8 CURVE SMOOTH"
);
}
);
width = 698;
}
);
leftKerningGroup = s;
leftMetricsKey = s;
rightKerningGroup = t;
rightMetricsKey = t;
},
{
glyphname = T_T.liga;
lastChange = "2023-05-25 21:32:22 +0000";
layers = (
{
components = (
{
name = serifUC;
transform = "{-1, 0, 0, 1, 275, 0}";
},
{
name = serifUC;
transform = "{1, 0, 0, 1, 363, 0}";
},
{
name = serifUC;
transform = "{-1, 0, 0, 1, 774, 0}";
},
{
name = serifUC;
transform = "{1, 0, 0, 1, 861, 0}";
}
);
layerId = "6D97EE47-94AA-478E-ABFB-936E6C32B491";
paths = (
{
closed = 1;
nodes = (
"363 0 LINE",
"363 707 LINE",
"275 707 LINE",
"275 0 LINE"
);
},
{
closed = 1;
nodes = (
"42 531 LINE",
"50 586 OFFCURVE",
"59 643 OFFCURVE",
"82 707 CURVE",
"10 707 LINE",
"10 531 LINE"
);
},
{
closed = 1;
nodes = (
"861 0 LINE",
"861 707 LINE",
"774 707 LINE",
"774 0 LINE"
);
},
{
closed = 1;
nodes = (
"580 531 LINE",
"588 586 OFFCURVE",
"597 643 OFFCURVE",
"620 707 CURVE",
"548 707 LINE",
"548 531 LINE"
);
},
{
closed = 1;
nodes = (
"1101 656 LINE",
"1101 707 LINE",
"35 707 LINE",
"35 656 LINE"
);
},
{
closed = 1;
nodes = (
"1129 707 LINE",
"1058 707 LINE",
"1075 639 OFFCURVE",
"1073 584 OFFCURVE",
"1072 531 CURVE",
"1103 528 LINE"
);
}
);
width = 1139;
}
);
leftKerningGroup = T;
leftMetricsKey = T;
rightKerningGroup = T;
rightMetricsKey = T;
},
{
glyphname = T_h.liga;
lastChange = "2023-05-25 21:32:22 +0000";
layers = (
{
background = {
components = (
{
name = h;
transform = "{1, 0, 0, 1, 493, 0}";
},
{
name = h;
transform = "{1, 0, 0, 1, 493, 1000}";
}
);
paths = (
{
closed = 1;
nodes = (
"2181 0 LINE",
"2181 37 OFFCURVE",
"2181 215 OFFCURVE",
"2181 314 CURVE SMOOTH",
"2181 374 OFFCURVE",
"2168 419 OFFCURVE",
"2117 447 CURVE SMOOTH",
"2098 458 OFFCURVE",
"2076 464 OFFCURVE",
"2052 464 CURVE SMOOTH",
"1980 464 OFFCURVE",
"1892 391 OFFCURVE",
"1854 364 CURVE",
"1870 332 LINE",
"1899 354 OFFCURVE",
"1956 402 OFFCURVE",
"2004 402 CURVE SMOOTH",
"2026 402 OFFCURVE",
"2046 398 OFFCURVE",
"2060 387 CURVE SMOOTH",
"2098 358 OFFCURVE",
"2100 327 OFFCURVE",
"2100 276 CURVE SMOOTH",
"2100 203 OFFCURVE",
"2100 44 OFFCURVE",
"2100 0 CURVE"
);
},
{
closed = 1;
nodes = (
"1242 531 LINE",
"1250 586 OFFCURVE",
"1259 643 OFFCURVE",
"1282 707 CURVE",
"1210 707 LINE",
"1210 531 LINE"
);
},
{
closed = 1;
nodes = (
"1563 0 LINE",
"1563 707 LINE",
"1475 707 LINE",
"1475 0 LINE"
);
},
{
closed = 1;
nodes = (
"1853 656 LINE",
"1853 707 LINE",
"1235 707 LINE",
"1235 656 LINE"
);
},
{
closed = 1;
nodes = (
"1881 0 LINE",
"1881 789 LINE",
"1800 765 LINE",
"1800 0 LINE"
);
},
{
closed = 1;
nodes = (
"681 1000 LINE",
"681 1752 LINE",
"661 1766 LINE",
"600 1715 LINE",
"600 1000 LINE"
);
}
);
};
components = (
{
name = serifUC;
transform = "{-1, 0, 0, 1, 275, 0}";
},
{
name = serifUC;
transform = "{1, 0, 0, 1, 363, 0}";
},
{
name = serifLC;
transform = "{-1, 0, 0, 1, 600, 0}";
},
{
name = serifLC;
transform = "{1, 0, 0, 1, 681, 0}";
},
{
name = serifLC;
transform = "{-1, 0, 0, 1, 900, 0}";
},
{
name = serifLC;
transform = "{1, 0, 0, 1, 981, 0}";
}
);
layerId = "6D97EE47-94AA-478E-ABFB-936E6C32B491";
paths = (
{
closed = 1;
nodes = (
"42 531 LINE",
"50 586 OFFCURVE",
"59 643 OFFCURVE",
"82 707 CURVE",
"10 707 LINE",
"10 531 LINE"
);
},
{
closed = 1;
nodes = (
"363 0 LINE",
"363 707 LINE",
"275 707 LINE",
"275 0 LINE"
);
},
{
closed = 1;
nodes = (
"653 656 LINE",
"653 707 LINE",
"35 707 LINE",
"35 656 LINE"
);
},
{
closed = 1;
nodes = (
"681 0 LINE",
"681 789 LINE",
"600 765 LINE",
"600 0 LINE"
);
},
{
closed = 1;
nodes = (
"981 0 LINE",
"981 314 LINE SMOOTH",
"981 374 OFFCURVE",
"964 409 OFFCURVE",
"940 431 CURVE SMOOTH",
"909 459 OFFCURVE",
"876 464 OFFCURVE",
"852 464 CURVE SMOOTH",
"779 464 OFFCURVE",
"692 391 OFFCURVE",
"653 364 CURVE",
"670 332 LINE",
"698 354 OFFCURVE",
"751 402 OFFCURVE",
"815 402 CURVE SMOOTH",
"845 402 OFFCURVE",
"871 390 OFFCURVE",
"886 366 CURVE SMOOTH",
"899 344 OFFCURVE",
"900 322 OFFCURVE",
"900 289 CURVE SMOOTH",
"900 0 LINE"
);
}
);
width = 1082;
}
);
leftKerningGroup = T;
leftMetricsKey = T;
rightKerningGroup = h;
rightMetricsKey = h;
},
{
glyphname = f_b.liga;
lastChange = "2023-05-25 21:32:22 +0000";
layers = (
{
background = {
components = (
{
alignment = -1;
name = b;
transform = "{1, 0, 0, 1, 317, 0}";
}
);
paths = (
{
closed = 1;
nodes = (
"1493 23 LINE",
"1493 783 LINE",
"1473 797 LINE",
"1412 768 LINE",
"1412 23 LINE"
);
},
{
closed = 1;
nodes = (
"1454 0 OFFCURVE",
"1501 -11 OFFCURVE",
"1546 -11 CURVE SMOOTH",
"1700 -11 OFFCURVE",
"1811 109 OFFCURVE",
"1811 261 CURVE SMOOTH",
"1811 371 OFFCURVE",
"1744 461 OFFCURVE",
"1639 461 CURVE SMOOTH",
"1586 461 OFFCURVE",
"1529 437 OFFCURVE",
"1482 383 CURVE",
"1482 342 LINE",
"1513 375 OFFCURVE",
"1554 391 OFFCURVE",
"1593 391 CURVE SMOOTH",
"1684 391 OFFCURVE",
"1736 314 OFFCURVE",
"1736 213 CURVE SMOOTH",
"1736 113 OFFCURVE",
"1680 41 OFFCURVE",
"1587 41 CURVE SMOOTH",
"1542 41 OFFCURVE",
"1501 62 OFFCURVE",
"1481 97 CURVE",
"1412 23 LINE"
);
},
{
closed = 1;
nodes = (
"1168 400 LINE",
"1314 400 LINE",
"1314 456 LINE",
"1166 456 LINE",
"1167 504 OFFCURVE",
"1157 636 OFFCURVE",
"1205 689 CURVE SMOOTH",
"1228 715 OFFCURVE",
"1259 727 OFFCURVE",
"1292 727 CURVE SMOOTH",
"1339 727 OFFCURVE",
"1388 701 OFFCURVE",
"1418 654 CURVE",
"1454 742 LINE",
"1419 777 OFFCURVE",
"1372 797 OFFCURVE",
"1323 797 CURVE SMOOTH",
"1272 797 OFFCURVE",
"1217 776 OFFCURVE",
"1169 729 CURVE SMOOTH",
"1090 653 OFFCURVE",
"1087 548 OFFCURVE",
"1087 456 CURVE",
"1037 456 LINE",
"1026 400 LINE",
"1087 400 LINE",
"1087 0 LINE",
"1168 0 LINE"
);
}
);
};
components = (
{
alignment = -1;
name = ligature_f_1;
transform = "{1, 0, 0, 1, 28, 0}";
},
{
name = f_bar_left;
transform = "{1, 0, 0, 1, 42, 0}";
},
{
name = f_bar_right;
transform = "{1, 0, 0, 1, 178, 0}";
}
);
layerId = "6D97EE47-94AA-478E-ABFB-936E6C32B491";
paths = (
{
closed = 1;
nodes = (
"700 -8 OFFCURVE",
"811 111 OFFCURVE",
"811 261 CURVE SMOOTH",
"811 365 OFFCURVE",
"744 464 OFFCURVE",
"648 464 CURVE SMOOTH",
"593 464 OFFCURVE",
"532 428 OFFCURVE",
"482 372 CURVE",
"482 331 LINE",
"516 366 OFFCURVE",
"561 395 OFFCURVE",
"605 395 CURVE SMOOTH",
"681 395 OFFCURVE",
"736 308 OFFCURVE",
"736 215 CURVE SMOOTH",
"736 117 OFFCURVE",
"679 42 OFFCURVE",
"588 42 CURVE SMOOTH",
"543 42 OFFCURVE",
"502 64 OFFCURVE",
"482 99 CURVE",
"412 23 LINE",
"459 -2 OFFCURVE",
"498 -8 OFFCURVE",
"546 -8 CURVE SMOOTH"
);
},
{
closed = 1;
nodes = (
"493 23 LINE",
"493 775 LINE",
"473 789 LINE",
"412 738 LINE",
"412 23 LINE"
);
}
);
width = 835;
}
);
leftKerningGroup = f;
leftMetricsKey = f;
rightKerningGroup = o;
rightMetricsKey = b;
},
{
glyphname = f_f.liga;
lastChange = "2023-05-25 21:32:22 +0000";
layers = (
{
background = {
components = (
{
alignment = -1;
name = ligature_f_2;
transform = "{1, 0, 0, 1, 908, 0}";
},
{
alignment = -1;
name = ligature_f_0;
transform = "{1, 0, 0, 1, 1233, 0}";
},
{
alignment = -1;
name = ligature_f_0;
transform = "{1, 0, 0, 1, 333, 0}";
},
{
alignment = -1;
name = ligature_f_1;
transform = "{1, 0, 0, 1, 28, 0}";
}
);
paths = (
{
closed = 1;
nodes = (
"2301 404 LINE",
"2301 456 LINE",
"2155 456 LINE",
"2155 404 LINE"
);
},
{
closed = 1;
nodes = (
"2068 0 LINE",
"2068 404 LINE",
"2214 404 LINE",
"2214 440 LINE",
"2192 456 LINE",
"2066 456 LINE",
"2067 504 OFFCURVE",
"2056 628 OFFCURVE",
"2105 680 CURVE SMOOTH",
"2128 704 OFFCURVE",
"2162 718 OFFCURVE",
"2199 718 CURVE SMOOTH",
"2254 718 OFFCURVE",
"2316 687 OFFCURVE",
"2356 618 CURVE",
"2397 711 LINE",
"2346 758 OFFCURVE",
"2284 783 OFFCURVE",
"2224 783 CURVE SMOOTH",
"2169 783 OFFCURVE",
"2115 763 OFFCURVE",
"2069 720 CURVE SMOOTH",
"1989 645 OFFCURVE",
"1987 548 OFFCURVE",
"1987 456 CURVE",
"1937 456 LINE",
"1926 400 LINE",
"1987 400 LINE",
"1987 0 LINE"
);
},
{
closed = 1;
nodes = (
"2393 400 LINE",
"2539 400 LINE",
"2539 456 LINE",
"2391 456 LINE",
"2392 504 OFFCURVE",
"2382 637 OFFCURVE",
"2430 690 CURVE SMOOTH",
"2453 716 OFFCURVE",
"2484 728 OFFCURVE",
"2515 728 CURVE SMOOTH",
"2549 728 OFFCURVE",
"2583 713 OFFCURVE",
"2609 685 CURVE",
"2679 753 LINE",
"2652 780 OFFCURVE",
"2606 797 OFFCURVE",
"2556 797 CURVE SMOOTH",
"2502 797 OFFCURVE",
"2444 778 OFFCURVE",
"2394 730 CURVE SMOOTH",
"2315 654 OFFCURVE",
"2312 548 OFFCURVE",
"2312 456 CURVE",
"2262 456 LINE",
"2251 404 LINE",
"2312 404 LINE",
"2312 0 LINE",
"2393 0 LINE"
);
},
{
closed = 1;
nodes = (
"926 400 LINE",
"997 400 LINE",
"997 456 LINE",
"937 456 LINE"
);
},
{
closed = 1;
nodes = (
"1058 404 LINE",
"1322 404 LINE",
"1322 456 LINE",
"1058 456 LINE"
);
},
{
closed = 1;
nodes = (
"1383 400 LINE",
"1539 400 LINE",
"1539 456 LINE",
"1383 456 LINE"
);
},
{
closed = 1;
nodes = (
"46 400 LINE",
"117 400 LINE",
"117 456 LINE",
"57 456 LINE"
);
},
{
closed = 1;
nodes = (
"178 404 LINE",
"422 404 LINE",
"422 456 LINE",
"178 456 LINE"
);
},
{
closed = 1;
nodes = (
"483 400 LINE",
"639 400 LINE",
"639 456 LINE",
"483 456 LINE"
);
}
);
};
components = (
{
alignment = -1;
name = ligature_f_0;
transform = "{1, 0, 0, 1, 333, 0}";
},
{
name = ligature_f_2;
transform = "{1, 0, 0, 1, 28, 0}";
},
{
name = f_bar_left;
transform = "{1, 0, 0, 1, 42, 0}";
},
{
name = f_bar_right;
transform = "{1, 0, 0, 1, 483, 0}";
}
);
layerId = "6D97EE47-94AA-478E-ABFB-936E6C32B491";
paths = (
{
closed = 1;
nodes = (
"178 404 LINE",
"422 404 LINE",
"422 456 LINE",
"178 456 LINE"
);
}
);
width = 669;
}
);
leftKerningGroup = f;
leftMetricsKey = f;
rightKerningGroup = f;
rightMetricsKey = f;
},
{
glyphname = f_f_b.liga;
lastChange = "2023-05-25 21:32:22 +0000";
layers = (
{
background = {
components = (
{
alignment = -1;
name = b;
transform = "{1, 0, 0, 1, 622, 0}";
}
);
paths = (
{
closed = 1;
nodes = (
"1548 0 LINE",
"1548 404 LINE",
"1694 404 LINE",
"1694 440 LINE",
"1672 456 LINE",
"1546 456 LINE",
"1547 504 OFFCURVE",
"1536 628 OFFCURVE",
"1585 680 CURVE SMOOTH",
"1608 704 OFFCURVE",
"1642 718 OFFCURVE",
"1679 718 CURVE SMOOTH",
"1734 718 OFFCURVE",
"1796 687 OFFCURVE",
"1836 618 CURVE",
"1877 711 LINE",
"1826 758 OFFCURVE",
"1764 783 OFFCURVE",
"1704 783 CURVE SMOOTH",
"1649 783 OFFCURVE",
"1595 763 OFFCURVE",
"1549 720 CURVE SMOOTH",
"1469 645 OFFCURVE",
"1467 548 OFFCURVE",
"1467 456 CURVE",
"1417 456 LINE",
"1406 400 LINE",
"1467 400 LINE",
"1467 0 LINE"
);
},
{
closed = 1;
nodes = (
"1791 404 LINE",
"1791 456 LINE",
"1635 456 LINE",
"1635 404 LINE"
);
},
{
closed = 1;
nodes = (
"1873 0 LINE",
"1873 400 LINE",
"2019 400 LINE",
"2019 456 LINE",
"1871 456 LINE",
"1872 504 OFFCURVE",
"1862 636 OFFCURVE",
"1910 689 CURVE SMOOTH",
"1933 715 OFFCURVE",
"1964 727 OFFCURVE",
"1997 727 CURVE SMOOTH",
"2044 727 OFFCURVE",
"2093 701 OFFCURVE",
"2123 654 CURVE",
"2159 742 LINE",
"2124 777 OFFCURVE",
"2077 797 OFFCURVE",
"2028 797 CURVE SMOOTH",
"1977 797 OFFCURVE",
"1922 776 OFFCURVE",
"1874 729 CURVE SMOOTH",
"1795 653 OFFCURVE",
"1792 548 OFFCURVE",
"1792 456 CURVE",
"1742 456 LINE",
"1731 404 LINE",
"1792 404 LINE",
"1792 0 LINE"
);
},
{
closed = 1;
nodes = (
"2198 23 LINE",
"2198 783 LINE",
"2178 797 LINE",
"2117 768 LINE",
"2117 23 LINE"
);
},
{
closed = 1;
nodes = (
"2159 0 OFFCURVE",
"2206 -11 OFFCURVE",
"2251 -11 CURVE SMOOTH",
"2307 -11 OFFCURVE",
"2362 6 OFFCURVE",
"2406 37 CURVE SMOOTH",
"2469 82 OFFCURVE",
"2516 170 OFFCURVE",
"2516 261 CURVE SMOOTH",
"2516 298 OFFCURVE",
"2508 335 OFFCURVE",
"2490 371 CURVE SMOOTH",
"2461 428 OFFCURVE",
"2405 461 OFFCURVE",
"2344 461 CURVE SMOOTH",
"2291 461 OFFCURVE",
"2234 437 OFFCURVE",
"2187 383 CURVE",
"2187 342 LINE",
"2253 412 OFFCURVE",
"2366 408 OFFCURVE",
"2414 325 CURVE SMOOTH",
"2431 296 OFFCURVE",
"2441 255 OFFCURVE",
"2441 213 CURVE SMOOTH",
"2441 155 OFFCURVE",
"2422 96 OFFCURVE",
"2377 67 CURVE SMOOTH",
"2349 49 OFFCURVE",
"2320 41 OFFCURVE",
"2292 41 CURVE SMOOTH",
"2247 41 OFFCURVE",
"2206 62 OFFCURVE",
"2186 97 CURVE",
"2117 23 LINE"
);
}
);
};
components = (
{
alignment = -1;
name = ligature_f_1;
transform = "{1, 0, 0, 1, 333, 0}";
},
{
alignment = -1;
name = ligature_f_2;
transform = "{1, 0, 0, 1, 28, 0}";
},
{
name = f_bar_left;
transform = "{1, 0, 0, 1, 42, 0}";
},
{
name = f_bar_right;
transform = "{1, 0, 0, 1, 483, 0}";
}
);
layerId = "6D97EE47-94AA-478E-ABFB-936E6C32B491";
paths = (
{
closed = 1;
nodes = (
"178 404 LINE",
"422 404 LINE",
"422 456 LINE",
"178 456 LINE"
);
},
{
closed = 1;
nodes = (
"1005 -8 OFFCURVE",
"1116 111 OFFCURVE",
"1116 261 CURVE SMOOTH",
"1116 365 OFFCURVE",
"1049 464 OFFCURVE",
"953 464 CURVE SMOOTH",
"898 464 OFFCURVE",
"837 428 OFFCURVE",
"787 372 CURVE",
"787 331 LINE",
"821 366 OFFCURVE",
"866 395 OFFCURVE",
"910 395 CURVE SMOOTH",
"986 395 OFFCURVE",
"1041 308 OFFCURVE",
"1041 215 CURVE SMOOTH",
"1041 117 OFFCURVE",
"984 42 OFFCURVE",
"893 42 CURVE SMOOTH",
"848 42 OFFCURVE",
"807 64 OFFCURVE",
"787 99 CURVE",
"717 23 LINE",
"764 -2 OFFCURVE",
"803 -8 OFFCURVE",
"851 -8 CURVE SMOOTH"
);
},
{
closed = 1;
nodes = (
"798 23 LINE",
"798 775 LINE",
"778 789 LINE",
"717 738 LINE",
"717 23 LINE"
);
}
);
width = 1140;
}
);
leftKerningGroup = f;
leftMetricsKey = f;
rightKerningGroup = o;
rightMetricsKey = b;
},
{
glyphname = f_f_f_l.liga;
lastChange = "2023-05-25 21:32:22 +0000";
layers = (
{
anchors = (
{
name = BOTTOM;
position = "{1062, 0}";
},
{
name = TOP;
position = "{1033, 739}";
}
);
background = {
components = (
{
alignment = -1;
name = l;
transform = "{1, 0, 0, 1, 915, 0}";
}
);
paths = (
{
closed = 1;
nodes = (
"1953 0 LINE",
"1953 404 LINE",
"2099 404 LINE",
"2099 440 LINE",
"2077 456 LINE",
"1951 456 LINE",
"1952 504 OFFCURVE",
"1941 628 OFFCURVE",
"1990 680 CURVE SMOOTH",
"2013 704 OFFCURVE",
"2047 718 OFFCURVE",
"2084 718 CURVE SMOOTH",
"2139 718 OFFCURVE",
"2201 687 OFFCURVE",
"2241 618 CURVE",
"2282 711 LINE",
"2231 758 OFFCURVE",
"2169 783 OFFCURVE",
"2109 783 CURVE SMOOTH",
"2054 783 OFFCURVE",
"2000 763 OFFCURVE",
"1954 720 CURVE SMOOTH",
"1874 645 OFFCURVE",
"1872 548 OFFCURVE",
"1872 456 CURVE",
"1822 456 LINE",
"1811 404 LINE",
"1872 404 LINE",
"1872 0 LINE"
);
},
{
closed = 1;
nodes = (
"1628 0 LINE",
"1628 404 LINE",
"1774 404 LINE",
"1774 440 LINE",
"1752 456 LINE",
"1626 456 LINE",
"1627 504 OFFCURVE",
"1617 612 OFFCURVE",
"1665 665 CURVE SMOOTH",
"1690 693 OFFCURVE",
"1728 711 OFFCURVE",
"1768 711 CURVE SMOOTH",
"1818 711 OFFCURVE",
"1872 683 OFFCURVE",
"1912 608 CURVE",
"1957 699 LINE",
"1907 747 OFFCURVE",
"1848 773 OFFCURVE",
"1788 773 CURVE SMOOTH",
"1732 773 OFFCURVE",
"1676 751 OFFCURVE",
"1629 705 CURVE SMOOTH",
"1550 629 OFFCURVE",
"1547 548 OFFCURVE",
"1547 456 CURVE",
"1497 456 LINE",
"1486 400 LINE",
"1547 400 LINE",
"1547 0 LINE"
);
},
{
closed = 1;
nodes = (
"1872 404 LINE",
"1872 456 LINE",
"1716 456 LINE",
"1716 404 LINE"
);
},
{
closed = 1;
nodes = (
"2174 404 LINE",
"2174 456 LINE",
"2048 456 LINE",
"2048 404 LINE"
);
},
{
closed = 1;
nodes = (
"2278 0 LINE",
"2278 400 LINE",
"2424 400 LINE",
"2424 456 LINE",
"2276 456 LINE",
"2277 504 OFFCURVE",
"2267 636 OFFCURVE",
"2315 689 CURVE SMOOTH",
"2338 715 OFFCURVE",
"2369 727 OFFCURVE",
"2402 727 CURVE SMOOTH",
"2449 727 OFFCURVE",
"2498 701 OFFCURVE",
"2528 654 CURVE",
"2564 742 LINE",
"2529 777 OFFCURVE",
"2482 797 OFFCURVE",
"2433 797 CURVE SMOOTH",
"2382 797 OFFCURVE",
"2327 776 OFFCURVE",
"2279 729 CURVE SMOOTH",
"2200 653 OFFCURVE",
"2197 548 OFFCURVE",
"2197 456 CURVE",
"2147 456 LINE",
"2136 404 LINE",
"2197 404 LINE",
"2197 0 LINE"
);
},
{
closed = 1;
nodes = (
"2603 0 LINE",
"2603 783 LINE",
"2583 797 LINE",
"2522 768 LINE",
"2522 0 LINE"
);
}
);
};
components = (
{
alignment = -1;
name = ligature_f_1;
transform = "{1, 0, 0, 1, 638, 0}";
},
{
alignment = -1;
name = ligature_f_2;
transform = "{1, 0, 0, 1, 333, 0}";
},
{
alignment = -1;
name = serifLC;
transform = "{-1, 0, 0, 1, 1022, 0}";
},
{
alignment = -1;
name = serifLC;
transform = "{1, 0, 0, 1, 1103, 0}";
},
{
alignment = -1;
name = ligature_f_3;
transform = "{1, 0, 0, 1, 28, 0}";
},
{
name = f_bar_left;
transform = "{1, 0, 0, 1, 42, 0}";
},
{
name = f_bar_right;
transform = "{1, 0, 0, 1, 788, 0}";
}
);
layerId = "6D97EE47-94AA-478E-ABFB-936E6C32B491";
paths = (
{
closed = 1;
nodes = (
"178 404 LINE",
"727 404 LINE",
"727 456 LINE",
"178 456 LINE"
);
},
{
closed = 1;
nodes = (
"1103 0 LINE",
"1103 775 LINE",
"1083 789 LINE",
"1022 738 LINE",
"1022 0 LINE"
);
}
);
width = 1204;
}
);
leftKerningGroup = f;
leftMetricsKey = f;
rightKerningGroup = n;
rightMetricsKey = l;
},
{
glyphname = f_f_h.liga;
lastChange = "2023-05-25 21:32:22 +0000";
layers = (
{
background = {
components = (
{
alignment = -1;
name = h;
transform = "{1, 0, 0, 1, 610, 0}";
}
);
paths = (
{
closed = 1;
nodes = (
"1648 0 LINE",
"1648 404 LINE",
"1794 404 LINE",
"1794 440 LINE",
"1772 456 LINE",
"1646 456 LINE",
"1647 504 OFFCURVE",
"1636 628 OFFCURVE",
"1685 680 CURVE SMOOTH",
"1708 704 OFFCURVE",
"1742 718 OFFCURVE",
"1779 718 CURVE SMOOTH",
"1834 718 OFFCURVE",
"1896 687 OFFCURVE",
"1936 618 CURVE",
"1977 711 LINE",
"1926 758 OFFCURVE",
"1864 783 OFFCURVE",
"1804 783 CURVE SMOOTH",
"1749 783 OFFCURVE",
"1695 763 OFFCURVE",
"1649 720 CURVE SMOOTH",
"1569 645 OFFCURVE",
"1567 548 OFFCURVE",
"1567 456 CURVE",
"1517 456 LINE",
"1506 400 LINE",
"1567 400 LINE",
"1567 0 LINE"
);
},
{
closed = 1;
nodes = (
"1891 404 LINE",
"1891 456 LINE",
"1735 456 LINE",
"1735 404 LINE"
);
},
{
closed = 1;
nodes = (
"1973 0 LINE",
"1973 400 LINE",
"2119 400 LINE",
"2119 456 LINE",
"1971 456 LINE",
"1972 504 OFFCURVE",
"1962 636 OFFCURVE",
"2010 689 CURVE SMOOTH",
"2033 715 OFFCURVE",
"2064 727 OFFCURVE",
"2097 727 CURVE SMOOTH",
"2144 727 OFFCURVE",
"2193 701 OFFCURVE",
"2223 654 CURVE",
"2259 742 LINE",
"2224 777 OFFCURVE",
"2177 797 OFFCURVE",
"2128 797 CURVE SMOOTH",
"2077 797 OFFCURVE",
"2022 776 OFFCURVE",
"1974 729 CURVE SMOOTH",
"1895 653 OFFCURVE",
"1892 548 OFFCURVE",
"1892 456 CURVE",
"1842 456 LINE",
"1831 404 LINE",
"1892 404 LINE",
"1892 0 LINE"
);
},
{
closed = 1;
nodes = (
"2298 0 LINE",
"2298 783 LINE",
"2278 797 LINE",
"2217 768 LINE",
"2217 0 LINE"
);
},
{
closed = 1;
nodes = (
"2598 0 LINE",
"2598 37 OFFCURVE",
"2598 215 OFFCURVE",
"2598 314 CURVE SMOOTH",
"2598 374 OFFCURVE",
"2585 419 OFFCURVE",
"2534 447 CURVE SMOOTH",
"2515 458 OFFCURVE",
"2493 464 OFFCURVE",
"2469 464 CURVE SMOOTH",
"2397 464 OFFCURVE",
"2309 391 OFFCURVE",
"2271 364 CURVE",
"2287 332 LINE",
"2316 354 OFFCURVE",
"2373 402 OFFCURVE",
"2421 402 CURVE SMOOTH",
"2443 402 OFFCURVE",
"2463 398 OFFCURVE",
"2477 387 CURVE SMOOTH",
"2515 358 OFFCURVE",
"2517 327 OFFCURVE",
"2517 276 CURVE SMOOTH",
"2517 203 OFFCURVE",
"2517 44 OFFCURVE",
"2517 0 CURVE"
);
}
);
};
components = (
{
alignment = -1;
name = serifLC;
transform = "{-1, 0, 0, 1, 717, 0}";
},
{
alignment = -1;
name = serifLC;
transform = "{1, 0, 0, 1, 798, 0}";
},
{
alignment = -1;
name = serifLC;
transform = "{-1, 0, 0, 1, 1017, 0}";
},
{
alignment = -1;
name = serifLC;
transform = "{1, 0, 0, 1, 1098, 0}";
},
{
alignment = -1;
name = ligature_f_1;
transform = "{1, 0, 0, 1, 333, 0}";
},
{
alignment = -1;
name = ligature_f_2;
transform = "{1, 0, 0, 1, 28, 0}";
},
{
name = f_bar_left;
transform = "{1, 0, 0, 1, 42, 0}";
},
{
name = f_bar_right;
transform = "{1, 0, 0, 1, 483, 0}";
}
);
layerId = "6D97EE47-94AA-478E-ABFB-936E6C32B491";
paths = (
{
closed = 1;
nodes = (
"178 404 LINE",
"422 404 LINE",
"422 456 LINE",
"178 456 LINE"
);
},
{
closed = 1;
nodes = (
"798 0 LINE",
"798 775 LINE",
"778 789 LINE",
"717 738 LINE",
"717 0 LINE"
);
},
{
closed = 1;
nodes = (
"1098 0 LINE",
"1098 314 LINE SMOOTH",
"1098 374 OFFCURVE",
"1081 409 OFFCURVE",
"1057 431 CURVE SMOOTH",
"1026 459 OFFCURVE",
"993 464 OFFCURVE",
"969 464 CURVE SMOOTH",
"896 464 OFFCURVE",
"809 391 OFFCURVE",
"770 364 CURVE",
"787 332 LINE",
"815 354 OFFCURVE",
"868 402 OFFCURVE",
"932 402 CURVE SMOOTH",
"962 402 OFFCURVE",
"988 390 OFFCURVE",
"1003 366 CURVE SMOOTH",
"1016 344 OFFCURVE",
"1017 322 OFFCURVE",
"1017 289 CURVE SMOOTH",
"1017 0 LINE"
);
}
);
width = 1199;
}
);
leftKerningGroup = f;
leftMetricsKey = f;
rightKerningGroup = n;
rightMetricsKey = h;
},
{
glyphname = f_f_i.liga;
lastChange = "2023-05-25 21:32:22 +0000";
layers = (
{
background = {
components = (
{
name = idotless;
transform = "{1, 0, 0, 1, 610, 0}";
},
{
alignment = -1;
name = ligature_f_i;
transform = "{1, 0, 0, 1, 333, 800}";
},
{
alignment = -1;
name = ligature_f_2;
transform = "{1, 0, 0, 1, 28, 800}";
},
{
name = serifLC;
transform = "{-1, 0, 0, 1, 717, 800}";
},
{
name = serifLC;
transform = "{1, 0, 0, 1, 798, 800}";
},
{
name = f_bar_left;
transform = "{1, 0, 0, 1, 42, 800}";
}
);
paths = (
{
closed = 1;
nodes = (
"1248 0 LINE",
"1248 404 LINE",
"1394 404 LINE",
"1394 440 LINE",
"1372 456 LINE",
"1246 456 LINE",
"1247 504 OFFCURVE",
"1236 628 OFFCURVE",
"1285 680 CURVE SMOOTH",
"1308 704 OFFCURVE",
"1342 718 OFFCURVE",
"1379 718 CURVE SMOOTH",
"1434 718 OFFCURVE",
"1496 687 OFFCURVE",
"1536 618 CURVE",
"1577 711 LINE",
"1526 758 OFFCURVE",
"1464 783 OFFCURVE",
"1404 783 CURVE SMOOTH",
"1349 783 OFFCURVE",
"1295 763 OFFCURVE",
"1249 720 CURVE SMOOTH",
"1169 645 OFFCURVE",
"1167 548 OFFCURVE",
"1167 456 CURVE",
"1117 456 LINE",
"1106 400 LINE",
"1167 400 LINE",
"1167 0 LINE"
);
},
{
closed = 1;
nodes = (
"1461 404 LINE",
"1461 456 LINE",
"1335 456 LINE",
"1335 404 LINE"
);
},
{
closed = 1;
nodes = (
"1573 0 LINE",
"1573 404 LINE",
"1719 404 LINE",
"1719 440 LINE",
"1697 456 LINE",
"1571 456 LINE",
"1572 504 OFFCURVE",
"1562 636 OFFCURVE",
"1610 689 CURVE SMOOTH",
"1635 717 OFFCURVE",
"1666 729 OFFCURVE",
"1697 729 CURVE SMOOTH",
"1748 729 OFFCURVE",
"1800 694 OFFCURVE",
"1819 640 CURVE",
"1869 652 OFFCURVE",
"1893 698 OFFCURVE",
"1877 732 CURVE SMOOTH",
"1859 771 OFFCURVE",
"1813 794 OFFCURVE",
"1757 796 CURVE SMOOTH",
"1692 798 OFFCURVE",
"1634 787 OFFCURVE",
"1574 729 CURVE SMOOTH",
"1495 653 OFFCURVE",
"1492 548 OFFCURVE",
"1492 456 CURVE",
"1442 456 LINE",
"1431 404 LINE",
"1492 404 LINE",
"1492 0 LINE"
);
},
{
closed = 1;
nodes = (
"1898 0 LINE",
"1898 429 LINE",
"1817 415 LINE",
"1817 0 LINE"
);
},
{
closed = 1;
nodes = (
"1898 404 LINE",
"1898 438 LINE",
"1872 456 LINE",
"1653 456 LINE",
"1653 404 LINE"
);
},
{
closed = 1;
nodes = (
"178 1204 LINE",
"778 1204 LINE",
"778 1256 LINE",
"178 1256 LINE"
);
},
{
closed = 1;
nodes = (
"798 800 LINE",
"798 1242 LINE",
"778 1256 LINE",
"717 1234 LINE",
"717 800 LINE"
);
}
);
};
components = (
{
alignment = -1;
name = ligature_f_i;
transform = "{1, 0, 0, 1, 333, 0}";
},
{
alignment = -1;
name = ligature_f_2;
transform = "{1, 0, 0, 1, 28, 0}";
},
{
name = serifLC;
transform = "{-1, 0, 0, 1, 717, 0}";
},
{
name = serifLC;
transform = "{1, 0, 0, 1, 798, 0}";
},
{
name = f_bar_left;
transform = "{1, 0, 0, 1, 42, 0}";
}
);
layerId = "6D97EE47-94AA-478E-ABFB-936E6C32B491";
paths = (
{
closed = 1;
nodes = (
"178 404 LINE",
"798 404 LINE",
"798 456 LINE",
"178 456 LINE"
);
},
{
closed = 1;
nodes = (
"798 0 LINE",
"798 456 LINE",
"778 470 LINE",
"717 444 LINE",
"717 0 LINE"
);
}
);
width = 899;
}
);
leftKerningGroup = f;
leftMetricsKey = f;
rightKerningGroup = i;
rightMetricsKey = i;
},
{
glyphname = f_f_j.liga;
lastChange = "2023-05-25 21:32:22 +0000";
layers = (
{
background = {
components = (
{
name = jdotless;
transform = "{1, 0, 0, 1, 620, 0}";
}
);
paths = (
{
closed = 1;
nodes = (
"1348 0 LINE",
"1348 404 LINE",
"1494 404 LINE",
"1494 440 LINE",
"1472 456 LINE",
"1346 456 LINE",
"1347 504 OFFCURVE",
"1336 628 OFFCURVE",
"1385 680 CURVE SMOOTH",
"1408 704 OFFCURVE",
"1442 718 OFFCURVE",
"1479 718 CURVE SMOOTH",
"1534 718 OFFCURVE",
"1596 687 OFFCURVE",
"1636 618 CURVE",
"1677 711 LINE",
"1626 758 OFFCURVE",
"1564 783 OFFCURVE",
"1504 783 CURVE SMOOTH",
"1449 783 OFFCURVE",
"1395 763 OFFCURVE",
"1349 720 CURVE SMOOTH",
"1269 645 OFFCURVE",
"1267 548 OFFCURVE",
"1267 456 CURVE",
"1217 456 LINE",
"1206 400 LINE",
"1267 400 LINE",
"1267 0 LINE"
);
},
{
closed = 1;
nodes = (
"1569 404 LINE",
"1569 456 LINE",
"1443 456 LINE",
"1443 404 LINE"
);
},
{
closed = 1;
nodes = (
"1837 -270 OFFCURVE",
"1960 -182 OFFCURVE",
"1998 -20 CURVE",
"1998 428 LINE",
"1917 411 LINE",
"1917 13 LINE SMOOTH",
"1917 -16 OFFCURVE",
"1914 -46 OFFCURVE",
"1909 -69 CURVE SMOOTH",
"1887 -159 OFFCURVE",
"1832 -231 OFFCURVE",
"1798 -262 CURVE",
"1815 -284 LINE"
);
},
{
closed = 1;
nodes = (
"1673 0 LINE",
"1673 404 LINE",
"1819 404 LINE",
"1819 440 LINE",
"1797 456 LINE",
"1671 456 LINE",
"1672 504 OFFCURVE",
"1662 636 OFFCURVE",
"1710 689 CURVE SMOOTH",
"1735 717 OFFCURVE",
"1766 729 OFFCURVE",
"1797 729 CURVE SMOOTH",
"1848 729 OFFCURVE",
"1900 694 OFFCURVE",
"1919 640 CURVE",
"1969 652 OFFCURVE",
"1993 698 OFFCURVE",
"1977 732 CURVE SMOOTH",
"1959 771 OFFCURVE",
"1913 794 OFFCURVE",
"1857 796 CURVE SMOOTH",
"1792 798 OFFCURVE",
"1734 787 OFFCURVE",
"1674 729 CURVE SMOOTH",
"1595 653 OFFCURVE",
"1592 548 OFFCURVE",
"1592 456 CURVE",
"1542 456 LINE",
"1531 404 LINE",
"1592 404 LINE",
"1592 0 LINE"
);
},
{
closed = 1;
nodes = (
"1998 404 LINE",
"1998 438 LINE",
"1972 456 LINE",
"1753 456 LINE",
"1753 404 LINE"
);
}
);
};
components = (
{
alignment = -1;
name = ligature_f_i;
transform = "{1, 0, 0, 1, 333, 0}";
},
{
alignment = -1;
name = ligature_f_2;
transform = "{1, 0, 0, 1, 28, 0}";
},
{
name = f_bar_left;
transform = "{1, 0, 0, 1, 42, 0}";
}
);
layerId = "6D97EE47-94AA-478E-ABFB-936E6C32B491";
paths = (
{
closed = 1;
nodes = (
"178 404 LINE",
"778 404 LINE",
"778 456 LINE",
"178 456 LINE"
);
},
{
closed = 1;
nodes = (
"637 -270 OFFCURVE",
"760 -182 OFFCURVE",
"798 -20 CURVE",
"717 -20 LINE",
"707 -132 OFFCURVE",
"638 -226 OFFCURVE",
"598 -262 CURVE",
"615 -284 LINE"
);
},
{
closed = 1;
nodes = (
"755 9 LINE",
"717 62 LINE",
"718 19 OFFCURVE",
"717 -43 OFFCURVE",
"706 -80 CURVE"
);
},
{
closed = 1;
nodes = (
"798 -20 LINE",
"798 456 LINE",
"778 470 LINE",
"717 444 LINE",
"717 -20 LINE"
);
}
);
width = 848;
}
);
leftKerningGroup = f;
leftMetricsKey = f;
rightKerningGroup = j;
rightMetricsKey = j;
},
